<?xml version="1.0" standalone="no"?>
<!DOCTYPE svg PUBLIC "-//W3C//DTD SVG 1.1//EN" "http://www.w3.org/Graphics/SVG/1.1/DTD/svg11.dtd" >
<svg xmlns="http://www.w3.org/2000/svg">
<metadata>
Created by FontPrep 20130207 at Sun Jul 24 12:15:09 2016
 By James Holt
Copyright 2014 Dinamo (Johannes Breyer, Fabian Harb)
</metadata>
<defs>
<font id="f613b1b4fb9027f17fa2d31bc4d38c5f" horiz-adv-x='1024' >
  <font-face 
    font-family="Favorit-Bold"
    font-weight="600"
    font-stretch="normal"
    units-per-em="2048"
    panose-1="2 1 8 3 3 2 1 8 2 3"
    ascent="1638"
    descent="-410"
    x-height="1024"
    cap-height="1434"
    bbox="-348 -635 4403 2081"
    underline-thickness="0"
    underline-position="0"
    unicode-range="U+0020-FB04"
  />
<missing-glyph horiz-adv-x="1310" 
d="M952 215v1004h-594v-1004h594zM1167 0h-1024v1434h1024v-1434z" />
    <glyph glyph-name="f_f" unicode="ff" horiz-adv-x="1497" 
d="M518 0h-266v809h-209v215h209v143q0 266 266 267h293v-222h-180q-69 0 -91 -22t-22 -90v-76h420v143q0 266 266 267h293v-222h-180q-69 0 -91 -22t-22 -90v-76h242v-215h-242v-809h-266v809h-420v-809z" />
    <glyph glyph-name="fi" unicode="fi" horiz-adv-x="1341" 
d="M518 0h-266v809h-209v215h209v143q0 266 266 267h293v-222h-180q-69 0 -91 -22t-22 -90v-76h686v-1024h-266v809h-420v-809zM928 1157v277h286v-277h-286z" />
    <glyph glyph-name="fl" unicode="fl" horiz-adv-x="1341" 
d="M518 0h-266v809h-209v215h209v143q0 266 266 267h686v-1434h-266v1212h-307q-69 0 -91 -22t-22 -90v-76h242v-215h-242v-809z" />
    <glyph glyph-name="f_f_i" unicode="ffi" horiz-adv-x="2027" 
d="M518 0h-266v809h-209v215h209v143q0 266 266 267h293v-222h-180q-69 0 -91 -22t-22 -90v-76h420v143q0 266 266 267h293v-222h-180q-69 0 -91 -22t-22 -90v-76h686v-1024h-266v809h-420v-809h-266v809h-420v-809zM1614 1157v277h287v-277h-287z" />
    <glyph glyph-name="f_f_l" unicode="ffl" horiz-adv-x="2027" 
d="M518 0h-266v809h-209v215h209v143q0 266 266 267h293v-222h-180q-69 0 -91 -22t-22 -90v-76h420v143q0 266 266 267h686v-1434h-266v1212h-307q-69 0 -91 -22t-22 -90v-76h242v-215h-242v-809h-266v809h-420v-809z" />
    <glyph glyph-name="W_W_W" unicode="www" horiz-adv-x="4212" 
d="M991 0l-180 717l-170 -717h-299l-313 1024h268l205 -760l166 760h284l178 -754l195 754h268l205 -760l166 760h285l178 -754l194 754h269l205 -760l165 760h285l178 -754l195 754h258l-293 -1024h-299l-180 717l-170 -717h-299l-180 588l-168 -588h-299l-181 717
l-170 -717h-299l-180 588l-168 -588h-299z" />
    <glyph glyph-name=".notdef" horiz-adv-x="1310" 
d="M952 215v1004h-594v-1004h594zM1167 0h-1024v1434h1024v-1434z" />
    <glyph glyph-name=".null" horiz-adv-x="0" 
 />
    <glyph glyph-name="nonmarkingreturn" horiz-adv-x="681" 
 />
    <glyph glyph-name="space" unicode=" " horiz-adv-x="479" 
 />
    <glyph glyph-name="exclam" unicode="!" horiz-adv-x="567" 
d="M150 0v266h266v-266h-266zM147 1434h273v-492l-64 -584h-145l-64 584v492z" />
    <glyph glyph-name="quotedbl" unicode="&#x22;" horiz-adv-x="796" 
d="M106 1434h236v-215l-66 -277h-104l-66 277v215zM455 1434h235v-215l-65 -277h-105l-65 277v215z" />
    <glyph glyph-name="numbersign" unicode="#" horiz-adv-x="1454" 
d="M82 328v235h256l65 307h-233v236h285l69 328h246l-70 -328h226l69 328h246l-70 -328h203v-236h-254l-65 -307h231v-235h-282l-70 -328h-246l70 328h-226l-69 -328h-246l70 328h-205zM809 563l65 307h-225l-65 -307h225z" />
    <glyph glyph-name="dollar" unicode="$" horiz-adv-x="1296" 
d="M666 1454h6l37 225h235l-43 -262q147 -51 229 -166t82 -268h-270q-8 117 -86 178l-55 -334q389 -80 389 -407q0 -193 -140 -317t-393 -123l-36 -226h-236l43 254q-172 47 -263 171t-97 302h270q10 -152 133 -221l57 352l-26 6q-362 76 -363 406q-1 174 139 302t388 128z
M758 565l-60 -350q104 4 163 56t59 124t-35 112t-127 58zM410 1034q0 -72 39 -108t124 -54l58 347q-101 -9 -161 -61t-60 -124z" />
    <glyph glyph-name="percent" unicode="%" horiz-adv-x="1929" 
d="M1501 178h8q131 0 131 226t-131 227h-8q-131 -1 -131 -227t131 -226zM1505 -10q-176 0 -266 121t-90 293t90 294q90 121 266 121q177 0 267 -121t90 -294q0 -174 -90 -294t-267 -120zM418 803h8q131 0 131 226t-131 226h-8q-131 0 -131 -226t131 -226zM649 0h-239
l860 1434h239zM422 614q-176 0 -266 121t-90 294t90 294t266 121t266 -121t90 -294t-90 -294t-266 -121z" />
    <glyph glyph-name="ampersand" unicode="&#x26;" horiz-adv-x="1361" 
d="M834 215v406h-230q-108 -1 -176 -49t-68 -150t69 -154t175 -53h230zM1100 0h-574q-176 0 -304 104t-128 275q0 127 74 218t199 130q-119 43 -191 128t-72 210q0 170 121 269t297 100h309v-215h-227q-106 -1 -170 -47t-63 -141t65 -145t168 -50h230v247h266v-247h215v-215
h-215v-621z" />
    <glyph glyph-name="quotesingle" unicode="'" horiz-adv-x="448" 
d="M106 1434h236v-215l-66 -277h-104l-66 277v215z" />
    <glyph glyph-name="parenleft" unicode="(" horiz-adv-x="839" 
d="M784 -297q-261 0 -470 244q-101 119 -163 319t-63 451q0 251 62 451q113 361 387 500q121 62 247 63v-226q-122 -17 -236 -132t-165 -353q-29 -135 -29 -303q0 -457 204 -668q102 -104 226 -121v-225z" />
    <glyph glyph-name="parenright" unicode=")" horiz-adv-x="839" 
d="M55 -297v225q123 17 237 132t165 354q29 135 28 303q0 460 -203 667q-102 104 -227 121v226q263 0 470 -244q101 -119 163 -320t64 -451q0 -250 -62 -450q-112 -359 -387 -500q-121 -63 -248 -63z" />
    <glyph glyph-name="asterisk" unicode="*" horiz-adv-x="915" 
d="M92 1102v188h195l-109 178l172 95l109 -179l106 179l172 -95l-108 -178h194v-188h-194l108 -178l-172 -95l-106 179l-109 -179l-172 95l109 178h-195z" />
    <glyph glyph-name="plus" unicode="+" horiz-adv-x="1173" 
d="M1092 410h-369v-379h-272v379h-369v235h369v379h272v-379h369v-235z" />
    <glyph glyph-name="comma" unicode="," horiz-adv-x="557" 
d="M147 -307h-84v153h74q127 0 127 134v20h-133v297h297v-328q0 -111 -81 -193t-200 -83z" />
    <glyph glyph-name="hyphen" unicode="-" horiz-adv-x="847" 
d="M127 512v215h594v-215h-594z" />
    <glyph glyph-name="period" unicode="." horiz-adv-x="550" 
d="M127 0v297h297v-297h-297z" />
    <glyph glyph-name="slash" unicode="/" horiz-adv-x="946" 
d="M57 0l553 1434h277l-543 -1434h-287z" />
    <glyph glyph-name="zero" unicode="0" horiz-adv-x="1372" 
d="M678 215h16q303 0 303 502t-303 502h-16q-303 0 -303 -502t303 -502zM686 -20q-280 0 -432 200t-152 536q0 338 156 538t428 200t428 -201t156 -537t-152 -536t-432 -200z" />
    <glyph glyph-name="one" unicode="1" horiz-adv-x="821" 
d="M647 0h-260v1049l-317 -306v338l362 353h215v-1434z" />
    <glyph glyph-name="two" unicode="2" horiz-adv-x="1208" 
d="M1108 0h-1010v248l488 459q135 127 182 193t47 140q0 76 -53 127t-137 52h-21q-94 -1 -155 -63t-64 -171h-272q0 215 140 342t356 127t347 -114t131 -291q0 -131 -61 -233t-211 -238l-373 -342h666v-236z" />
    <glyph glyph-name="three" unicode="3" horiz-adv-x="1224" 
d="M596 -20q-229 0 -369 112q-139 113 -139 303h272q8 -82 66 -131t160 -49h20q115 0 173 58q59 59 59 143t-70 133t-184 49h-97v236h86q117 0 187 54t70 139t-61 138q-60 53 -153 54h-20q-82 -1 -141 -51t-68 -134h-272q0 182 140 301t357 119q218 0 354 -116t136 -283
q0 -123 -69 -212t-183 -120q118 -31 190 -122t72 -212q0 -195 -144 -302t-372 -107z" />
    <glyph glyph-name="four" unicode="4" horiz-adv-x="1294" 
d="M752 526v543l-426 -543h426zM1012 0h-260v291h-693v268l684 875h269v-908h215v-235h-215v-291z" />
    <glyph glyph-name="five" unicode="5" horiz-adv-x="1216" 
d="M602 -20q-228 0 -373 116q-145 117 -168 303h273q20 -86 88 -135t168 -49h12q102 0 169 61q67 62 67 166t-66 162t-170 58h-12q-139 0 -230 -99h-249l176 871h809v-236h-602l-82 -391q94 90 250 90q200 0 324 -124q124 -125 124 -329t-140 -334t-368 -130z" />
    <glyph glyph-name="six" unicode="6" horiz-adv-x="1292" 
d="M391 461q0 -106 71 -176t183 -70h17q104 0 172 71t67 175q0 104 -67 175q-68 71 -172 71h-17q-109 0 -181 -70t-73 -176zM711 942q195 0 329 -130t134 -338t-140 -351t-392 -143q-253 0 -396 180q-144 180 -144 520t184 557t459 217q181 0 309 -105t150 -284h-272
q-8 68 -58 111t-141 43h-16q-133 0 -241 -115t-130 -356q48 90 146 142t219 52z" />
    <glyph glyph-name="seven" unicode="7" horiz-adv-x="1142" 
d="M569 0h-284v133q0 707 479 1055h-713v246h1034v-226q-516 -336 -516 -1075v-133z" />
    <glyph glyph-name="eight" unicode="8" horiz-adv-x="1204" 
d="M799 399q-1 83 -55 135t-132 52h-20q-78 0 -132 -52t-54 -134t53 -134q53 -51 133 -51h20q80 0 134 51t53 133zM592 1219q-90 -1 -152 -57t-63 -142q0 -86 63 -143t152 -58h20q88 -1 152 57t63 144q0 86 -62 142t-153 57h-20zM1071 369q0 -165 -124 -277t-344 -112
t-345 112t-125 277q0 242 242 325q-117 41 -194 137t-77 244q0 147 132 263t366 116t366 -116t132 -263t-77 -243t-194 -138q242 -84 242 -325z" />
    <glyph glyph-name="nine" unicode="9" horiz-adv-x="1292" 
d="M547 -20q-182 0 -309 105t-150 284h272q8 -68 58 -111t141 -43h16q133 0 241 115t130 356q-47 -90 -145 -142t-219 -52q-195 0 -329 130t-134 338t139 351t392 143q252 0 396 -180t144 -520t-184 -557t-459 -217zM901 973q0 106 -71 176t-183 70h-16q-104 0 -172 -71
t-68 -175t68 -175t172 -71h16q109 0 181 70t73 176z" />
    <glyph glyph-name="colon" unicode=":" horiz-adv-x="555" 
d="M129 0v297h297v-297h-297zM129 727v297h297v-297h-297z" />
    <glyph glyph-name="semicolon" unicode=";" horiz-adv-x="593" 
d="M172 -307h-84v153h74q127 0 127 134v20h-133v297h297v-328q0 -111 -81 -193t-200 -83zM154 727v297h297v-297h-297z" />
    <glyph glyph-name="less" unicode="&#x3c;" horiz-adv-x="1081" 
d="M952 53l-870 348v246l870 348v-262l-534 -201l534 -202v-277z" />
    <glyph glyph-name="equal" unicode="=" horiz-adv-x="1286" 
d="M137 205v235h1012v-235h-1012zM137 614v236h1012v-236h-1012z" />
    <glyph glyph-name="greater" unicode="&#x3e;" horiz-adv-x="1081" 
d="M129 53v260l541 205l-541 203v274l870 -348v-246z" />
    <glyph glyph-name="question" unicode="?" horiz-adv-x="1005" 
d="M254 0v266h266v-266h-266zM567 655q-31 0 -42 -10t-11 -41v-213h-252v316q0 79 43 121t119 42h55q190 0 191 164q0 76 -52 120t-139 44h-409v236h446q186 0 305 -109t119 -280t-102 -281t-271 -109z" />
    <glyph glyph-name="at" unicode="@" horiz-adv-x="1933" 
d="M956 377h11q75 -1 119 69t44 162t-44 163t-119 71h-11q-72 0 -118 -65t-45 -168t45 -167t118 -65zM530 610q0 178 104 306t266 128q163 0 241 -133v113h235v-645q88 0 150 84q61 84 61 274q0 235 -164 389t-435 154q-270 0 -460 -181t-190 -482t186 -475t490 -173h522
v-225h-543q-551 0 -781 390q-120 202 -120 478t130 477q130 202 334 304t437 102q348 0 594 -219t246 -539q0 -260 -127 -401t-303 -141h-262v112q-78 -133 -241 -133q-162 0 -266 129t-104 307z" />
    <glyph glyph-name="A" unicode="A" horiz-adv-x="1460" 
d="M1155 0l-129 338h-602l-129 -338h-291l567 1434h324l553 -1434h-293zM932 584l-207 542l-207 -542h414z" />
    <glyph glyph-name="B" unicode="B" horiz-adv-x="1366" 
d="M444 246h338q102 0 159 46q56 46 56 136q0 180 -215 180h-338v-362zM444 846h318q205 0 205 171t-205 171h-318v-342zM823 0h-655v1434h635q201 0 321 -106t119 -250q-1 -142 -67 -230t-175 -121q119 -25 196 -116t77 -243t-127 -260t-324 -108z" />
    <glyph glyph-name="C" unicode="C" horiz-adv-x="1456" 
d="M776 -20q-326 0 -506 200t-180 537t180 537t506 200q272 0 429 -139t173 -352h-276q-25 119 -106 182t-210 63h-20q-180 0 -290 -132t-110 -359t110 -360q110 -132 290 -132h20q265 0 316 246h276q-16 -219 -172 -355t-430 -136z" />
    <glyph glyph-name="D" unicode="D" horiz-adv-x="1476" 
d="M444 246h195q223 0 347 108t124 363t-124 363t-347 108h-195v-942zM168 0v1434h491q332 0 530 -186q197 -186 197 -532q0 -345 -193 -531q-194 -185 -523 -185h-502z" />
    <glyph glyph-name="E" unicode="E" horiz-adv-x="1353" 
d="M168 0v1434h1085v-246h-809v-330h686v-246h-686v-366h830v-246h-1106z" />
    <glyph glyph-name="F" unicode="F" horiz-adv-x="1261" 
d="M168 0v1434h1044v-246h-768v-369h666v-246h-666v-573h-276z" />
    <glyph glyph-name="G" unicode="G" horiz-adv-x="1525" 
d="M1182 0v139q-150 -160 -389 -159q-317 0 -512 208t-195 528t195 529t512 209q270 0 434 -142t180 -370h-277q-16 121 -98 194t-229 72h-21q-196 0 -308 -133t-112 -358t112 -359t308 -133h21q139 0 245 74q105 74 138 203h-393v246h450q174 0 174 -175v-573h-235z" />
    <glyph glyph-name="H" unicode="H" horiz-adv-x="1513" 
d="M168 0v1434h276v-594h625v594h277v-1434h-277v594h-625v-594h-276z" />
    <glyph glyph-name="I" unicode="I" horiz-adv-x="612" 
d="M168 0v1434h276v-1434h-276z" />
    <glyph glyph-name="J" unicode="J" horiz-adv-x="878" 
d="M432 0h-375v266h262q70 0 97 27t26 96v1045h277v-1147q0 -131 -78 -209t-209 -78z" />
    <glyph glyph-name="K" unicode="K" horiz-adv-x="1404" 
d="M444 0h-276v1434h276v-643l609 643h342l-564 -594l576 -840h-342l-432 631l-189 -199v-432z" />
    <glyph glyph-name="L" unicode="L" horiz-adv-x="1290" 
d="M168 0v1434h276v-1188h809v-246h-1085z" />
    <glyph glyph-name="M" unicode="M" horiz-adv-x="1902" 
d="M438 0h-270v1434h430l360 -1127l349 1127h428v-1434h-271v1130l-356 -1130h-303l-367 1133v-1133z" />
    <glyph glyph-name="N" unicode="N" horiz-adv-x="1533" 
d="M444 0h-276v1434h358l564 -1051v1051h276v-1434h-358l-564 1055v-1055z" />
    <glyph glyph-name="O" unicode="O" horiz-adv-x="1568" 
d="M774 225h21q193 0 301 131q108 130 108 360t-108 361q-109 131 -301 131h-21q-194 0 -302 -131t-108 -360t109 -361q108 -132 301 -131zM784 -20q-312 0 -504 198t-192 539t193 539t503 198t504 -199q193 -199 193 -539t-193 -538t-504 -198z" />
    <glyph glyph-name="P" unicode="P" horiz-adv-x="1335" 
d="M444 776h338q104 0 160 56t55 151q0 93 -55 149t-160 56h-338v-412zM168 0v1434h645q211 0 336 -119t125 -332t-125 -333t-336 -120h-369v-530h-276z" />
    <glyph glyph-name="Q" unicode="Q" horiz-adv-x="1568" 
d="M774 225h21q193 0 301 131q108 130 108 360t-108 361q-109 131 -301 131h-21q-194 0 -302 -131t-108 -360t109 -361q108 -132 301 -131zM1305 -410h-383q-266 0 -267 267v133q-259 40 -413 232t-154 514t193 520t503 198t504 -199q193 -199 193 -519t-153 -512t-408 -234
v-62q0 -70 22 -92t90 -20h273v-226z" />
    <glyph glyph-name="R" unicode="R" horiz-adv-x="1396" 
d="M168 0v1434h666q186 0 313 -111t127 -279q0 -270 -244 -362q223 0 223 -203v-479h-276v410q0 78 -28 106t-105 27h-400v-543h-276zM444 784h308q246 0 245 207q0 197 -245 197h-308v-404z" />
    <glyph glyph-name="S" unicode="S" horiz-adv-x="1298" 
d="M674 1208h-21q-111 0 -179 -51t-66 -122q0 -71 40 -107t134 -56l215 -43q397 -80 397 -409q0 -190 -146 -316t-418 -124q-272 0 -417 134t-154 367h277q8 -115 91 -185t237 -71h20q111 0 172 50q62 50 62 120t-35 107t-127 55l-256 53q-369 76 -369 414q1 174 147 302
t399 128t396 -131t144 -340h-277q-8 109 -80 167t-186 58z" />
    <glyph glyph-name="T" unicode="T" horiz-adv-x="1343" 
d="M532 0v1188h-495v246h1270v-246h-498v-1188h-277z" />
    <glyph glyph-name="U" unicode="U" horiz-adv-x="1437" 
d="M719 -20q-285 0 -424 135t-139 387v932h276v-891q0 -166 68 -242t209 -76h20q141 0 209 76t68 242v891h276v-932q0 -252 -139 -387t-424 -135z" />
    <glyph glyph-name="V" unicode="V" horiz-adv-x="1466" 
d="M915 0h-358l-549 1434h309l424 -1143l408 1143h303z" />
    <glyph glyph-name="W" unicode="W" horiz-adv-x="1945" 
d="M1192 0l-219 1044l-221 -1044h-359l-352 1434h285l256 -1137l225 1137h338l225 -1137l248 1137h287l-355 -1434h-358z" />
    <glyph glyph-name="X" unicode="X" horiz-adv-x="1314" 
d="M987 0l-334 508l-340 -508h-311l496 735l-465 699h325l304 -463l309 463h311l-465 -689l496 -745h-326z" />
    <glyph glyph-name="Y" unicode="Y" horiz-adv-x="1357" 
d="M817 0h-276v573l-533 861h314l366 -603l361 603h303l-535 -861v-573z" />
    <glyph glyph-name="Z" unicode="Z" horiz-adv-x="1300" 
d="M1219 0h-1137v236l795 952h-775v246h1096v-236l-795 -952h816v-246z" />
    <glyph glyph-name="bracketleft" unicode="[" horiz-adv-x="718" 
d="M162 -297v2028h491v-215h-225v-1598h225v-215h-491z" />
    <glyph glyph-name="backslash" unicode="\" horiz-adv-x="946" 
d="M336 1434l553 -1434h-287l-543 1434h277z" />
    <glyph glyph-name="bracketright" unicode="]" horiz-adv-x="718" 
d="M557 1731v-2028h-491v215h225v1598h-225v215h491z" />
    <glyph glyph-name="asciicircum" unicode="^" horiz-adv-x="1105" 
d="M754 584l-203 503l-203 -503h-280l358 850h254l358 -850h-284z" />
    <glyph glyph-name="underscore" unicode="_" horiz-adv-x="1085" 
d="M61 -215v215h963v-215h-963z" />
    <glyph glyph-name="grave" unicode="`" horiz-adv-x="399" 
d="M328 1434l51 -308h-154l-205 308h308z" />
    <glyph glyph-name="a" unicode="a" horiz-adv-x="1093" 
d="M410 -20q-141 0 -239 82q-97 83 -97 229q0 145 104 229t271 98l258 23v25q0 72 -45 118t-121 45h-13q-72 -1 -118 -37t-50 -85h-266q16 147 134 242t311 95t309 -96t117 -272v-451q0 -154 10 -225h-250q-8 43 -12 125q-102 -145 -303 -145zM465 195h10q94 0 163 62
t69 161v28l-222 -22q-59 -6 -104 -37t-45 -83t37 -80t92 -29z" />
    <glyph glyph-name="b" unicode="b" horiz-adv-x="1230" 
d="M637 195h16q102 0 168 88t66 231t-66 229t-168 86h-16q-96 0 -165 -88t-69 -229t69 -229t165 -88zM1153 512q0 -221 -121 -377t-334 -155q-100 0 -180 47t-115 106v-133h-266v1434h266v-543q35 59 115 106t180 47q213 0 334 -156t121 -376z" />
    <glyph glyph-name="c" unicode="c" horiz-adv-x="1103" 
d="M567 -20q-209 0 -348 145t-139 387t139 387t348 145t330 -95t135 -283h-266q-27 164 -188 163h-13q-109 0 -164 -89t-55 -228t55 -228t164 -89h13q161 -1 188 163h266q-14 -188 -135 -283t-330 -95z" />
    <glyph glyph-name="d" unicode="d" horiz-adv-x="1230" 
d="M532 -20q-214 0 -334 156t-120 376q0 221 121 377t333 155q100 0 180 -47t115 -106v543h267v-1434h-267v133q-35 -59 -115 -106t-180 -47zM578 195h16q96 0 165 88t68 229q0 141 -68 229q-69 88 -165 88h-16q-102 0 -168 -86t-66 -229t66 -231t168 -88z" />
    <glyph glyph-name="e" unicode="e" horiz-adv-x="1107" 
d="M551 829q-89 0 -149 -53t-64 -143h438q-4 90 -64 143t-149 53h-12zM558 -20q-194 0 -336 144t-142 384t131 388t355 148t346 -144t122 -376q0 -31 -4 -96h-692q8 -102 77 -168t156 -65h13q74 1 121 37t61 92h264q-39 -156 -158 -250q-120 -94 -314 -94z" />
    <glyph glyph-name="f" unicode="f" horiz-adv-x="811" 
d="M252 0v809h-209v215h209v143q0 266 266 267h293v-222h-180q-69 0 -91 -22t-22 -90v-76h242v-215h-242v-809h-266z" />
    <glyph glyph-name="g" unicode="g" horiz-adv-x="1214" 
d="M547 -449q-205 -1 -340 93t-144 243h267q10 -55 69 -88t160 -32h12q104 0 172 62t68 181v133q-87 -143 -281 -143t-322 139t-128 383t128 383t322 139t281 -143v123h266v-1047q0 -174 -139 -300t-391 -126zM575 215h17q94 0 157 83q62 83 62 224t-62 224t-157 83h-17
q-101 0 -165 -83t-64 -224t64 -224t165 -83z" />
    <glyph glyph-name="h" unicode="h" horiz-adv-x="1196" 
d="M403 569v-569h-266v1434h266v-560q47 78 129 124t181 46q178 0 267 -105t89 -284v-655h-266v625q0 98 -42 151t-120 53h-16q-92 1 -157 -75t-65 -185z" />
    <glyph glyph-name="i" unicode="i" horiz-adv-x="540" 
d="M137 0v1024h266v-1024h-266zM127 1157v277h287v-277h-287z" />
    <glyph glyph-name="j" unicode="j" horiz-adv-x="557" 
d="M420 1024v-1178q0 -124 -67 -190t-189 -66h-332v226h209q61 0 87 26t26 86v1096h266zM141 1157v277h287v-277h-287z" />
    <glyph glyph-name="k" unicode="k" horiz-adv-x="1128" 
d="M403 0h-266v1434h266v-791l371 381h326l-393 -408l413 -616h-313l-285 426l-119 -121v-305z" />
    <glyph glyph-name="l" unicode="l" horiz-adv-x="540" 
d="M137 0v1434h266v-1434h-266z" />
    <glyph glyph-name="m" unicode="m" horiz-adv-x="1851" 
d="M403 569v-569h-266v1024h266v-145q101 165 317 165t302 -176q111 176 338 176q188 0 276 -108t88 -291v-645h-266v614q0 205 -160 205h-12q-94 0 -158 -71q-63 -72 -63 -179v-569h-266v614q0 205 -162 205h-12q-94 0 -158 -72t-64 -178z" />
    <glyph glyph-name="n" unicode="n" horiz-adv-x="1196" 
d="M403 569v-569h-266v1024h266v-150q47 78 129 124t181 46q178 0 267 -105t89 -284v-655h-266v625q0 98 -42 151t-120 53h-16q-92 1 -157 -75t-65 -185z" />
    <glyph glyph-name="o" unicode="o" horiz-adv-x="1179" 
d="M598 195q109 0 172 84q64 83 64 233t-64 234t-172 83h-16q-109 0 -172 -84q-64 -83 -64 -233t64 -234t172 -83h16zM590 -20q-227 0 -370 149q-142 150 -142 383t142 383q142 149 370 149t369 -150q143 -150 143 -382t-142 -382t-370 -150z" />
    <glyph glyph-name="p" unicode="p" horiz-adv-x="1230" 
d="M698 1044q213 0 334 -156t121 -376q0 -221 -121 -377t-334 -155q-100 0 -180 47t-115 106v-543h-266v1434h266v-133q35 59 115 106t180 47zM653 829h-16q-96 0 -165 -88t-69 -229t69 -229t165 -88h16q102 0 168 86t66 229t-66 231t-168 88z" />
    <glyph glyph-name="q" unicode="q" horiz-adv-x="1232" 
d="M596 829h-16q-102 0 -168 -88t-66 -231t66 -229t168 -86h16q96 0 165 88t68 229q0 141 -68 229q-69 88 -165 88zM80 512q0 221 121 377t334 155q100 0 180 -47t114 -106v133h267v-1434h-267v543q-35 -59 -115 -106t-179 -47q-213 0 -334 156t-121 376z" />
    <glyph glyph-name="r" unicode="r" horiz-adv-x="792" 
d="M137 0v1024h266v-205q31 103 108 159t189 56h52v-246h-93q-256 0 -256 -256v-532h-266z" />
    <glyph glyph-name="s" unicode="s" horiz-adv-x="1017" 
d="M928 286q0 -128 -110 -217t-314 -89q-203 0 -321 95t-117 263h272q0 -70 47 -112t125 -42h16q61 0 99 28q37 28 37 73q0 76 -105 102l-133 33q-164 41 -241 114q-77 74 -77 204t112 218t306 88t304 -94t110 -264h-266q-16 154 -154 154h-16q-55 0 -92 -28t-37 -73
q0 -72 131 -104l137 -35q147 -37 217 -111q70 -75 70 -203z" />
    <glyph glyph-name="t" unicode="t" horiz-adv-x="833" 
d="M772 225v-225h-260q-266 0 -266 266v543h-211v215h211v332h266v-332h229v-215h-229v-471q0 -70 22 -92t91 -21h147z" />
    <glyph glyph-name="u" unicode="u" horiz-adv-x="1177" 
d="M774 455v569h266v-1024h-266v150q-47 -78 -126 -124t-173 -46q-172 0 -259 105t-87 284v655h266v-625q0 -98 40 -151t112 -53h16q88 0 150 75q61 76 61 185z" />
    <glyph glyph-name="v" unicode="v" horiz-adv-x="1144" 
d="M766 0h-387l-354 1024h282l271 -827l268 827h274z" />
    <glyph glyph-name="w" unicode="w" horiz-adv-x="1619" 
d="M991 0l-180 717l-170 -717h-299l-313 1024h268l205 -760l166 760h284l178 -754l195 754h258l-293 -1024h-299z" />
    <glyph glyph-name="x" unicode="x" horiz-adv-x="1075" 
d="M758 0l-223 313l-226 -313h-289l371 516l-360 508h297l213 -299l215 299h288l-360 -502l371 -522h-297z" />
    <glyph glyph-name="y" unicode="y" horiz-adv-x="1171" 
d="M461 -414h-373v230h272q70 0 92 22t21 90v150l-446 946h299l276 -623l266 623h295l-436 -936v-235q0 -267 -266 -267z" />
    <glyph glyph-name="z" unicode="z" horiz-adv-x="1042" 
d="M971 0h-891v205l528 583h-518v236h850v-205l-528 -583h559v-236z" />
    <glyph glyph-name="braceleft" unicode="{" horiz-adv-x="747" 
d="M330 739v-45q74 0 119 -46t45 -140v-436q0 -88 24 -121t98 -33h64v-215h-176q-276 0 -277 317v420q0 78 -20 106t-82 27h-51v287h51q61 0 82 28q20 28 20 105v420q0 317 277 318h176v-215h-64q-74 0 -98 -33t-24 -121v-436q0 -94 -45 -140t-119 -47z" />
    <glyph glyph-name="bar" unicode="|" horiz-adv-x="595" 
d="M434 -174h-272v1782h272v-1782z" />
    <glyph glyph-name="braceright" unicode="}" horiz-adv-x="747" 
d="M418 694v45q-74 0 -119 46t-45 141v436q0 88 -25 121t-98 33h-63v215h176q276 0 276 -318v-420q0 -77 20 -105t83 -28h51v-287h-51q-61 0 -82 -27q-20 -28 -21 -106v-420q0 -317 -276 -317h-176v215h63q75 0 99 33t24 121v436q0 94 45 140t119 46z" />
    <glyph glyph-name="asciitilde" unicode="~" horiz-adv-x="1030" 
d="M659 901q61 0 62 82h194v-53q0 -102 -56 -168t-169 -66q-72 0 -164 49l-37 21q-106 61 -139 11q-16 -24 -16 -60h-195v53q0 96 67 165t153 69t163 -41l37 -21q82 -41 100 -41z" />
    <glyph glyph-name="exclamdown" unicode="&#xa1;" horiz-adv-x="546" 
d="M410 -410h-273v492l64 584h145l64 -584v-492zM139 758v266h267v-266h-267z" />
    <glyph glyph-name="cent" unicode="&#xa2;" horiz-adv-x="1110" 
d="M594 -20h-2l-39 -226h-211l45 262q-145 54 -225 188t-80 308q0 224 127 372t350 160l39 226h211l-43 -252q116 -41 186 -132t82 -220h-264q-10 59 -47 96l-92 -549q55 8 92 48t47 97h264q-16 -174 -136 -276t-304 -102zM348 512q0 -152 82 -236l90 527q-82 -25 -127 -106
t-45 -185z" />
    <glyph glyph-name="sterling" unicode="&#xa3;" horiz-adv-x="1214" 
d="M1147 0h-1057v236h88q66 0 96 30t33 96l12 179l-229 -56v226l248 59l16 234q33 430 455 430h235v-236h-241q-90 0 -131 -44t-49 -161l-13 -157l228 53v-225l-244 -58l-16 -203q-10 -115 -91 -167h660v-236z" />
    <glyph glyph-name="currency" unicode="&#xa4;" horiz-adv-x="1517" 
d="M745 317h17q120 0 196 85q76 84 76 220t-76 218t-196 82h-17q-121 0 -197 -82t-75 -217q-1 -135 75 -221t197 -85zM756 82q-160 0 -295 80l-178 -172l-185 184l178 170q-76 132 -76 280t70 269l-172 172l185 184l176 -170q135 78 299 78t297 -82l180 174l184 -184
l-180 -180q68 -119 68 -263t-72 -272l184 -176l-184 -184l-182 174q-137 -82 -297 -82z" />
    <glyph glyph-name="yen" unicode="&#xa5;" horiz-adv-x="1415" 
d="M844 0h-273v215l-272 -61v225l272 61v127l-333 -73v225l225 49l-408 666h293l367 -600l360 600h287l-330 -539l150 33v-226l-310 -67l-28 -47v-88l276 61v-225l-276 -62v-274z" />
    <glyph glyph-name="brokenbar" unicode="&#xa6;" horiz-adv-x="591" 
d="M160 -174v778h272v-778h-272zM160 850v758h272v-758h-272z" />
    <glyph glyph-name="section" unicode="&#xa7;" horiz-adv-x="1107" 
d="M760 631q0 86 -127 125l-178 57q-102 -43 -103 -137q0 -57 59 -84q21 -11 62 -27l180 -67q51 18 79 57t28 76zM590 -123h-428v215h420q106 0 106 84q0 63 -92 96l-285 107q-121 45 -177 111t-54 169q4 160 186 256q-108 79 -108 225t93 221t273 75l385 -2v-215h-368
q-117 0 -117 -82q0 -68 88 -95l186 -61q170 -55 252 -122t82 -189q0 -86 -51 -160t-139 -117q119 -94 119 -220q1 -126 -91 -211t-280 -85z" />
    <glyph glyph-name="dieresis" unicode="&#xa8;" horiz-adv-x="696" 
d="M20 1157v266h246v-266h-246zM430 1157v266h246v-266h-246z" />
    <glyph glyph-name="copyright" unicode="&#xa9;" horiz-adv-x="1781" 
d="M1233 829h-221q-16 117 -117 117h-8q-131 0 -131 -227t131 -227h8q102 0 119 122h219q0 -135 -86 -223t-260 -88t-264 121t-91 295q0 174 90 295t265 121q174 -1 260 -87t86 -219zM891 98q252 0 431 182t179 439q0 256 -179 438t-431 182t-431 -182t-179 -438
q0 -257 179 -439t431 -182zM891 -80q-330 0 -564 234t-235 565q0 330 234 564q234 235 565 235q330 0 564 -234q235 -234 235 -565t-234 -565t-565 -234z" />
    <glyph glyph-name="ordfeminine" unicode="&#xaa;" horiz-adv-x="778" 
d="M302 840q-97 0 -151 49t-55 129q0 150 221 176l134 16v19q0 68 -66 67h-8q-59 0 -70 -45h-190q4 88 73 141q70 52 191 52t193 -56t73 -147v-262q0 -74 8 -129h-182q-4 18 -8 74q-66 -84 -163 -84zM350 987h8q39 0 68 27t29 73v21l-113 -21q-49 -10 -49 -51q0 -49 57 -49z
" />
    <glyph glyph-name="guillemotleft" unicode="&#xab;" horiz-adv-x="1232" 
d="M1161 143h-307l-297 441l297 440h307l-297 -440zM670 143h-308l-296 441l296 440h308l-297 -440z" />
    <glyph glyph-name="logicalnot" unicode="&#xac;" horiz-adv-x="1263" 
d="M1118 236h-272v276h-715v236h987v-512z" />
    <glyph glyph-name="registered" unicode="&#xae;" horiz-adv-x="1781" 
d="M590 324v790h381q125 0 193 -60t67 -157q0 -170 -166 -207q80 0 118 -28t38 -95v-243h-213v202q0 40 -14 56t-58 16h-133v-274h-213zM803 774h129q86 0 86 79t-90 79h-125v-158zM891 98q252 0 431 182t179 439q0 256 -179 438t-431 182t-431 -182t-179 -438
q0 -257 179 -439t431 -182zM891 -80q-330 0 -564 234t-235 565q0 330 234 564q234 235 565 235q330 0 564 -234q235 -234 235 -565t-234 -565t-565 -234z" />
    <glyph glyph-name="macron" unicode="&#xaf;" horiz-adv-x="665" 
d="M20 1157v215h625v-215h-625z" />
    <glyph glyph-name="degree" unicode="&#xb0;" horiz-adv-x="917" 
d="M459 918q61 0 103 45t42 110t-42 107t-103 43q-61 0 -103 -42t-43 -108q1 -67 43 -111t103 -44zM459 696q-162 0 -271 109q-108 109 -108 271t108 270q109 108 271 108q163 0 271 -108t108 -271t-108 -271t-271 -108z" />
    <glyph glyph-name="plusminus" unicode="&#xb1;" horiz-adv-x="1269" 
d="M129 0v233h1012v-233h-1012zM1141 563h-371v-215h-272v215h-369v236h369v225h272v-225h371v-236z" />
    <glyph glyph-name="twosuperior" unicode="&#xb2;" horiz-adv-x="765" 
d="M684 850h-606v172l305 276q78 70 78 109t-22 61t-54 21h-8q-33 0 -58 -27t-26 -61h-219q8 121 97 195t220 73q131 0 211 -74q80 -73 80 -153t-30 -127t-89 -103l-194 -178h315v-184z" />
    <glyph glyph-name="threesuperior" unicode="&#xb3;" horiz-adv-x="774" 
d="M375 840q-131 0 -220 63t-89 176h221q1 -27 27 -44t59 -17h10q39 0 65 22t25 58q0 35 -24 54q-25 19 -64 19h-76v172h76q37 1 59 21t23 53q-1 33 -21 53t-57 21h-10q-31 0 -53 -17t-25 -40h-221q0 111 88 173t215 62t216 -62t89 -180t-113 -167q119 -55 119 -191
q0 -109 -94 -169t-225 -60z" />
    <glyph glyph-name="acute" unicode="&#xb4;" horiz-adv-x="399" 
d="M20 1126l52 308h307l-205 -308h-154z" />
    <glyph glyph-name="mu" unicode="&#xb5;" horiz-adv-x="1185" 
d="M483 -20q-43 0 -80 6v-396h-266v1434h266v-625q0 -98 40 -151t112 -53h16q88 0 150 75q61 76 61 185v569h267v-1024h-267v150q-47 -78 -126 -124t-173 -46z" />
    <glyph glyph-name="paragraph" unicode="&#xb6;" horiz-adv-x="1398" 
d="M760 -410h-266v971q-180 0 -309 128q-128 128 -128 308q0 181 128 309t309 128h809v-215h-144v-1629h-266v1629h-133v-1629z" />
    <glyph glyph-name="periodcentered" unicode="&#xb7;" horiz-adv-x="550" 
d="M127 565v297h297v-297h-297z" />
    <glyph glyph-name="cedilla" unicode="&#xb8;" horiz-adv-x="491" 
d="M41 -502v154h174q82 0 82 61q0 25 -17 43t-55 19h-112v256h143v-123q82 0 138 -50t56 -146t-68 -155q-69 -58 -177 -59h-164z" />
    <glyph glyph-name="onesuperior" unicode="&#xb9;" horiz-adv-x="616" 
d="M500 850h-215v524l-224 -184v258l256 211h183v-809z" />
    <glyph glyph-name="ordmasculine" unicode="&#xba;" horiz-adv-x="802" 
d="M406 1280h-9q-47 0 -75 -37t-27 -103q0 -66 28 -101q28 -36 74 -35h9q46 0 74 36t28 101q0 67 -28 103t-74 36zM401 1444q143 0 229 -86t87 -217q0 -131 -86 -216q-85 -85 -229 -85t-230 85t-86 216t86 217t229 86z" />
    <glyph glyph-name="guillemotright" unicode="&#xbb;" horiz-adv-x="1232" 
d="M379 143h-307l297 441l-297 440h307l297 -440zM870 143h-307l297 441l-297 440h307l297 -440z" />
    <glyph glyph-name="onequarter" unicode="&#xbc;" horiz-adv-x="1863" 
d="M1491 299v281l-215 -281h215zM1690 0h-199v127h-401v223l356 459h244v-510h108v-172h-108v-127zM504 625h-215v524l-223 -184v258l256 211h182v-809zM604 0h-239l860 1434h239z" />
    <glyph glyph-name="onehalf" unicode="&#xbd;" horiz-adv-x="1906" 
d="M1825 0h-606v172l305 277q78 71 78 109t-22 60t-54 21h-8q-33 0 -58 -27t-26 -61h-220q8 121 98 195t220 73q131 0 211 -74q80 -73 80 -153t-30 -127t-89 -103l-195 -178h316v-184zM504 625h-215v524l-223 -184v258l256 211h182v-809zM604 0h-239l860 1434h239z" />
    <glyph glyph-name="threequarters" unicode="&#xbe;" horiz-adv-x="1968" 
d="M1595 299v281l-215 -281h215zM1794 0h-199v127h-401v223l356 459h244v-510h109v-172h-109v-127zM379 614q-131 0 -220 64t-89 176h221q1 -27 27 -44t59 -17h10q39 1 65 23t26 56t-25 55q-25 19 -64 19h-76v172h76q37 0 60 20t22 54q0 33 -20 53t-58 21h-10q-31 0 -53 -18
t-25 -40h-221q0 111 88 173q88 63 215 63t216 -62t89 -181q0 -118 -112 -167q119 -55 118 -190q0 -110 -94 -170t-225 -60zM707 0h-240l860 1434h240z" />
    <glyph glyph-name="questiondown" unicode="&#xbf;" horiz-adv-x="993" 
d="M432 369q31 0 42 10t11 41v213h252v-316q0 -79 -43 -121t-119 -42h-55q-190 0 -190 -164q0 -76 52 -120t138 -44h410v-236h-447q-186 0 -305 109t-119 280q-1 171 101 281t272 109zM745 1024v-266h-266v266h266z" />
    <glyph glyph-name="Agrave" unicode="&#xc0;" horiz-adv-x="1460" 
d="M1155 0l-129 338h-602l-129 -338h-291l567 1434h324l553 -1434h-293zM932 584l-207 542l-207 -542h414zM842 1526h-185l-215 297h318z" />
    <glyph glyph-name="Aacute" unicode="&#xc1;" horiz-adv-x="1460" 
d="M1155 0l-129 338h-602l-129 -338h-291l567 1434h324l553 -1434h-293zM932 584l-207 542l-207 -542h414zM811 1526h-184l82 297h317z" />
    <glyph glyph-name="Acircumflex" unicode="&#xc2;" horiz-adv-x="1460" 
d="M1155 0l-129 338h-602l-129 -338h-291l567 1434h324l553 -1434h-293zM932 584l-207 542l-207 -542h414zM561 1526h-225l246 297h286l246 -297h-225l-164 119z" />
    <glyph glyph-name="Atilde" unicode="&#xc3;" horiz-adv-x="1460" 
d="M1155 0l-129 338h-602l-129 -338h-291l567 1434h324l553 -1434h-293zM932 584l-207 542l-207 -542h414zM338 1556v54q0 96 66 165q67 69 153 69t164 -42l37 -20q82 -41 100 -41q61 0 62 82h194v-54q0 -101 -56 -167t-169 -66q-72 0 -164 49l-37 21q-57 33 -92 32
q-62 4 -64 -82h-194z" />
    <glyph glyph-name="Adieresis" unicode="&#xc4;" horiz-adv-x="1460" 
d="M1155 0l-129 338h-602l-129 -338h-291l567 1434h324l553 -1434h-293zM932 584l-207 542l-207 -542h414zM655 1567h-256v245h256v-245zM1055 1567h-256v245h256v-245z" />
    <glyph glyph-name="Aring" unicode="&#xc5;" horiz-adv-x="1460" 
d="M1155 0l-129 338h-602l-129 -338h-291l567 1434h324l553 -1434h-293zM932 584l-207 542l-207 -542h414zM809 1720q0 33 -24 58q-25 24 -57 24t-56 -24t-25 -58q0 -34 25 -58q26 -24 58 -24t56 24t23 58zM732 1946q90 0 156 -68t66 -161t-64 -157t-158 -65q-93 0 -161 66
q-67 67 -67 157t68 159q69 69 160 69z" />
    <glyph glyph-name="AE" unicode="&#xc6;" horiz-adv-x="2029" 
d="M1860 1434v-246h-703l49 -330h592v-246h-561l53 -366h692v-246h-931l-50 338h-540l-170 -338h-301l747 1434h1123zM967 584l-84 587l-297 -587h381z" />
    <glyph glyph-name="Ccedilla" unicode="&#xc7;" horiz-adv-x="1456" 
d="M811 -92q83 0 139 -50t56 -147q0 -96 -69 -154t-177 -59h-164v154h174q82 0 82 61q0 25 -18 43t-54 19h-112v211q-276 32 -427 228t-151 518t180 522t506 200q272 0 429 -139t173 -352h-276q-25 119 -106 182t-210 63h-20q-180 0 -290 -132t-110 -359t110 -360
q110 -132 290 -132h20q264 0 316 246h276q-16 -213 -162 -348t-405 -143v-72z" />
    <glyph glyph-name="Egrave" unicode="&#xc8;" horiz-adv-x="1353" 
d="M168 0v1434h1085v-246h-809v-330h686v-246h-686v-366h830v-246h-1106zM854 1526h-184l-215 297h317z" />
    <glyph glyph-name="Eacute" unicode="&#xc9;" horiz-adv-x="1353" 
d="M168 0v1434h1085v-246h-809v-330h686v-246h-686v-366h830v-246h-1106zM782 1526h-184l82 297h317z" />
    <glyph glyph-name="Ecircumflex" unicode="&#xca;" horiz-adv-x="1353" 
d="M168 0v1434h1085v-246h-809v-330h686v-246h-686v-366h830v-246h-1106zM549 1526h-225l245 297h287l246 -297h-225l-164 119z" />
    <glyph glyph-name="Edieresis" unicode="&#xcb;" horiz-adv-x="1353" 
d="M168 0v1434h1085v-246h-809v-330h686v-246h-686v-366h830v-246h-1106zM643 1567h-256v245h256v-245zM1042 1567h-256v245h256v-245z" />
    <glyph glyph-name="Igrave" unicode="&#xcc;" horiz-adv-x="612" 
d="M168 0v1434h276v-1434h-276zM408 1526h-185l-215 297h318z" />
    <glyph glyph-name="Iacute" unicode="&#xcd;" horiz-adv-x="612" 
d="M168 0v1434h276v-1434h-276zM399 1526h-184l82 297h317z" />
    <glyph glyph-name="Icircumflex" unicode="&#xce;" horiz-adv-x="612" 
d="M168 0v1434h276v-1434h-276zM143 1526h-225l246 297h287l245 -297h-225l-164 119z" />
    <glyph glyph-name="Idieresis" unicode="&#xcf;" horiz-adv-x="612" 
d="M168 0v1434h276v-1434h-276zM236 1567h-256v245h256v-245zM635 1567h-256v245h256v-245z" />
    <glyph glyph-name="Eth" unicode="&#xd0;" horiz-adv-x="1540" 
d="M508 246h194q223 0 348 108q124 109 124 363q0 255 -124 363t-348 108h-194v-348h256v-246h-256v-348zM733 0h-502v594h-204v246h204v594h492q331 0 529 -186t198 -532q0 -344 -194 -530t-523 -186z" />
    <glyph glyph-name="Ntilde" unicode="&#xd1;" horiz-adv-x="1533" 
d="M444 0h-276v1434h358l564 -1051v1051h276v-1434h-358l-564 1055v-1055zM924 1741q61 0 61 82h195v-54q0 -101 -56 -167t-170 -66q-72 0 -163 49l-37 21q-57 34 -90 34q-66 1 -66 -84h-195v54q0 96 67 165t153 69t163 -42l37 -20q83 -41 101 -41z" />
    <glyph glyph-name="Ograve" unicode="&#xd2;" horiz-adv-x="1568" 
d="M774 225h21q193 0 301 131q108 130 108 360t-108 361q-109 131 -301 131h-21q-194 0 -302 -131t-108 -360t109 -361q108 -132 301 -131zM784 -20q-312 0 -504 198t-192 539t193 539t503 198t504 -199q193 -199 193 -539t-193 -538t-504 -198zM895 1526h-184l-215 297h317
z" />
    <glyph glyph-name="Oacute" unicode="&#xd3;" horiz-adv-x="1568" 
d="M774 225h21q193 0 301 131q108 130 108 360t-108 361q-109 131 -301 131h-21q-194 0 -302 -131t-108 -360t109 -361q108 -132 301 -131zM784 -20q-312 0 -504 198t-192 539t193 539t503 198t504 -199q193 -199 193 -539t-193 -538t-504 -198zM881 1526h-185l82 297h318z
" />
    <glyph glyph-name="Ocircumflex" unicode="&#xd4;" horiz-adv-x="1568" 
d="M774 225h21q193 0 301 131q108 130 108 360t-108 361q-109 131 -301 131h-21q-194 0 -302 -131t-108 -360t109 -361q108 -132 301 -131zM784 -20q-312 0 -504 198t-192 539t193 539t503 198t504 -199q193 -199 193 -539t-193 -538t-504 -198zM621 1526h-226l246 297h287
l246 -297h-226l-164 119z" />
    <glyph glyph-name="Otilde" unicode="&#xd5;" horiz-adv-x="1568" 
d="M774 225h21q193 0 301 131q108 130 108 360t-108 361q-109 131 -301 131h-21q-194 0 -302 -131t-108 -360t109 -361q108 -132 301 -131zM784 -20q-312 0 -504 198t-192 539t193 539t503 198t504 -199q193 -199 193 -539t-193 -538t-504 -198zM918 1741q61 0 61 82h195
v-54q0 -101 -56 -167t-170 -66q-72 0 -164 49l-36 21q-56 34 -90 34q-66 1 -66 -84h-195v54q0 96 67 165t153 69t163 -42l37 -20q83 -41 101 -41z" />
    <glyph glyph-name="Odieresis" unicode="&#xd6;" horiz-adv-x="1568" 
d="M774 225h21q193 0 301 131q108 130 108 360t-108 361q-109 131 -301 131h-21q-194 0 -302 -131t-108 -360t109 -361q108 -132 301 -131zM784 -20q-312 0 -504 198t-192 539t193 539t503 198t504 -199q193 -199 193 -539t-193 -538t-504 -198zM713 1567h-256v245h256v-245
zM1112 1567h-256v245h256v-245z" />
    <glyph glyph-name="multiply" unicode="&#xd7;" horiz-adv-x="1122" 
d="M856 63l-295 297l-297 -297l-166 168l295 295l-297 297l170 170l297 -297l295 295l166 -168l-293 -293l295 -297z" />
    <glyph glyph-name="Oslash" unicode="&#xd8;" horiz-adv-x="1574" 
d="M786 -20q-193 0 -344 77l-125 -157l-215 168l131 168q-143 193 -143 481q0 341 193 539t503 198q193 0 347 -80l127 160l215 -168l-134 -170q141 -190 142 -479q0 -341 -193 -539t-504 -198zM776 225h21q193 0 301 131t108 361q0 143 -45 252l-559 -709q80 -35 174 -35z
M367 717q0 -143 45 -256l563 710q-80 37 -178 37h-21q-193 0 -301 -131t-108 -360z" />
    <glyph glyph-name="Ugrave" unicode="&#xd9;" horiz-adv-x="1437" 
d="M719 -20q-285 0 -424 135t-139 387v932h276v-891q0 -166 68 -242t209 -76h20q141 0 209 76t68 242v891h276v-932q0 -252 -139 -387t-424 -135zM827 1526h-184l-215 297h317z" />
    <glyph glyph-name="Uacute" unicode="&#xda;" horiz-adv-x="1437" 
d="M719 -20q-285 0 -424 135t-139 387v932h276v-891q0 -166 68 -242t209 -76h20q141 0 209 76t68 242v891h276v-932q0 -252 -139 -387t-424 -135zM797 1526h-185l82 297h318z" />
    <glyph glyph-name="Ucircumflex" unicode="&#xdb;" horiz-adv-x="1437" 
d="M719 -20q-285 0 -424 135t-139 387v932h276v-891q0 -166 68 -242t209 -76h20q141 0 209 76t68 242v891h276v-932q0 -252 -139 -387t-424 -135zM555 1526h-225l245 297h287l246 -297h-225l-164 119z" />
    <glyph glyph-name="Udieresis" unicode="&#xdc;" horiz-adv-x="1437" 
d="M719 -20q-285 0 -424 135t-139 387v932h276v-891q0 -166 68 -242t209 -76h20q141 0 209 76t68 242v891h276v-932q0 -252 -139 -387t-424 -135zM647 1567h-256v245h256v-245zM1047 1567h-256v245h256v-245z" />
    <glyph glyph-name="Yacute" unicode="&#xdd;" horiz-adv-x="1357" 
d="M817 0h-276v573l-533 861h314l366 -603l361 603h303l-535 -861v-573zM758 1526h-185l82 297h318z" />
    <glyph glyph-name="Thorn" unicode="&#xde;" horiz-adv-x="1335" 
d="M444 502h338q104 0 160 58q55 58 55 158t-55 156q-55 57 -160 58h-338v-430zM168 0v1434h276v-256h359q211 0 341 -123t130 -338t-130 -338t-341 -123h-359v-256h-276z" />
    <glyph glyph-name="germandbls" unicode="&#xdf;" horiz-adv-x="1134" 
d="M403 1020v-1399h-266v1409q0 196 119 310q120 114 316 114t316 -106t120 -263q0 -236 -238 -331q119 -20 204 -118t85 -230q0 -188 -130 -297t-335 -109h-98v215h36q123 0 192 57q69 58 69 162t-73 154t-188 51h-36v215h36q90 0 155 53t65 145t-47 139q-47 48 -119 48
h-13q-74 0 -122 -55t-48 -164z" />
    <glyph glyph-name="agrave" unicode="&#xe0;" horiz-adv-x="1093" 
d="M410 -20q-141 0 -239 82q-97 83 -97 229q0 145 104 229t271 98l258 23v25q0 72 -45 118t-121 45h-13q-72 -1 -118 -37t-50 -85h-266q16 147 134 242t311 95t309 -96t117 -272v-451q0 -154 10 -225h-250q-8 43 -12 125q-102 -145 -303 -145zM465 195h10q94 0 163 62
t69 161v28l-222 -22q-59 -6 -104 -37t-45 -83t37 -80t92 -29zM580 1434l51 -308h-154l-205 308h308z" />
    <glyph glyph-name="aacute" unicode="&#xe1;" horiz-adv-x="1093" 
d="M410 -20q-141 0 -239 82q-97 83 -97 229q0 145 104 229t271 98l258 23v25q0 72 -45 118t-121 45h-13q-72 -1 -118 -37t-50 -85h-266q16 147 134 242t311 95t309 -96t117 -272v-451q0 -154 10 -225h-250q-8 43 -12 125q-102 -145 -303 -145zM465 195h10q94 0 163 62
t69 161v28l-222 -22q-59 -6 -104 -37t-45 -83t37 -80t92 -29zM446 1126l52 308h307l-205 -308h-154z" />
    <glyph glyph-name="acircumflex" unicode="&#xe2;" horiz-adv-x="1093" 
d="M410 -20q-141 0 -239 82q-97 83 -97 229q0 145 104 229t271 98l258 23v25q0 72 -45 118t-121 45h-13q-72 -1 -118 -37t-50 -85h-266q16 147 134 242t311 95t309 -96t117 -272v-451q0 -154 10 -225h-250q-8 43 -12 125q-102 -145 -303 -145zM465 195h10q94 0 163 62
t69 161v28l-222 -22q-59 -6 -104 -37t-45 -83t37 -80t92 -29zM739 1126l-204 148l-205 -148h-164l205 308h327l205 -308h-164z" />
    <glyph glyph-name="atilde" unicode="&#xe3;" horiz-adv-x="1093" 
d="M410 -20q-141 0 -239 82q-97 83 -97 229q0 145 104 229t271 98l258 23v25q0 72 -45 118t-121 45h-13q-72 -1 -118 -37t-50 -85h-266q16 147 134 242t311 95t309 -96t117 -272v-451q0 -154 10 -225h-250q-8 43 -12 125q-102 -145 -303 -145zM465 195h10q94 0 163 62
t69 161v28l-222 -22q-59 -6 -104 -37t-45 -83t37 -80t92 -29zM686 1341q22 0 40 24q17 24 17 58h195v-53q0 -94 -68 -164q-122 -126 -321 -20l-37 20q-57 33 -85 33q-27 0 -49 -24t-22 -58h-194v53q0 96 66 165q67 69 153 69t164 -41l37 -21q82 -41 104 -41z" />
    <glyph glyph-name="adieresis" unicode="&#xe4;" horiz-adv-x="1093" 
d="M410 -20q-141 0 -239 82q-97 83 -97 229q0 145 104 229t271 98l258 23v25q0 72 -45 118t-121 45h-13q-72 -1 -118 -37t-50 -85h-266q16 147 134 242t311 95t309 -96t117 -272v-451q0 -154 10 -225h-250q-8 43 -12 125q-102 -145 -303 -145zM465 195h10q94 0 163 62
t69 161v28l-222 -22q-59 -6 -104 -37t-45 -83t37 -80t92 -29zM205 1157v266h246v-266h-246zM614 1157v266h246v-266h-246z" />
    <glyph glyph-name="aring" unicode="&#xe5;" horiz-adv-x="1093" 
d="M410 -20q-141 0 -239 82q-97 83 -97 229q0 145 104 229t271 98l258 23v25q0 72 -45 118t-121 45h-13q-72 -1 -118 -37t-50 -85h-266q16 147 134 242t311 95t309 -96t117 -272v-451q0 -154 10 -225h-250q-8 43 -12 125q-102 -145 -303 -145zM465 195h10q94 0 163 62
t69 161v28l-222 -22q-59 -6 -104 -37t-45 -83t37 -80t92 -29zM549 1411q-37 0 -64 -27q-27 -28 -27 -64t28 -63q26 -27 63 -27t63 28q26 26 25 63q1 37 -25 63t-63 27zM552 1106q-89 0 -154 62q-64 62 -64 150t66 152q66 66 152 66q87 0 149 -65q63 -65 63 -153t-62 -150
t-150 -62z" />
    <glyph glyph-name="ae" unicode="&#xe6;" horiz-adv-x="1732" 
d="M465 195h10q94 0 163 62t69 161v28l-222 -22q-59 -6 -104 -37t-45 -83t37 -80t92 -29zM1176 829q-82 0 -140 -47t-71 -129v-20h436q-5 90 -65 143t-148 53h-12zM1192 -20q-246 0 -387 194q-51 -86 -153 -140t-240 -54t-238 82t-100 228t104 230t271 98l258 23v25
q0 72 -45 118t-121 45h-13q-72 -1 -118 -37t-50 -85h-266q16 147 134 242t322 95t318 -114q131 114 339 114t330 -144t122 -376q0 -31 -4 -96h-690v-18q14 -96 82 -156t149 -59h12q74 1 121 37t62 92h264q-39 -156 -158 -250t-305 -94z" />
    <glyph glyph-name="ccedilla" unicode="&#xe7;" horiz-adv-x="1103" 
d="M639 -92q83 0 139 -50t56 -147q0 -96 -69 -154t-177 -59h-164v154h174q82 0 82 61q0 25 -18 43t-54 19h-112v211q-184 25 -300 167q-116 141 -116 371t139 375t348 145t330 -95t135 -283h-266q-27 164 -188 163h-13q-109 0 -164 -89t-55 -228t55 -228t164 -89h13
q162 0 188 163h266q-14 -172 -116 -266t-277 -110v-74z" />
    <glyph glyph-name="egrave" unicode="&#xe8;" horiz-adv-x="1107" 
d="M551 829q-89 0 -149 -53t-64 -143h438q-4 90 -64 143t-149 53h-12zM558 -20q-194 0 -336 144t-142 384t131 388t355 148t346 -144t122 -376q0 -31 -4 -96h-692q8 -102 77 -168t156 -65h13q74 1 121 37t61 92h264q-39 -156 -158 -250q-120 -94 -314 -94zM594 1434l51 -308
h-153l-205 308h307z" />
    <glyph glyph-name="eacute" unicode="&#xe9;" horiz-adv-x="1107" 
d="M551 829q-89 0 -149 -53t-64 -143h438q-4 90 -64 143t-149 53h-12zM558 -20q-194 0 -336 144t-142 384t131 388t355 148t346 -144t122 -376q0 -31 -4 -96h-692q8 -102 77 -168t156 -65h13q74 1 121 37t61 92h264q-39 -156 -158 -250q-120 -94 -314 -94zM465 1126l51 308
h307l-205 -308h-153z" />
    <glyph glyph-name="ecircumflex" unicode="&#xea;" horiz-adv-x="1107" 
d="M551 829q-89 0 -149 -53t-64 -143h438q-4 90 -64 143t-149 53h-12zM558 -20q-194 0 -336 144t-142 384t131 388t355 148t346 -144t122 -376q0 -31 -4 -96h-692q8 -102 77 -168t156 -65h13q74 1 121 37t61 92h264q-39 -156 -158 -250q-120 -94 -314 -94zM764 1126
l-205 148l-205 -148h-164l205 308h328l205 -308h-164z" />
    <glyph glyph-name="edieresis" unicode="&#xeb;" horiz-adv-x="1107" 
d="M551 829q-89 0 -149 -53t-64 -143h438q-4 90 -64 143t-149 53h-12zM558 -20q-194 0 -336 144t-142 384t131 388t355 148t346 -144t122 -376q0 -31 -4 -96h-692q8 -102 77 -168t156 -65h13q74 1 121 37t61 92h264q-39 -156 -158 -250q-120 -94 -314 -94zM221 1157v266h246
v-266h-246zM631 1157v266h246v-266h-246z" />
    <glyph glyph-name="igrave" unicode="&#xec;" horiz-adv-x="540" 
d="M137 0v1024h266v-1024h-266zM301 1434l51 -308h-153l-205 308h307z" />
    <glyph glyph-name="iacute" unicode="&#xed;" horiz-adv-x="540" 
d="M137 0v1024h266v-1024h-266zM188 1126l52 308h307l-205 -308h-154z" />
    <glyph glyph-name="icircumflex" unicode="&#xee;" horiz-adv-x="540" 
d="M137 0v1024h266v-1024h-266zM469 1126l-205 148l-205 -148h-163l204 308h328l205 -308h-164z" />
    <glyph glyph-name="idieresis" unicode="&#xef;" horiz-adv-x="540" 
d="M137 0v1024h266v-1024h-266zM-57 1157v266h245v-266h-245zM352 1157v266h246v-266h-246z" />
    <glyph glyph-name="eth" unicode="&#xf0;" horiz-adv-x="1187" 
d="M575 195h17q116 0 180 85t64 205q0 121 -67 197t-181 76h-17q-107 0 -167 -76t-60 -196t60 -206q60 -85 171 -85zM592 -20q-236 0 -376 145q-138 145 -138 359t129 352q129 137 342 137q133 0 252 -92q-23 127 -92 202l-131 -88l-115 162l51 35q-76 16 -156 16v226
q248 0 392 -82l155 104l115 -162l-115 -77q186 -229 187 -619q0 -264 -132 -441t-368 -177z" />
    <glyph glyph-name="ntilde" unicode="&#xf1;" horiz-adv-x="1196" 
d="M403 569v-569h-266v1024h266v-150q47 78 129 124t181 46q178 0 267 -105t89 -284v-655h-266v625q0 98 -42 151t-120 53h-16q-92 1 -157 -75t-65 -185zM742 1341q22 0 39 24t18 58h194v-53q1 -94 -67 -164q-122 -126 -322 -20l-37 20q-57 33 -85 33t-50 -24t-20 -58h-195
v53q0 96 67 165q66 69 152 69t164 -41l37 -21q83 -41 105 -41z" />
    <glyph glyph-name="ograve" unicode="&#xf2;" horiz-adv-x="1179" 
d="M598 195q109 0 172 84q64 83 64 233t-64 234t-172 83h-16q-109 0 -172 -84q-64 -83 -64 -233t64 -234t172 -83h16zM590 -20q-227 0 -370 149q-142 150 -142 383t142 383q142 149 370 149t369 -150q143 -150 143 -382t-142 -382t-370 -150zM635 1434l51 -308h-154
l-204 308h307z" />
    <glyph glyph-name="oacute" unicode="&#xf3;" horiz-adv-x="1179" 
d="M598 195q109 0 172 84q64 83 64 233t-64 234t-172 83h-16q-109 0 -172 -84q-64 -83 -64 -233t64 -234t172 -83h16zM590 -20q-227 0 -370 149q-142 150 -142 383t142 383q142 149 370 149t369 -150q143 -150 143 -382t-142 -382t-370 -150zM496 1126l51 308h307l-205 -308
h-153z" />
    <glyph glyph-name="ocircumflex" unicode="&#xf4;" horiz-adv-x="1179" 
d="M598 195q109 0 172 84q64 83 64 233t-64 234t-172 83h-16q-109 0 -172 -84q-64 -83 -64 -233t64 -234t172 -83h16zM590 -20q-227 0 -370 149q-142 150 -142 383t142 383q142 149 370 149t369 -150q143 -150 143 -382t-142 -382t-370 -150zM795 1126l-205 148l-205 -148
h-164l205 308h328l204 -308h-163z" />
    <glyph glyph-name="otilde" unicode="&#xf5;" horiz-adv-x="1179" 
d="M598 195q109 0 172 84q64 83 64 233t-64 234t-172 83h-16q-109 0 -172 -84q-64 -83 -64 -233t64 -234t172 -83h16zM590 -20q-227 0 -370 149q-142 150 -142 383t142 383q142 149 370 149t369 -150q143 -150 143 -382t-142 -382t-370 -150zM736 1341q22 0 39 24t18 58h194
v-53q1 -94 -67 -164q-122 -126 -322 -20l-37 20q-57 33 -85 33t-50 -24t-20 -58h-195v53q0 96 67 165q66 69 152 69t164 -41l37 -21q83 -41 105 -41z" />
    <glyph glyph-name="odieresis" unicode="&#xf6;" horiz-adv-x="1179" 
d="M598 195q109 0 172 84q64 83 64 233t-64 234t-172 83h-16q-109 0 -172 -84q-64 -83 -64 -233t64 -234t172 -83h16zM590 -20q-227 0 -370 149q-142 150 -142 383t142 383q142 149 370 149t369 -150q143 -150 143 -382t-142 -382t-370 -150zM262 1157v266h246v-266h-246z
M672 1157v266h246v-266h-246z" />
    <glyph glyph-name="divide" unicode="&#xf7;" horiz-adv-x="1212" 
d="M463 41v276h287v-276h-287zM100 410v235h1012v-235h-1012zM463 737v277h287v-277h-287z" />
    <glyph glyph-name="oslash" unicode="&#xf8;" horiz-adv-x="1183" 
d="M592 -20q-129 0 -230 49l-102 -133l-172 143l100 131q-108 141 -108 358t142 367t370 149q129 0 229 -49l99 129l182 -135l-105 -135q107 -145 107 -360t-142 -365q-143 -149 -370 -149zM584 195h16q109 0 172 84t64 233q0 66 -13 115l-321 -418q35 -14 82 -14zM348 512
q0 -66 12 -117l322 420q-35 14 -82 14h-16q-108 1 -172 -83t-64 -234z" />
    <glyph glyph-name="ugrave" unicode="&#xf9;" horiz-adv-x="1177" 
d="M774 455v569h266v-1024h-266v150q-47 -78 -126 -124t-173 -46q-172 0 -259 105t-87 284v655h266v-625q0 -98 40 -151t112 -53h16q88 0 150 75q61 76 61 185zM616 1434l52 -308h-154l-205 308h307z" />
    <glyph glyph-name="uacute" unicode="&#xfa;" horiz-adv-x="1177" 
d="M774 455v569h266v-1024h-266v150q-47 -78 -126 -124t-173 -46q-172 0 -259 105t-87 284v655h266v-625q0 -98 40 -151t112 -53h16q88 0 150 75q61 76 61 185zM498 1126l51 308h307l-205 -308h-153z" />
    <glyph glyph-name="ucircumflex" unicode="&#xfb;" horiz-adv-x="1177" 
d="M774 455v569h266v-1024h-266v150q-47 -78 -126 -124t-173 -46q-172 0 -259 105t-87 284v655h266v-625q0 -98 40 -151t112 -53h16q88 0 150 75q61 76 61 185zM786 1126l-204 148l-205 -148h-164l205 308h327l205 -308h-164z" />
    <glyph glyph-name="udieresis" unicode="&#xfc;" horiz-adv-x="1177" 
d="M774 455v569h266v-1024h-266v150q-47 -78 -126 -124t-173 -46q-172 0 -259 105t-87 284v655h266v-625q0 -98 40 -151t112 -53h16q88 0 150 75q61 76 61 185zM254 1157v266h246v-266h-246zM664 1157v266h245v-266h-245z" />
    <glyph glyph-name="yacute" unicode="&#xfd;" horiz-adv-x="1171" 
d="M461 -414h-373v230h272q70 0 92 22t21 90v150l-446 946h299l276 -623l266 623h295l-436 -936v-235q0 -267 -266 -267zM496 1126l51 308h307l-205 -308h-153z" />
    <glyph glyph-name="thorn" unicode="&#xfe;" horiz-adv-x="1230" 
d="M403 -410h-266v1844h266v-543q35 59 115 106t180 47q213 0 334 -156t121 -376q0 -221 -121 -377t-334 -155q-100 0 -180 47t-115 106v-543zM653 829h-16q-96 0 -165 -88t-69 -229t69 -229t165 -88h16q102 0 168 86t66 229t-66 231t-168 88z" />
    <glyph glyph-name="ydieresis" unicode="&#xff;" horiz-adv-x="1171" 
d="M461 -414h-373v230h272q70 0 92 22t21 90v150l-446 946h299l276 -623l266 623h295l-436 -936v-235q0 -267 -266 -267zM258 1157v266h246v-266h-246zM668 1157v266h245v-266h-245z" />
    <glyph glyph-name="Amacron" unicode="&#x100;" horiz-adv-x="1460" 
d="M1155 0l-129 338h-602l-129 -338h-291l567 1434h324l553 -1434h-293zM932 584l-207 542l-207 -542h414zM1069 1567h-686v225h686v-225z" />
    <glyph glyph-name="amacron" unicode="&#x101;" horiz-adv-x="1093" 
d="M410 -20q-141 0 -239 82q-97 83 -97 229q0 145 104 229t271 98l258 23v25q0 72 -45 118t-121 45h-13q-72 -1 -118 -37t-50 -85h-266q16 147 134 242t311 95t309 -96t117 -272v-451q0 -154 10 -225h-250q-8 43 -12 125q-102 -145 -303 -145zM465 195h10q94 0 163 62
t69 161v28l-222 -22q-59 -6 -104 -37t-45 -83t37 -80t92 -29zM223 1157v215h625v-215h-625z" />
    <glyph glyph-name="Abreve" unicode="&#x102;" horiz-adv-x="1460" 
d="M1155 0l-129 338h-602l-129 -338h-291l567 1434h324l553 -1434h-293zM932 584l-207 542l-207 -542h414zM725 1710q49 0 83 29t40 84h225q-2 -139 -99 -223t-249 -84t-249 84t-99 223h225q6 -55 40 -84t83 -29z" />
    <glyph glyph-name="abreve" unicode="&#x103;" horiz-adv-x="1093" 
d="M410 -20q-141 0 -239 82q-97 83 -97 229q0 145 104 229t271 98l258 23v25q0 72 -45 118t-121 45h-13q-72 -1 -118 -37t-50 -85h-266q16 147 134 242t311 95t309 -96t117 -272v-451q0 -154 10 -225h-250q-8 43 -12 125q-102 -145 -303 -145zM465 195h10q94 0 163 62
t69 161v28l-222 -22q-59 -6 -104 -37t-45 -83t37 -80t92 -29zM528 1300q55 0 87 36t36 98h226q-1 -148 -99 -238t-250 -90t-248 90t-100 238h226q4 -61 35 -98q32 -36 87 -36z" />
    <glyph glyph-name="Aogonek" unicode="&#x104;" horiz-adv-x="1460" 
d="M1448 -287v-164h-102q-106 -1 -176 57t-70 148q0 152 155 246h-100l-129 338h-602l-129 -338h-291l567 1434h324l553 -1434q-164 -94 -164 -184q0 -51 30 -77t72 -26h62zM932 584l-207 542l-207 -542h414z" />
    <glyph glyph-name="aogonek" unicode="&#x105;" horiz-adv-x="1093" 
d="M975 -287v-164h-103q-106 -1 -176 57t-69 148q0 152 155 246h-57q-8 43 -12 125q-102 -145 -303 -145q-141 0 -239 82q-97 83 -97 229q0 145 104 229t271 98l258 23v25q0 72 -45 118t-121 45h-13q-72 -1 -118 -37t-50 -85h-266q16 147 134 242t311 95t309 -96t117 -272
v-451q0 -154 10 -225q-164 -94 -164 -184q0 -51 30 -77t72 -26h62zM465 195h10q94 0 163 62t69 161v28l-222 -22q-59 -6 -104 -37t-45 -83t37 -80t92 -29z" />
    <glyph glyph-name="Cacute" unicode="&#x106;" horiz-adv-x="1456" 
d="M776 -20q-326 0 -506 200t-180 537t180 537t506 200q272 0 429 -139t173 -352h-276q-25 119 -106 182t-210 63h-20q-180 0 -290 -132t-110 -359t110 -360q110 -132 290 -132h20q265 0 316 246h276q-16 -219 -172 -355t-430 -136zM872 1526h-184l82 297h317z" />
    <glyph glyph-name="cacute" unicode="&#x107;" horiz-adv-x="1103" 
d="M567 -20q-209 0 -348 145t-139 387t139 387t348 145t330 -95t135 -283h-266q-27 164 -188 163h-13q-109 0 -164 -89t-55 -228t55 -228t164 -89h13q161 -1 188 163h266q-14 -188 -135 -283t-330 -95zM492 1126l51 308h307l-205 -308h-153z" />
    <glyph glyph-name="Ccircumflex" unicode="&#x108;" horiz-adv-x="1456" 
d="M776 -20q-326 0 -506 200t-180 537t180 537t506 200q272 0 429 -139t173 -352h-276q-25 119 -106 182t-210 63h-20q-180 0 -290 -132t-110 -359t110 -360q110 -132 290 -132h20q265 0 316 246h276q-16 -219 -172 -355t-430 -136zM621 1526h-226l246 297h287l246 -297
h-226l-164 119z" />
    <glyph glyph-name="ccircumflex" unicode="&#x109;" horiz-adv-x="1103" 
d="M567 -20q-209 0 -348 145t-139 387t139 387t348 145t330 -95t135 -283h-266q-27 164 -188 163h-13q-109 0 -164 -89t-55 -228t55 -228t164 -89h13q161 -1 188 163h266q-14 -188 -135 -283t-330 -95zM782 1126l-204 148l-205 -148h-164l205 308h327l205 -308h-164z" />
    <glyph glyph-name="Cdotaccent" unicode="&#x10a;" horiz-adv-x="1456" 
d="M776 -20q-326 0 -506 200t-180 537t180 537t506 200q272 0 429 -139t173 -352h-276q-25 119 -106 182t-210 63h-20q-180 0 -290 -132t-110 -359t110 -360q110 -132 290 -132h20q265 0 316 246h276q-16 -219 -172 -355t-430 -136zM662 1567v276h286v-276h-286z" />
    <glyph glyph-name="cdotaccent" unicode="&#x10b;" horiz-adv-x="1103" 
d="M567 -20q-209 0 -348 145t-139 387t139 387t348 145t330 -95t135 -283h-266q-27 164 -188 163h-13q-109 0 -164 -89t-55 -228t55 -228t164 -89h13q161 -1 188 163h266q-14 -188 -135 -283t-330 -95zM442 1157v277h287v-277h-287z" />
    <glyph glyph-name="Ccaron" unicode="&#x10c;" horiz-adv-x="1456" 
d="M776 -20q-326 0 -506 200t-180 537t180 537t506 200q272 0 429 -139t173 -352h-276q-25 119 -106 182t-210 63h-20q-180 0 -290 -132t-110 -359t110 -360q110 -132 290 -132h20q265 0 316 246h276q-16 -219 -172 -355t-430 -136zM940 1526h-287l-245 297h225l164 -119
l164 119h225z" />
    <glyph glyph-name="ccaron" unicode="&#x10d;" horiz-adv-x="1103" 
d="M567 -20q-209 0 -348 145t-139 387t139 387t348 145t330 -95t135 -283h-266q-27 164 -188 163h-13q-109 0 -164 -89t-55 -228t55 -228t164 -89h13q161 -1 188 163h266q-14 -188 -135 -283t-330 -95zM414 1126l-205 308h164l205 -148l204 148h164l-205 -308h-327z" />
    <glyph glyph-name="Dcaron" unicode="&#x10e;" horiz-adv-x="1476" 
d="M444 246h195q223 0 347 108t124 363t-124 363t-347 108h-195v-942zM168 0v1434h491q332 0 530 -186q197 -186 197 -532q0 -345 -193 -531q-194 -185 -523 -185h-502zM817 1526h-287l-245 297h225l164 -119l164 119h225z" />
    <glyph glyph-name="dcaron" unicode="&#x10f;" horiz-adv-x="1419" 
d="M532 -20q-214 0 -334 156t-120 376q0 221 121 377t333 155q100 0 180 -47t115 -106v543h267v-1434h-267v133q-35 -59 -115 -106t-180 -47zM578 195h16q96 0 165 88t68 229q0 141 -68 229q-69 88 -165 88h-16q-102 0 -168 -86t-66 -229t66 -231t168 -88zM1233 932h-57v153
h47q111 0 110 82h-106v267h266v-267q-1 -103 -73 -169t-187 -66z" />
    <glyph glyph-name="Dcroat" unicode="&#x110;" horiz-adv-x="1540" 
d="M508 246h194q223 0 348 108q124 109 124 363q0 255 -124 363t-348 108h-194v-348h256v-246h-256v-348zM733 0h-502v594h-204v246h204v594h492q331 0 529 -186t198 -532q0 -344 -194 -530t-523 -186z" />
    <glyph glyph-name="dcroat" unicode="&#x111;" horiz-adv-x="1232" 
d="M535 -20q-213 0 -334 156t-121 376q0 221 121 377t334 155q100 0 180 -47t114 -106v246h-245v184h245v113h267v-113h153v-184h-153v-1137h-267v133q-35 -59 -115 -106t-179 -47zM580 195h16q96 0 165 88t68 229q0 141 -68 229q-69 88 -165 88h-16q-102 0 -168 -86
t-66 -229t66 -231t168 -88z" />
    <glyph glyph-name="Emacron" unicode="&#x112;" horiz-adv-x="1353" 
d="M168 0v1434h1085v-246h-809v-330h686v-246h-686v-366h830v-246h-1106zM1059 1567h-686v225h686v-225z" />
    <glyph glyph-name="emacron" unicode="&#x113;" horiz-adv-x="1107" 
d="M551 829q-89 0 -149 -53t-64 -143h438q-4 90 -64 143t-149 53h-12zM558 -20q-194 0 -336 144t-142 384t131 388t355 148t346 -144t122 -376q0 -31 -4 -96h-692q8 -102 77 -168t156 -65h13q74 1 121 37t61 92h264q-39 -156 -158 -250q-120 -94 -314 -94zM258 1157v215h625
v-215h-625z" />
    <glyph glyph-name="Ebreve" unicode="&#x114;" horiz-adv-x="1353" 
d="M168 0v1434h1085v-246h-809v-330h686v-246h-686v-366h830v-246h-1106zM719 1710q49 0 83 29t40 84h225q-2 -139 -99 -223t-249 -84t-249 84t-99 223h225q6 -55 40 -84t83 -29z" />
    <glyph glyph-name="ebreve" unicode="&#x115;" horiz-adv-x="1107" 
d="M551 829q-89 0 -149 -53t-64 -143h438q-4 90 -64 143t-149 53h-12zM558 -20q-194 0 -336 144t-142 384t131 388t355 148t346 -144t122 -376q0 -31 -4 -96h-692q8 -102 77 -168t156 -65h13q74 1 121 37t61 92h264q-39 -156 -158 -250q-120 -94 -314 -94zM557 1300
q55 0 87 36t36 98h225q-2 -148 -99 -238t-249 -90t-249 90t-99 238h225q4 -62 36 -98t87 -36z" />
    <glyph glyph-name="Edotaccent" unicode="&#x116;" horiz-adv-x="1353" 
d="M168 0v1434h1085v-246h-809v-330h686v-246h-686v-366h830v-246h-1106zM584 1567v276h286v-276h-286z" />
    <glyph glyph-name="edotaccent" unicode="&#x117;" horiz-adv-x="1107" 
d="M551 829q-89 0 -149 -53t-64 -143h438q-4 90 -64 143t-149 53h-12zM558 -20q-194 0 -336 144t-142 384t131 388t355 148t346 -144t122 -376q0 -31 -4 -96h-692q8 -102 77 -168t156 -65h13q74 1 121 37t61 92h264q-39 -156 -158 -250q-120 -94 -314 -94zM420 1157v277h287
v-277h-287z" />
    <glyph glyph-name="Eogonek" unicode="&#x118;" horiz-adv-x="1353" 
d="M1274 -287v-164h-103q-106 -1 -176 57t-69 148q0 152 155 246h-913v1434h1085v-246h-809v-330h686v-246h-686v-366h830v-246q-164 -94 -164 -184q0 -51 30 -77t72 -26h62z" />
    <glyph glyph-name="eogonek" unicode="&#x119;" horiz-adv-x="1107" 
d="M551 829q-89 0 -149 -53t-64 -143h438q-4 90 -64 143t-149 53h-12zM723 -451h-102q-107 -1 -177 57t-69 148q0 137 131 230q-182 22 -304 162t-122 371t131 379t355 148t346 -144t122 -376q0 -31 -4 -96h-692q8 -102 77 -168t156 -65h13q74 1 121 37t61 92h264
q-30 -121 -108 -206t-199 -118q-164 -94 -164 -184q0 -51 30 -77t73 -26h61v-164z" />
    <glyph glyph-name="Ecaron" unicode="&#x11a;" horiz-adv-x="1353" 
d="M168 0v1434h1085v-246h-809v-330h686v-246h-686v-366h830v-246h-1106zM858 1526h-287l-245 297h225l164 -119l164 119h225z" />
    <glyph glyph-name="ecaron" unicode="&#x11b;" horiz-adv-x="1107" 
d="M551 829q-89 0 -149 -53t-64 -143h438q-4 90 -64 143t-149 53h-12zM558 -20q-194 0 -336 144t-142 384t131 388t355 148t346 -144t122 -376q0 -31 -4 -96h-692q8 -102 77 -168t156 -65h13q74 1 121 37t61 92h264q-39 -156 -158 -250q-120 -94 -314 -94zM397 1126
l-204 308h163l205 -148l205 148h164l-205 -308h-328z" />
    <glyph glyph-name="Gcircumflex" unicode="&#x11c;" horiz-adv-x="1525" 
d="M1182 0v139q-150 -160 -389 -159q-317 0 -512 208t-195 528t195 529t512 209q270 0 434 -142t180 -370h-277q-16 121 -98 194t-229 72h-21q-196 0 -308 -133t-112 -358t112 -359t308 -133h21q139 0 245 74q105 74 138 203h-393v246h450q174 0 174 -175v-573h-235z
M614 1526h-225l246 297h287l245 -297h-225l-164 119z" />
    <glyph glyph-name="gcircumflex" unicode="&#x11d;" horiz-adv-x="1214" 
d="M547 -449q-205 -1 -340 93t-144 243h267q10 -55 69 -88t160 -32h12q104 0 172 62t68 181v133q-87 -143 -281 -143t-322 139t-128 383t128 383t322 139t281 -143v123h266v-1047q0 -174 -139 -300t-391 -126zM575 215h17q94 0 157 83q62 83 62 224t-62 224t-157 83h-17
q-101 0 -165 -83t-64 -224t64 -224t165 -83zM803 1126l-205 148l-205 -148h-164l205 308h328l205 -308h-164z" />
    <glyph glyph-name="Gbreve" unicode="&#x11e;" horiz-adv-x="1525" 
d="M1182 0v139q-150 -160 -389 -159q-317 0 -512 208t-195 528t195 529t512 209q270 0 434 -142t180 -370h-277q-16 121 -98 194t-229 72h-21q-196 0 -308 -133t-112 -358t112 -359t308 -133h21q139 0 245 74q105 74 138 203h-393v246h450q174 0 174 -175v-573h-235z
M778 1710q49 0 83 29t40 84h225q-2 -139 -99 -223t-249 -84t-249 84t-99 223h225q6 -55 40 -84t83 -29z" />
    <glyph glyph-name="gbreve" unicode="&#x11f;" horiz-adv-x="1214" 
d="M547 -449q-205 -1 -340 93t-144 243h267q10 -55 69 -88t160 -32h12q104 0 172 62t68 181v133q-87 -143 -281 -143t-322 139t-128 383t128 383t322 139t281 -143v123h266v-1047q0 -174 -139 -300t-391 -126zM575 215h17q94 0 157 83q62 83 62 224t-62 224t-157 83h-17
q-101 0 -165 -83t-64 -224t64 -224t165 -83zM582 1300q55 0 87 36t36 98h225q-2 -148 -100 -238t-248 -90q-152 0 -249 90t-100 238h226q4 -62 36 -98t87 -36z" />
    <glyph glyph-name="Gdotaccent" unicode="&#x120;" horiz-adv-x="1525" 
d="M1182 0v139q-150 -160 -389 -159q-317 0 -512 208t-195 528t195 529t512 209q270 0 434 -142t180 -370h-277q-16 121 -98 194t-229 72h-21q-196 0 -308 -133t-112 -358t112 -359t308 -133h21q139 0 245 74q105 74 138 203h-393v246h450q174 0 174 -175v-573h-235z
M664 1567v276h286v-276h-286z" />
    <glyph glyph-name="gdotaccent" unicode="&#x121;" horiz-adv-x="1214" 
d="M547 -449q-205 -1 -340 93t-144 243h267q10 -55 69 -88t160 -32h12q104 0 172 62t68 181v133q-87 -143 -281 -143t-322 139t-128 383t128 383t322 139t281 -143v123h266v-1047q0 -174 -139 -300t-391 -126zM575 215h17q94 0 157 83q62 83 62 224t-62 224t-157 83h-17
q-101 0 -165 -83t-64 -224t64 -224t165 -83zM457 1157v277h286v-277h-286z" />
    <glyph glyph-name="Gcommaaccent" unicode="&#x122;" horiz-adv-x="1525" 
d="M641 -635h-57v154h47q111 0 110 82h-106v266h266v-266q-1 -102 -73 -169t-187 -67zM1182 0v139q-150 -160 -389 -159q-317 0 -512 208t-195 528t195 529t512 209q270 0 434 -142t180 -370h-277q-16 121 -98 194t-229 72h-21q-196 0 -308 -133t-112 -358t112 -359
t308 -133h21q139 0 245 74q105 74 138 203h-393v246h450q174 0 174 -175v-573h-235z" />
    <glyph glyph-name="gcommaaccent" unicode="&#x123;" horiz-adv-x="1214" 
d="M547 -449q-205 -1 -340 93t-144 243h267q10 -55 69 -88t160 -32h12q104 0 172 62t68 181v133q-87 -143 -281 -143t-322 139t-128 383t128 383t322 139t281 -143v123h266v-1047q0 -174 -139 -300t-391 -126zM575 215h17q94 0 157 83q62 83 62 224t-62 224t-157 83h-17
q-101 0 -165 -83t-64 -224t64 -224t165 -83zM727 1669h57v-153h-47q-111 0 -110 -82h106v-267h-266v267q1 102 73 168t187 67z" />
    <glyph glyph-name="Hcircumflex" unicode="&#x124;" horiz-adv-x="1513" 
d="M168 0v1434h276v-594h625v594h277v-1434h-277v594h-625v-594h-276zM592 1526h-225l245 297h287l246 -297h-225l-164 119z" />
    <glyph glyph-name="hcircumflex" unicode="&#x125;" horiz-adv-x="1196" 
d="M403 569v-569h-266v1434h266v-560q47 78 129 124t181 46q178 0 267 -105t89 -284v-655h-266v625q0 98 -42 151t-120 53h-16q-92 1 -157 -75t-65 -185zM106 1526h-225l246 297h287l245 -297h-225l-164 119z" />
    <glyph glyph-name="Hbar" unicode="&#x126;" horiz-adv-x="1529" 
d="M453 594v-594h-277v1008h-123v235h123v191h277v-191h624v191h277v-191h123v-235h-123v-1008h-277v594h-624zM453 840h624v168h-624v-168z" />
    <glyph glyph-name="hbar" unicode="&#x127;" horiz-adv-x="1196" 
d="M403 569v-569h-266v1137h-143v184h143v113h266v-113h256v-184h-256v-263q47 78 129 124t181 46q178 0 267 -105t89 -284v-655h-266v625q0 98 -42 151t-120 53h-16q-92 1 -157 -75t-65 -185z" />
    <glyph glyph-name="Itilde" unicode="&#x128;" horiz-adv-x="612" 
d="M168 0v1434h276v-1434h-276zM438 1741q61 0 62 82h194v-54q0 -101 -56 -167t-169 -66q-72 0 -164 49l-37 21q-57 34 -90 34q-65 1 -65 -84h-195v54q0 96 67 165t153 69t163 -42l37 -20q82 -41 100 -41z" />
    <glyph glyph-name="itilde" unicode="&#x129;" horiz-adv-x="540" 
d="M137 0v1024h266v-1024h-266zM410 1341q22 0 40 24q17 24 17 58h195v-53q0 -94 -68 -164q-123 -126 -322 -20l-36 20q-57 33 -85 33t-50 -24t-21 -58h-195v53q0 96 67 165t153 69t163 -41l37 -21q83 -41 105 -41z" />
    <glyph glyph-name="Imacron" unicode="&#x12a;" horiz-adv-x="612" 
d="M168 0v1434h276v-1434h-276zM649 1567h-686v225h686v-225z" />
    <glyph glyph-name="imacron" unicode="&#x12b;" horiz-adv-x="540" 
d="M137 0v1024h266v-1024h-266zM-41 1157v215h625v-215h-625z" />
    <glyph glyph-name="Ibreve" unicode="&#x12c;" horiz-adv-x="612" 
d="M168 0v1434h276v-1434h-276zM307 1710q49 0 83 29t40 84h225q-2 -139 -99 -223t-249 -84t-249 84t-99 223h225q6 -55 40 -84t83 -29z" />
    <glyph glyph-name="ibreve" unicode="&#x12d;" horiz-adv-x="540" 
d="M137 0v1024h266v-1024h-266zM272 1300q55 0 87 36t36 98h226q-1 -148 -99 -238t-250 -90t-248 90t-100 238h226q4 -61 35 -98q32 -36 87 -36z" />
    <glyph glyph-name="Iogonek" unicode="&#x12e;" horiz-adv-x="612" 
d="M444 -287v-164h-102q-106 -1 -176 57t-70 148q0 152 156 246h-84v1434h276v-1434q-164 -94 -163 -184q-1 -51 29 -77t73 -26h61z" />
    <glyph glyph-name="iogonek" unicode="&#x12f;" horiz-adv-x="540" 
d="M403 -287v-164h-102q-106 -1 -176 57t-70 148q0 152 156 246h-74v1024h266v-1024q-164 -94 -163 -184q0 -51 30 -77t72 -26h61zM127 1157v277h287v-277h-287z" />
    <glyph glyph-name="Idotaccent" unicode="&#x130;" horiz-adv-x="612" 
d="M168 0v1434h276v-1434h-276zM162 1567v276h287v-276h-287z" />
    <glyph glyph-name="dotlessi" unicode="&#x131;" horiz-adv-x="540" 
d="M137 0v1024h266v-1024h-266z" />
    <glyph glyph-name="IJ" unicode="&#x132;" horiz-adv-x="1118" 
d="M152 422v1012h276v-1012h-276zM541 0h-389v266h358q98 0 136 44t38 151v973h277v-1004q1 -222 -99 -326t-321 -104z" />
    <glyph glyph-name="ij" unicode="&#x133;" horiz-adv-x="1038" 
d="M137 -410v226h385q61 0 87 26t26 86v1096h266v-1178q-1 -124 -67 -190t-189 -66h-508zM137 0v1024h266v-1024h-266zM127 1157v277h287v-277h-287zM623 1157v277h286v-277h-286z" />
    <glyph glyph-name="Jcircumflex" unicode="&#x134;" horiz-adv-x="878" 
d="M432 0h-375v266h262q70 0 97 27t26 96v1045h277v-1147q0 -131 -78 -209t-209 -78zM416 1526h-226l246 297h287l246 -297h-226l-163 119z" />
    <glyph glyph-name="jcircumflex" unicode="&#x135;" horiz-adv-x="557" 
d="M420 1024v-1178q0 -124 -67 -190t-189 -66h-332v226h209q61 0 87 26t26 86v1096h266zM487 1126l-204 148l-205 -148h-164l205 308h327l205 -308h-164z" />
    <glyph glyph-name="Kcommaaccent" unicode="&#x136;" horiz-adv-x="1404" 
d="M592 -635h-57v154h47q111 0 110 82h-106v266h266v-266q0 -102 -72 -169t-188 -67zM444 0h-276v1434h276v-643l609 643h342l-564 -594l576 -840h-342l-432 631l-189 -199v-432z" />
    <glyph glyph-name="kcommaaccent" unicode="&#x137;" horiz-adv-x="1128" 
d="M461 -635h-58v154h48q111 0 110 82h-106v266h266v-266q-1 -102 -73 -169t-187 -67zM403 0h-266v1434h266v-791l371 381h326l-393 -408l413 -616h-313l-285 426l-119 -121v-305z" />
    <glyph glyph-name="Lacute" unicode="&#x139;" horiz-adv-x="1290" 
d="M168 0v1434h276v-1188h809v-246h-1085zM385 1526h-184l82 297h317z" />
    <glyph glyph-name="lacute" unicode="&#x13a;" horiz-adv-x="540" 
d="M137 0v1434h266v-1434h-266zM362 1526h-184l82 297h318z" />
    <glyph glyph-name="Lcommaaccent" unicode="&#x13b;" horiz-adv-x="1290" 
d="M555 -635h-57v154h47q111 0 110 82h-106v266h266v-266q-1 -102 -73 -169t-187 -67zM168 0v1434h276v-1188h809v-246h-1085z" />
    <glyph glyph-name="lcommaaccent" unicode="&#x13c;" horiz-adv-x="540" 
d="M141 -635h-57v154h47q111 0 111 82h-107v266h266v-266q-1 -102 -73 -169t-187 -67zM137 0v1434h266v-1434h-266z" />
    <glyph glyph-name="Lcaron" unicode="&#x13d;" horiz-adv-x="1290" 
d="M168 0v1434h276v-1188h809v-246h-1085zM727 932h-57v153h47q111 0 110 82h-106v267h266v-267q-1 -103 -73 -169t-187 -66z" />
    <glyph glyph-name="lcaron" unicode="&#x13e;" horiz-adv-x="729" 
d="M543 932h-58v153h47q111 0 111 82h-106v267h266v-267q-1 -103 -73 -169t-187 -66zM137 0v1434h266v-1434h-266z" />
    <glyph glyph-name="Ldot" unicode="&#x13f;" horiz-adv-x="1290" 
d="M772 625v276h287v-276h-287zM168 0v1434h276v-1188h809v-246h-1085z" />
    <glyph glyph-name="ldot" unicode="&#x140;" horiz-adv-x="839" 
d="M537 553v276h286v-276h-286zM137 0v1434h266v-1434h-266z" />
    <glyph glyph-name="Lslash" unicode="&#x141;" horiz-adv-x="1392" 
d="M1356 0h-1086v481l-194 -108v276l194 109v676h277v-521l348 195v-274l-348 -197v-391h809v-246z" />
    <glyph glyph-name="lslash" unicode="&#x142;" horiz-adv-x="681" 
d="M479 0h-266v621l-164 -93v246l164 92v568h266v-416l164 92v-246l-164 -92v-772z" />
    <glyph glyph-name="Nacute" unicode="&#x143;" horiz-adv-x="1533" 
d="M444 0h-276v1434h358l564 -1051v1051h276v-1434h-358l-564 1055v-1055zM831 1526h-184l82 297h318z" />
    <glyph glyph-name="nacute" unicode="&#x144;" horiz-adv-x="1196" 
d="M403 569v-569h-266v1024h266v-150q47 78 129 124t181 46q178 0 267 -105t89 -284v-655h-266v625q0 98 -42 151t-120 53h-16q-92 1 -157 -75t-65 -185zM496 1126l51 308h307l-205 -308h-153z" />
    <glyph glyph-name="Ncommaaccent" unicode="&#x145;" horiz-adv-x="1533" 
d="M643 -635h-57v154h47q111 0 110 82h-106v266h266v-266q-1 -102 -73 -169t-187 -67zM444 0h-276v1434h358l564 -1051v1051h276v-1434h-358l-564 1055v-1055z" />
    <glyph glyph-name="ncommaaccent" unicode="&#x146;" horiz-adv-x="1196" 
d="M471 -635h-57v154h47q111 0 110 82h-106v266h266v-266q-1 -102 -73 -169t-187 -67zM403 569v-569h-266v1024h266v-150q47 78 129 124t181 46q178 0 267 -105t89 -284v-655h-266v625q0 98 -42 151t-120 53h-16q-92 1 -157 -75t-65 -185z" />
    <glyph glyph-name="Ncaron" unicode="&#x147;" horiz-adv-x="1533" 
d="M444 0h-276v1434h358l564 -1051v1051h276v-1434h-358l-564 1055v-1055zM899 1526h-287l-245 297h225l164 -119l164 119h225z" />
    <glyph glyph-name="ncaron" unicode="&#x148;" horiz-adv-x="1196" 
d="M403 569v-569h-266v1024h266v-150q47 78 129 124t181 46q178 0 267 -105t89 -284v-655h-266v625q0 98 -42 151t-120 53h-16q-92 1 -157 -75t-65 -185zM436 1126l-205 308h164l205 -148l205 148h164l-205 -308h-328z" />
    <glyph glyph-name="Eng" unicode="&#x14a;" horiz-adv-x="1533" 
d="M1366 -143q0 -123 -72 -195t-194 -72h-246v226h123q61 0 87 26t26 86v72h-82l-564 1055v-1055h-276v1434h358l564 -1051v1051h276v-1577z" />
    <glyph glyph-name="eng" unicode="&#x14b;" horiz-adv-x="1196" 
d="M1069 -158q0 -124 -67 -190t-189 -66h-225v230h102q61 0 87 26t26 86v697q0 98 -42 151t-120 53h-16q-92 1 -157 -75t-65 -185v-569h-266v1024h266v-150q47 78 129 124t181 46q178 0 267 -105t89 -284v-813z" />
    <glyph glyph-name="Omacron" unicode="&#x14c;" horiz-adv-x="1568" 
d="M774 225h21q193 0 301 131q108 130 108 360t-108 361q-109 131 -301 131h-21q-194 0 -302 -131t-108 -360t109 -361q108 -132 301 -131zM784 -20q-312 0 -504 198t-192 539t193 539t503 198t504 -199q193 -199 193 -539t-193 -538t-504 -198zM1128 1567h-686v225h686
v-225z" />
    <glyph glyph-name="omacron" unicode="&#x14d;" horiz-adv-x="1179" 
d="M598 195q109 0 172 84q64 83 64 233t-64 234t-172 83h-16q-109 0 -172 -84q-64 -83 -64 -233t64 -234t172 -83h16zM590 -20q-227 0 -370 149q-142 150 -142 383t142 383q142 149 370 149t369 -150q143 -150 143 -382t-142 -382t-370 -150zM279 1157v215h624v-215h-624z
" />
    <glyph glyph-name="Obreve" unicode="&#x14e;" horiz-adv-x="1568" 
d="M774 225h21q193 0 301 131q108 130 108 360t-108 361q-109 131 -301 131h-21q-194 0 -302 -131t-108 -360t109 -361q108 -132 301 -131zM784 -20q-312 0 -504 198t-192 539t193 539t503 198t504 -199q193 -199 193 -539t-193 -538t-504 -198zM784 1710q49 0 83 29t40 84
h226q-1 -139 -99 -223t-250 -84t-248 84t-100 223h226q6 -55 40 -84t82 -29z" />
    <glyph glyph-name="obreve" unicode="&#x14f;" horiz-adv-x="1179" 
d="M598 195q109 0 172 84q64 83 64 233t-64 234t-172 83h-16q-109 0 -172 -84q-64 -83 -64 -233t64 -234t172 -83h16zM590 -20q-227 0 -370 149q-142 150 -142 383t142 383q142 149 370 149t369 -150q143 -150 143 -382t-142 -382t-370 -150zM592 1300q55 0 87 36t36 98h225
q-2 -148 -99 -238t-249 -90t-249 90t-99 238h225q4 -62 36 -98t87 -36z" />
    <glyph glyph-name="Ohungarumlaut" unicode="&#x150;" horiz-adv-x="1568" 
d="M774 225h21q193 0 301 131q108 130 108 360t-108 361q-109 131 -301 131h-21q-194 0 -302 -131t-108 -360t109 -361q108 -132 301 -131zM784 -20q-312 0 -504 198t-192 539t193 539t503 198t504 -199q193 -199 193 -539t-193 -538t-504 -198zM664 1526h-185l82 297h318z
M1051 1526h-185l82 297h318z" />
    <glyph glyph-name="ohungarumlaut" unicode="&#x151;" horiz-adv-x="1179" 
d="M598 195q109 0 172 84q64 83 64 233t-64 234t-172 83h-16q-109 0 -172 -84q-64 -83 -64 -233t64 -234t172 -83h16zM590 -20q-227 0 -370 149q-142 150 -142 383t142 383q142 149 370 149t369 -150q143 -150 143 -382t-142 -382t-370 -150zM346 1126l51 308h308l-205 -308
h-154zM672 1126l51 308h307l-205 -308h-153z" />
    <glyph glyph-name="OE" unicode="&#x152;" horiz-adv-x="2390" 
d="M1204 0v143q-168 -164 -420 -163q-312 0 -504 198t-192 539t193 539t503 198q252 0 420 -164v144h1086v-246h-809v-330h686v-246h-686v-366h829v-246h-1106zM774 225h21q193 0 301 131q108 130 108 360t-108 361q-109 131 -301 131h-21q-194 0 -302 -131t-108 -360
t109 -361q108 -132 301 -131z" />
    <glyph glyph-name="oe" unicode="&#x153;" horiz-adv-x="1865" 
d="M1309 829q-89 0 -149 -53t-64 -143h438q-4 90 -64 143t-149 53h-12zM598 195q109 0 172 84q64 83 64 233t-64 234t-172 83h-16q-109 0 -172 -84q-64 -83 -64 -233t64 -234t172 -83h16zM1310 -20q-202 0 -341 157q-145 -157 -375 -157t-374 149q-142 150 -142 383t142 383
q142 149 372 149t373 -153q131 153 357 153t348 -144t122 -376q0 -31 -4 -96h-692v-4q8 -100 78 -165t155 -64h12q74 1 121 37t62 92h264q-39 -156 -158 -250q-118 -94 -320 -94z" />
    <glyph glyph-name="Racute" unicode="&#x154;" horiz-adv-x="1396" 
d="M168 0v1434h666q186 0 313 -111t127 -279q0 -270 -244 -362q223 0 223 -203v-479h-276v410q0 78 -28 106t-105 27h-400v-543h-276zM444 784h308q246 0 245 207q0 197 -245 197h-308v-404zM776 1526h-184l82 297h317z" />
    <glyph glyph-name="racute" unicode="&#x155;" horiz-adv-x="792" 
d="M137 0v1024h266v-205q31 103 108 159t189 56h52v-246h-93q-256 0 -256 -256v-532h-266zM301 1126l51 308h307l-204 -308h-154z" />
    <glyph glyph-name="Rcommaaccent" unicode="&#x156;" horiz-adv-x="1396" 
d="M571 -635h-57v154h47q111 0 111 82h-107v266h266v-266q-1 -102 -73 -169t-187 -67zM168 0v1434h666q186 0 313 -111t127 -279q0 -270 -244 -362q223 0 223 -203v-479h-276v410q0 78 -28 106t-105 27h-400v-543h-276zM444 784h308q246 0 245 207q0 197 -245 197h-308v-404
z" />
    <glyph glyph-name="rcommaaccent" unicode="&#x157;" horiz-adv-x="792" 
d="M143 -635h-57v154h47q111 0 111 82h-107v266h266v-266q-1 -102 -73 -169t-187 -67zM137 0v1024h266v-205q31 103 108 159t189 56h52v-246h-93q-256 0 -256 -256v-532h-266z" />
    <glyph glyph-name="Rcaron" unicode="&#x158;" horiz-adv-x="1396" 
d="M168 0v1434h666q186 0 313 -111t127 -279q0 -270 -244 -362q223 0 223 -203v-479h-276v410q0 78 -28 106t-105 27h-400v-543h-276zM444 784h308q246 0 245 207q0 197 -245 197h-308v-404zM844 1526h-287l-246 297h226l163 -119l164 119h226z" />
    <glyph glyph-name="rcaron" unicode="&#x159;" horiz-adv-x="792" 
d="M137 0v1024h266v-205q31 103 108 159t189 56h52v-246h-93q-256 0 -256 -256v-532h-266zM231 1126l-204 308h163l205 -148l205 148h164l-205 -308h-328z" />
    <glyph glyph-name="Sacute" unicode="&#x15a;" horiz-adv-x="1298" 
d="M674 1208h-21q-111 0 -179 -51t-66 -122q0 -71 40 -107t134 -56l215 -43q397 -80 397 -409q0 -190 -146 -316t-418 -124q-272 0 -417 134t-154 367h277q8 -115 91 -185t237 -71h20q111 0 172 50q62 50 62 120t-35 107t-127 55l-256 53q-369 76 -369 414q1 174 147 302
t399 128t396 -131t144 -340h-277q-8 109 -80 167t-186 58zM770 1526h-184l82 297h317z" />
    <glyph glyph-name="sacute" unicode="&#x15b;" horiz-adv-x="1017" 
d="M928 286q0 -128 -110 -217t-314 -89q-203 0 -321 95t-117 263h272q0 -70 47 -112t125 -42h16q61 0 99 28q37 28 37 73q0 76 -105 102l-133 33q-164 41 -241 114q-77 74 -77 204t112 218t306 88t304 -94t110 -264h-266q-16 154 -154 154h-16q-55 0 -92 -28t-37 -73
q0 -72 131 -104l137 -35q147 -37 217 -111q70 -75 70 -203zM424 1126l51 308h307l-204 -308h-154z" />
    <glyph glyph-name="Scircumflex" unicode="&#x15c;" horiz-adv-x="1298" 
d="M674 1208h-21q-111 0 -179 -51t-66 -122q0 -71 40 -107t134 -56l215 -43q397 -80 397 -409q0 -190 -146 -316t-418 -124q-272 0 -417 134t-154 367h277q8 -115 91 -185t237 -71h20q111 0 172 50q62 50 62 120t-35 107t-127 55l-256 53q-369 76 -369 414q1 174 147 302
t399 128t396 -131t144 -340h-277q-8 109 -80 167t-186 58zM520 1536h-225l246 297h286l246 -297h-225l-164 119z" />
    <glyph glyph-name="scircumflex" unicode="&#x15d;" horiz-adv-x="1017" 
d="M928 286q0 -128 -110 -217t-314 -89q-203 0 -321 95t-117 263h272q0 -70 47 -112t125 -42h16q61 0 99 28q37 28 37 73q0 76 -105 102l-133 33q-164 41 -241 114q-77 74 -77 204t112 218t306 88t304 -94t110 -264h-266q-16 154 -154 154h-16q-55 0 -92 -28t-37 -73
q0 -72 131 -104l137 -35q147 -37 217 -111q70 -75 70 -203zM717 1126l-205 148l-205 -148h-164l205 308h328l205 -308h-164z" />
    <glyph glyph-name="Scedilla" unicode="&#x15e;" horiz-adv-x="1298" 
d="M664 -502h-164v154h174q82 0 82 61q0 25 -18 43t-54 19h-113v207q-251 18 -377 150t-135 349h277q8 -115 91 -185t237 -71h20q111 0 172 50q62 50 62 120t-35 107t-127 55l-256 53q-369 76 -369 414q1 174 147 302t399 128t396 -131t144 -340h-277q-8 109 -80 167
t-186 58h-21q-111 0 -179 -51t-66 -122q0 -71 40 -107t134 -56l215 -43q397 -80 397 -409q0 -178 -127 -299t-352 -139v-74q82 0 138 -50t56 -146t-68 -156q-68 -58 -177 -58z" />
    <glyph glyph-name="scedilla" unicode="&#x15f;" horiz-adv-x="1017" 
d="M514 -502h-164v154h174q82 0 82 61q0 25 -18 43t-53 19h-113v209q-170 20 -263 112t-93 242h272q0 -70 47 -112t125 -42h16q61 0 99 28q37 28 37 73q0 76 -105 102l-133 33q-164 41 -241 114q-77 74 -77 204t112 218t306 88t304 -94t110 -264h-266q-16 154 -154 154h-16
q-55 0 -92 -28t-37 -73q0 -72 131 -104l137 -35q147 -37 217 -111q70 -73 70 -197t-94 -210t-269 -100v-74q82 0 138 -50q57 -50 57 -146t-68 -156q-68 -58 -178 -58z" />
    <glyph glyph-name="Scaron" unicode="&#x160;" horiz-adv-x="1298" 
d="M674 1208h-21q-111 0 -179 -51t-66 -122q0 -71 40 -107t134 -56l215 -43q397 -80 397 -409q0 -190 -146 -316t-418 -124q-272 0 -417 134t-154 367h277q8 -115 91 -185t237 -71h20q111 0 172 50q62 50 62 120t-35 107t-127 55l-256 53q-369 76 -369 414q1 174 147 302
t399 128t396 -131t144 -340h-277q-8 109 -80 167t-186 58zM821 1526h-286l-246 297h225l164 -119l164 119h225z" />
    <glyph glyph-name="scaron" unicode="&#x161;" horiz-adv-x="1017" 
d="M928 286q0 -128 -110 -217t-314 -89q-203 0 -321 95t-117 263h272q0 -70 47 -112t125 -42h16q61 0 99 28q37 28 37 73q0 76 -105 102l-133 33q-164 41 -241 114q-77 74 -77 204t112 218t306 88t304 -94t110 -264h-266q-16 154 -154 154h-16q-55 0 -92 -28t-37 -73
q0 -72 131 -104l137 -35q147 -37 217 -111q70 -75 70 -203zM354 1126l-204 308h163l205 -148l205 148h164l-205 -308h-328z" />
    <glyph glyph-name="uni0162" unicode="&#x162;" horiz-adv-x="1343" 
d="M676 -92q82 0 138 -50t56 -147q0 -96 -68 -154t-177 -59h-164v154h174q82 0 82 61q-1 25 -19 43t-53 19h-113v1413h-495v246h1270v-246h-498v-1188h-133v-92z" />
    <glyph glyph-name="uni0163" unicode="&#x163;" horiz-adv-x="833" 
d="M512 -92q82 0 138 -50t57 -147q0 -96 -69 -154t-177 -59h-164v154h174q82 0 82 61q0 25 -18 43t-54 19h-112v254q-123 59 -123 237v543h-211v215h211v332h266v-332h229v-215h-229v-471q0 -70 22 -92t91 -21h147v-225h-260v-92z" />
    <glyph glyph-name="Tcaron" unicode="&#x164;" horiz-adv-x="1343" 
d="M532 0v1188h-495v246h1270v-246h-498v-1188h-277zM813 1526h-287l-245 297h225l164 -119l164 119h225z" />
    <glyph glyph-name="tcaron" unicode="&#x165;" horiz-adv-x="1054" 
d="M772 225v-225h-260q-266 0 -266 266v543h-211v215h211v332h266v-332h229v-215h-229v-471q0 -70 22 -92t91 -21h147zM881 932h-58v153h47q111 0 111 82h-107v267h267v-267q-1 -103 -73 -169t-187 -66z" />
    <glyph glyph-name="Tbar" unicode="&#x166;" horiz-adv-x="1384" 
d="M1178 662h-349v-662h-276v662h-348v235h348v291h-496v246h1270v-246h-498v-291h349v-235z" />
    <glyph glyph-name="tbar" unicode="&#x167;" horiz-adv-x="849" 
d="M786 225v-225h-260q-266 0 -266 266v174h-211v215h211v154h-211v215h211v332h266v-332h230v-215h-230v-154h230v-215h-230v-102q0 -70 22 -92t91 -21h147z" />
    <glyph glyph-name="Utilde" unicode="&#x168;" horiz-adv-x="1437" 
d="M719 -20q-285 0 -424 135t-139 387v932h276v-891q0 -166 68 -242t209 -76h20q141 0 209 76t68 242v891h276v-932q0 -252 -139 -387t-424 -135zM332 1556v54q0 96 66 165q67 69 153 69t164 -42l37 -20q82 -41 100 -41q61 0 61 82h195v-54q0 -101 -56 -167t-169 -66
q-72 0 -164 49l-37 21q-57 33 -92 32q-62 4 -64 -82h-194z" />
    <glyph glyph-name="utilde" unicode="&#x169;" horiz-adv-x="1177" 
d="M774 455v569h266v-1024h-266v150q-47 -78 -126 -124t-173 -46q-172 0 -259 105t-87 284v655h266v-625q0 -98 40 -151t112 -53h16q88 0 150 75q61 76 61 185zM718 1341q22 0 39 24t17 58h195v-53q0 -94 -68 -164q-123 -127 -321 -20l-37 20q-57 33 -85 33t-50 -24t-21 -58
h-194v53q0 96 66 165q67 69 153 69t163 -41l37 -21q84 -41 106 -41z" />
    <glyph glyph-name="Umacron" unicode="&#x16a;" horiz-adv-x="1437" 
d="M719 -20q-285 0 -424 135t-139 387v932h276v-891q0 -166 68 -242t209 -76h20q141 0 209 76t68 242v891h276v-932q0 -252 -139 -387t-424 -135zM1063 1567h-686v225h686v-225z" />
    <glyph glyph-name="umacron" unicode="&#x16b;" horiz-adv-x="1177" 
d="M774 455v569h266v-1024h-266v150q-47 -78 -126 -124t-173 -46q-172 0 -259 105t-87 284v655h266v-625q0 -98 40 -151t112 -53h16q88 0 150 75q61 76 61 185zM264 1157v215h625v-215h-625z" />
    <glyph glyph-name="Ubreve" unicode="&#x16c;" horiz-adv-x="1437" 
d="M719 -20q-285 0 -424 135t-139 387v932h276v-891q0 -166 68 -242t209 -76h20q141 0 209 76t68 242v891h276v-932q0 -252 -139 -387t-424 -135zM719 1710q49 0 83 29t40 84h225q-2 -139 -99 -223t-249 -84t-249 84t-99 223h225q6 -55 40 -84t83 -29z" />
    <glyph glyph-name="ubreve" unicode="&#x16d;" horiz-adv-x="1177" 
d="M774 455v569h266v-1024h-266v150q-47 -78 -126 -124t-173 -46q-172 0 -259 105t-87 284v655h266v-625q0 -98 40 -151t112 -53h16q88 0 150 75q61 76 61 185zM584 1300q55 0 87 36t36 98h225q-2 -148 -99 -238t-249 -90t-249 90t-99 238h225q4 -62 36 -98t87 -36z" />
    <glyph glyph-name="Uring" unicode="&#x16e;" horiz-adv-x="1437" 
d="M719 -20q-285 0 -424 135t-139 387v932h276v-891q0 -166 68 -242t209 -76h20q141 0 209 76t68 242v891h276v-932q0 -252 -139 -387t-424 -135zM799 1720q0 33 -24 58q-25 24 -57 24t-56 -24t-25 -58q0 -34 25 -58q26 -24 58 -24t56 24t23 58zM722 1946q90 0 156 -68
t66 -161t-64 -157t-158 -65q-93 0 -161 66q-67 67 -67 157t68 159q69 69 160 69z" />
    <glyph glyph-name="uring" unicode="&#x16f;" horiz-adv-x="1177" 
d="M774 455v569h266v-1024h-266v150q-47 -78 -126 -124t-173 -46q-172 0 -259 105t-87 284v655h266v-625q0 -98 40 -151t112 -53h16q88 0 150 75q61 76 61 185zM584 1411q-37 0 -64 -27q-26 -28 -26 -64t26 -63t64 -27q36 0 62 28q26 26 26 63t-26 63t-62 27zM587 1106
q-89 0 -154 62t-65 150t66 152q66 66 153 66t149 -65t62 -153t-60 -150q-62 -62 -151 -62z" />
    <glyph glyph-name="Uhungarumlaut" unicode="&#x170;" horiz-adv-x="1437" 
d="M719 -20q-285 0 -424 135t-139 387v932h276v-891q0 -166 68 -242t209 -76h20q141 0 209 76t68 242v891h276v-932q0 -252 -139 -387t-424 -135zM582 1526h-185l82 297h318zM969 1526h-185l82 297h318z" />
    <glyph glyph-name="uhungarumlaut" unicode="&#x171;" horiz-adv-x="1177" 
d="M774 455v569h266v-1024h-266v150q-47 -78 -126 -124t-173 -46q-172 0 -259 105t-87 284v655h266v-625q0 -98 40 -151t112 -53h16q88 0 150 75q61 76 61 185zM328 1126l51 308h307l-205 -308h-153zM653 1126l52 308h307l-205 -308h-154z" />
    <glyph glyph-name="Uogonek" unicode="&#x172;" horiz-adv-x="1437" 
d="M915 -451h-102q-106 -1 -176 57t-70 148q0 133 127 226q-272 6 -405 141t-133 381v932h276v-891q0 -166 68 -242t209 -76h20q141 0 209 76t68 242v891h276v-932q0 -418 -367 -502q-164 -94 -163 -184q0 -51 30 -77t72 -26h61v-164z" />
    <glyph glyph-name="uogonek" unicode="&#x173;" horiz-adv-x="1177" 
d="M1040 -287v-164h-102q-106 -1 -176 57t-70 148q0 152 156 246h-74v150q-47 -78 -126 -124t-173 -46q-172 0 -259 105t-87 284v655h266v-625q0 -98 40 -151t112 -53h16q88 0 150 75q61 76 61 185v569h266v-1024q-164 -94 -163 -184q-1 -51 29 -77t73 -26h61z" />
    <glyph glyph-name="Wcircumflex" unicode="&#x174;" horiz-adv-x="1945" 
d="M1192 0l-219 1044l-221 -1044h-359l-352 1434h285l256 -1137l225 1137h338l225 -1137l248 1137h287l-355 -1434h-358zM809 1526h-225l245 297h287l246 -297h-225l-164 119z" />
    <glyph glyph-name="wcircumflex" unicode="&#x175;" horiz-adv-x="1619" 
d="M991 0l-180 717l-170 -717h-299l-313 1024h268l205 -760l166 760h284l178 -754l195 754h258l-293 -1024h-299zM1016 1126l-205 148l-205 -148h-164l205 308h328l205 -308h-164z" />
    <glyph glyph-name="Ycircumflex" unicode="&#x176;" horiz-adv-x="1357" 
d="M817 0h-276v573l-533 861h314l366 -603l361 603h303l-535 -861v-573zM520 1526h-225l246 297h286l246 -297h-225l-164 119z" />
    <glyph glyph-name="ycircumflex" unicode="&#x177;" horiz-adv-x="1171" 
d="M461 -414h-373v230h272q70 0 92 22t21 90v150l-446 946h299l276 -623l266 623h295l-436 -936v-235q0 -267 -266 -267zM795 1126l-205 148l-205 -148h-164l205 308h328l204 -308h-163z" />
    <glyph glyph-name="Ydieresis" unicode="&#x178;" horiz-adv-x="1357" 
d="M817 0h-276v573l-533 861h314l366 -603l361 603h303l-535 -861v-573zM614 1567h-256v245h256v-245zM1014 1567h-256v245h256v-245z" />
    <glyph glyph-name="Zacute" unicode="&#x179;" horiz-adv-x="1300" 
d="M1219 0h-1137v236l795 952h-775v246h1096v-236l-795 -952h816v-246zM707 1536h-185l82 297h318z" />
    <glyph glyph-name="zacute" unicode="&#x17a;" horiz-adv-x="1042" 
d="M971 0h-891v205l528 583h-518v236h850v-205l-528 -583h559v-236zM432 1126l51 308h308l-205 -308h-154z" />
    <glyph glyph-name="Zdotaccent" unicode="&#x17b;" horiz-adv-x="1300" 
d="M1219 0h-1137v236l795 952h-775v246h1096v-236l-795 -952h816v-246zM526 1577v276h287v-276h-287z" />
    <glyph glyph-name="zdotaccent" unicode="&#x17c;" horiz-adv-x="1042" 
d="M971 0h-891v205l528 583h-518v236h850v-205l-528 -583h559v-236zM395 1157v277h287v-277h-287z" />
    <glyph glyph-name="Zcaron" unicode="&#x17d;" horiz-adv-x="1300" 
d="M1219 0h-1137v236l795 952h-775v246h1096v-236l-795 -952h816v-246zM819 1526h-287l-245 297h225l164 -119l164 119h225z" />
    <glyph glyph-name="zcaron" unicode="&#x17e;" horiz-adv-x="1042" 
d="M971 0h-891v205l528 583h-518v236h850v-205l-528 -583h559v-236zM367 1126l-205 308h164l204 -148l205 148h164l-205 -308h-327z" />
    <glyph glyph-name="florin" unicode="&#x192;" horiz-adv-x="923" 
d="M-104 -410v236h122q84 0 121 33t47 110l117 760h-201v229h236l12 86q33 210 120 300t267 90h152v-236h-123q-80 0 -113 -32t-45 -111l-14 -97h237v-229h-272l-115 -749q-34 -209 -124 -299t-275 -91h-149z" />
    <glyph glyph-name="AEmacron" unicode="&#x1e2;" horiz-adv-x="2029" 
d="M1860 1434v-246h-703l49 -330h592v-246h-561l53 -366h692v-246h-931l-50 338h-540l-170 -338h-301l747 1434h1123zM967 584l-84 587l-297 -587h381zM1640 1567h-686v225h686v-225z" />
    <glyph glyph-name="aemacron" unicode="&#x1e3;" horiz-adv-x="1732" 
d="M465 195h10q94 0 163 62t69 161v28l-222 -22q-59 -6 -104 -37t-45 -83t37 -80t92 -29zM1176 829q-82 0 -140 -47t-71 -129v-20h436q-5 90 -65 143t-148 53h-12zM1192 -20q-246 0 -387 194q-51 -86 -153 -140t-240 -54t-238 82t-100 228t104 230t271 98l258 23v25
q0 72 -45 118t-121 45h-13q-72 -1 -118 -37t-50 -85h-266q16 147 134 242t322 95t318 -114q131 114 339 114t330 -144t122 -376q0 -31 -4 -96h-690v-18q14 -96 82 -156t149 -59h12q74 1 121 37t62 92h264q-39 -156 -158 -250t-305 -94zM563 1157v215h625v-215h-625z" />
    <glyph glyph-name="Aringacute" unicode="&#x1fa;" horiz-adv-x="1460" 
d="M1155 0l-129 338h-602l-129 -338h-291l567 1434h324l553 -1434h-293zM932 584l-207 542l-207 -542h414zM805 1675q-1 29 -21 49t-48 20t-48 -20t-20 -49t20 -49t48 -20t48 20t21 49zM920 1675q0 -78 -52 -130t-131 -52q-78 0 -130 52t-52 130t52 130q52 53 130 53
q79 0 131 -52t52 -131zM952 2081l-127 -180h-161l32 180h256z" />
    <glyph glyph-name="aringacute" unicode="&#x1fb;" horiz-adv-x="1093" 
d="M410 -20q-141 0 -239 82q-97 83 -97 229q0 145 104 229t271 98l258 23v25q0 72 -45 118t-121 45h-13q-72 -1 -118 -37t-50 -85h-266q16 147 134 242t311 95t309 -96t117 -272v-451q0 -154 10 -225h-250q-8 43 -12 125q-102 -145 -303 -145zM465 195h10q94 0 163 62
t69 161v28l-222 -22q-59 -6 -104 -37t-45 -83t37 -80t92 -29zM528 1391q-38 0 -64 -27t-26 -64q0 -38 27 -64t63 -26t63 27q25 27 25 63t-25 64q-26 27 -63 27zM528 1516q86 0 148 -65t63 -154t-61 -151t-151 -61t-153 63t-65 149q0 87 66 153q67 66 153 66zM612 1569h-161
l51 276h307z" />
    <glyph glyph-name="AEacute" unicode="&#x1fc;" horiz-adv-x="2029" 
d="M1860 1434v-246h-703l49 -330h592v-246h-561l53 -366h692v-246h-931l-50 338h-540l-170 -338h-301l747 1434h1123zM967 584l-84 587l-297 -587h381zM1313 1526h-185l82 297h318z" />
    <glyph glyph-name="aeacute" unicode="&#x1fd;" horiz-adv-x="1732" 
d="M465 195h10q94 0 163 62t69 161v28l-222 -22q-59 -6 -104 -37t-45 -83t37 -80t92 -29zM1176 829q-82 0 -140 -47t-71 -129v-20h436q-5 90 -65 143t-148 53h-12zM1192 -20q-246 0 -387 194q-51 -86 -153 -140t-240 -54t-238 82t-100 228t104 230t271 98l258 23v25
q0 72 -45 118t-121 45h-13q-72 -1 -118 -37t-50 -85h-266q16 147 134 242t322 95t318 -114q131 114 339 114t330 -144t122 -376q0 -31 -4 -96h-690v-18q14 -96 82 -156t149 -59h12q74 1 121 37t62 92h264q-39 -156 -158 -250t-305 -94zM788 1126l52 308h307l-205 -308h-154z
" />
    <glyph glyph-name="Oslashacute" unicode="&#x1fe;" horiz-adv-x="1574" 
d="M788 -18q-193 0 -344 77l-125 -157l-215 168l132 168q-143 193 -144 481q0 341 193 539t503 198q193 0 347 -80l127 160l215 -168l-134 -170q141 -190 142 -479q0 -341 -193 -539t-504 -198zM778 227h21q193 0 301 130t108 362q0 143 -45 252l-559 -709q80 -35 174 -35z
M369 719q0 -143 45 -256l563 711q-80 37 -178 36h-21q-193 0 -301 -130t-108 -361zM895 1526h-184l82 297h317z" />
    <glyph glyph-name="oslashacute" unicode="&#x1ff;" horiz-adv-x="1183" 
d="M592 -20q-129 0 -230 49l-102 -133l-172 143l100 131q-108 141 -108 358t142 367t370 149q129 0 229 -49l99 129l182 -135l-105 -135q107 -145 107 -360t-142 -365q-143 -149 -370 -149zM584 195h16q109 0 172 84t64 233q0 66 -13 115l-321 -418q35 -14 82 -14zM348 512
q0 -66 12 -117l322 420q-35 14 -82 14h-16q-108 1 -172 -83t-64 -234zM549 1126l51 308h307l-205 -308h-153z" />
    <glyph glyph-name="Scommaaccent" unicode="&#x218;" horiz-adv-x="1298" 
d="M508 -635h-57v154h47q111 0 110 82h-106v266h266v-266q0 -102 -72 -169t-188 -67zM674 1208h-21q-111 0 -179 -51t-66 -122q0 -71 40 -107t134 -56l215 -43q397 -80 397 -409q0 -190 -146 -316t-418 -124q-272 0 -417 134t-154 367h277q8 -115 91 -185t237 -71h20
q111 0 172 50q62 50 62 120t-35 107t-127 55l-256 53q-369 76 -369 414q1 174 147 302t399 128t396 -131t144 -340h-277q-8 109 -80 167t-186 58z" />
    <glyph glyph-name="scommaaccent" unicode="&#x219;" horiz-adv-x="1017" 
d="M387 -635h-57v154h47q111 0 110 82h-106v266h266v-266q-1 -102 -73 -169t-187 -67zM928 286q0 -128 -110 -217t-314 -89q-203 0 -321 95t-117 263h272q0 -70 47 -112t125 -42h16q61 0 99 28q37 28 37 73q0 76 -105 102l-133 33q-164 41 -241 114q-77 74 -77 204t112 218
t306 88t304 -94t110 -264h-266q-16 154 -154 154h-16q-55 0 -92 -28t-37 -73q0 -72 131 -104l137 -35q147 -37 217 -111q70 -75 70 -203z" />
    <glyph glyph-name="uni021A" unicode="&#x21a;" horiz-adv-x="1343" 
d="M543 -635h-58v154h47q111 0 111 82h-106v266h266v-266q-1 -102 -73 -169t-187 -67zM532 0v1188h-495v246h1270v-246h-498v-1188h-277z" />
    <glyph glyph-name="uni021B" unicode="&#x21b;" horiz-adv-x="833" 
d="M358 -635h-57v154h47q111 0 111 82h-107v266h266v-266q0 -102 -72 -169t-188 -67zM772 225v-225h-260q-266 0 -266 266v543h-211v215h211v332h266v-332h229v-215h-229v-471q0 -70 22 -92t91 -21h147z" />
    <glyph glyph-name="uni0226" unicode="&#x226;" horiz-adv-x="1460" 
d="M1155 0l-129 338h-602l-129 -338h-291l567 1434h324l553 -1434h-293zM932 584l-207 542l-207 -542h414zM592 1567v276h287v-276h-287z" />
    <glyph glyph-name="uni0227" unicode="&#x227;" horiz-adv-x="1093" 
d="M410 -20q-141 0 -239 82q-97 83 -97 229q0 145 104 229t271 98l258 23v25q0 72 -45 118t-121 45h-13q-72 -1 -118 -37t-50 -85h-266q16 147 134 242t311 95t309 -96t117 -272v-451q0 -154 10 -225h-250q-8 43 -12 125q-102 -145 -303 -145zM465 195h10q94 0 163 62
t69 161v28l-222 -22q-59 -6 -104 -37t-45 -83t37 -80t92 -29zM399 1157v277h287v-277h-287z" />
    <glyph glyph-name="Ymacron" unicode="&#x232;" horiz-adv-x="1357" 
d="M817 0h-276v573l-533 861h314l366 -603l361 603h303l-535 -861v-573zM1028 1567h-686v225h686v-225z" />
    <glyph glyph-name="ymacron" unicode="&#x233;" horiz-adv-x="1171" 
d="M461 -414h-373v230h272q70 0 92 22t21 90v150l-446 946h299l276 -623l266 623h295l-436 -936v-235q0 -267 -266 -267zM283 1157v215h624v-215h-624z" />
    <glyph glyph-name="dotlessj" unicode="&#x237;" horiz-adv-x="557" 
d="M420 1024v-1178q0 -124 -67 -190t-189 -66h-332v226h209q61 0 87 26t26 86v1096h266z" />
    <glyph glyph-name="circumflex" unicode="&#x2c6;" horiz-adv-x="778" 
d="M594 1126l-205 148l-205 -148h-164l205 308h328l205 -308h-164z" />
    <glyph glyph-name="caron" unicode="&#x2c7;" horiz-adv-x="778" 
d="M225 1126l-205 308h164l205 -148l205 148h164l-205 -308h-328z" />
    <glyph glyph-name="breve" unicode="&#x2d8;" horiz-adv-x="737" 
d="M369 1300q55 0 87 36t36 98h225q-1 -148 -99 -238t-250 -90t-248 90q-97 90 -100 238h226q4 -62 36 -98t87 -36z" />
    <glyph glyph-name="dotaccent" unicode="&#x2d9;" horiz-adv-x="327" 
d="M20 1157v277h287v-277h-287z" />
    <glyph glyph-name="ring" unicode="&#x2da;" horiz-adv-x="471" 
d="M236 1411q-37 0 -64 -27q-27 -28 -27 -64t27 -63t64 -27q36 0 62 28q26 26 26 63t-26 63t-62 27zM239 1106q-89 0 -154 62t-65 150t66 152q66 66 153 66t149 -65t62 -153t-60 -150q-62 -62 -151 -62z" />
    <glyph glyph-name="ogonek" unicode="&#x2db;" horiz-adv-x="430" 
d="M287 -451q-106 -1 -176 57t-70 148q0 180 215 277l133 -31q-164 -94 -164 -184q0 -51 30 -77t73 -26h61v-164h-102z" />
    <glyph glyph-name="tilde" unicode="&#x2dc;" horiz-adv-x="817" 
d="M546 1341q22 0 39 24t17 58h195v-53q0 -94 -68 -164q-123 -127 -321 -20l-37 20q-57 33 -85 33t-50 -24t-21 -58h-195v53q0 96 67 165t153 69t163 -41l37 -21q84 -41 106 -41z" />
    <glyph glyph-name="hungarumlaut" unicode="&#x2dd;" horiz-adv-x="724" 
d="M20 1126l52 308h307l-205 -308h-154zM346 1126l51 308h308l-205 -308h-154z" />
    <glyph glyph-name="pi" unicode="&#x3c0;" horiz-adv-x="1437" 
d="M539 0h-267v803h-235v221h1311v-221h-236v-500q0 -45 17 -63t65 -19h154v-221h-287q-215 0 -215 215v588h-307v-803z" />
    <glyph glyph-name="Wgrave" unicode="&#x1e80;" horiz-adv-x="1945" 
d="M1192 0l-219 1044l-221 -1044h-359l-352 1434h285l256 -1137l225 1137h338l225 -1137l248 1137h287l-355 -1434h-358zM1075 1526h-184l-215 297h317z" />
    <glyph glyph-name="wgrave" unicode="&#x1e81;" horiz-adv-x="1619" 
d="M991 0l-180 717l-170 -717h-299l-313 1024h268l205 -760l166 760h284l178 -754l195 754h258l-293 -1024h-299zM834 1434l51 -308h-154l-205 308h308z" />
    <glyph glyph-name="Wacute" unicode="&#x1e82;" horiz-adv-x="1945" 
d="M1192 0l-219 1044l-221 -1044h-359l-352 1434h285l256 -1137l225 1137h338l225 -1137l248 1137h287l-355 -1434h-358zM1065 1526h-184l82 297h317z" />
    <glyph glyph-name="wacute" unicode="&#x1e83;" horiz-adv-x="1619" 
d="M991 0l-180 717l-170 -717h-299l-313 1024h268l205 -760l166 760h284l178 -754l195 754h258l-293 -1024h-299zM739 1126l52 308h307l-205 -308h-154z" />
    <glyph glyph-name="Wdieresis" unicode="&#x1e84;" horiz-adv-x="1945" 
d="M1192 0l-219 1044l-221 -1044h-359l-352 1434h285l256 -1137l225 1137h338l225 -1137l248 1137h287l-355 -1434h-358zM905 1567h-256v245h256v-245zM1305 1567h-256v245h256v-245z" />
    <glyph glyph-name="wdieresis" unicode="&#x1e85;" horiz-adv-x="1619" 
d="M991 0l-180 717l-170 -717h-299l-313 1024h268l205 -760l166 760h284l178 -754l195 754h258l-293 -1024h-299zM496 1157v266h245v-266h-245zM905 1157v266h246v-266h-246z" />
    <glyph glyph-name="uni1EA0" unicode="&#x1ea0;" horiz-adv-x="1460" 
d="M618 -399v266h267v-266h-267zM1155 0l-129 338h-602l-129 -338h-291l567 1434h324l553 -1434h-293zM932 584l-207 542l-207 -542h414z" />
    <glyph glyph-name="uni1EA1" unicode="&#x1ea1;" horiz-adv-x="1093" 
d="M391 -399v266h266v-266h-266zM410 -20q-141 0 -239 82q-97 83 -97 229q0 145 104 229t271 98l258 23v25q0 72 -45 118t-121 45h-13q-72 -1 -118 -37t-50 -85h-266q16 147 134 242t311 95t309 -96t117 -272v-451q0 -154 10 -225h-250q-8 43 -12 125q-102 -145 -303 -145z
M465 195h10q94 0 163 62t69 161v28l-222 -22q-59 -6 -104 -37t-45 -83t37 -80t92 -29z" />
    <glyph glyph-name="uni1EB8" unicode="&#x1eb8;" horiz-adv-x="1353" 
d="M588 -399v266h266v-266h-266zM168 0v1434h1085v-246h-809v-330h686v-246h-686v-366h830v-246h-1106z" />
    <glyph glyph-name="uni1EB9" unicode="&#x1eb9;" horiz-adv-x="1107" 
d="M424 -399v266h266v-266h-266zM551 829q-89 0 -149 -53t-64 -143h438q-4 90 -64 143t-149 53h-12zM558 -20q-194 0 -336 144t-142 384t131 388t355 148t346 -144t122 -376q0 -31 -4 -96h-692q8 -102 77 -168t156 -65h13q74 1 121 37t61 92h264q-39 -156 -158 -250
q-120 -94 -314 -94z" />
    <glyph glyph-name="uni1ECA" unicode="&#x1eca;" horiz-adv-x="612" 
d="M172 -399v266h266v-266h-266zM168 0v1434h276v-1434h-276z" />
    <glyph glyph-name="uni1ECB" unicode="&#x1ecb;" horiz-adv-x="540" 
d="M137 -399v266h266v-266h-266zM137 0v1024h266v-1024h-266zM127 1157v277h287v-277h-287z" />
    <glyph glyph-name="uni1ECC" unicode="&#x1ecc;" horiz-adv-x="1568" 
d="M651 -399v266h267v-266h-267zM774 225h21q193 0 301 131q108 130 108 360t-108 361q-109 131 -301 131h-21q-194 0 -302 -131t-108 -360t109 -361q108 -132 301 -131zM784 -20q-312 0 -504 198t-192 539t193 539t503 198t504 -199q193 -199 193 -539t-193 -538t-504 -198
z" />
    <glyph glyph-name="uni1ECD" unicode="&#x1ecd;" horiz-adv-x="1179" 
d="M463 -399v266h266v-266h-266zM598 195q109 0 172 84q64 83 64 233t-64 234t-172 83h-16q-109 0 -172 -84q-64 -83 -64 -233t64 -234t172 -83h16zM590 -20q-227 0 -370 149q-142 150 -142 383t142 383q142 149 370 149t369 -150q143 -150 143 -382t-142 -382t-370 -150z
" />
    <glyph glyph-name="uni1EE4" unicode="&#x1ee4;" horiz-adv-x="1437" 
d="M584 -399v266h266v-266h-266zM719 -20q-285 0 -424 135t-139 387v932h276v-891q0 -166 68 -242t209 -76h20q141 0 209 76t68 242v891h276v-932q0 -252 -139 -387t-424 -135z" />
    <glyph glyph-name="uni1EE5" unicode="&#x1ee5;" horiz-adv-x="1177" 
d="M457 -399v266h266v-266h-266zM774 455v569h266v-1024h-266v150q-47 -78 -126 -124t-173 -46q-172 0 -259 105t-87 284v655h266v-625q0 -98 40 -151t112 -53h16q88 0 150 75q61 76 61 185z" />
    <glyph glyph-name="Ygrave" unicode="&#x1ef2;" horiz-adv-x="1357" 
d="M817 0h-276v573l-533 861h314l366 -603l361 603h303l-535 -861v-573zM797 1526h-185l-215 297h318z" />
    <glyph glyph-name="ygrave" unicode="&#x1ef3;" horiz-adv-x="1171" 
d="M461 -414h-373v230h272q70 0 92 22t21 90v150l-446 946h299l276 -623l266 623h295l-436 -936v-235q0 -267 -266 -267zM643 1434l51 -308h-153l-205 308h307z" />
    <glyph glyph-name="enspace" unicode="&#x2002;" horiz-adv-x="942" 
 />
    <glyph glyph-name="emspace" unicode="&#x2003;" horiz-adv-x="1966" 
 />
    <glyph glyph-name="thinspace" unicode="&#x2009;" horiz-adv-x="174" 
 />
    <glyph glyph-name="endash" unicode="&#x2013;" horiz-adv-x="1216" 
d="M127 512v215h963v-215h-963z" />
    <glyph glyph-name="emdash" unicode="&#x2014;" horiz-adv-x="1871" 
d="M127 512v215h1618v-215h-1618z" />
    <glyph glyph-name="quoteleft" unicode="&#x2018;" horiz-adv-x="579" 
d="M401 1434h84v-154h-73q-66 0 -97 -37t-30 -96v-21h133v-297h-297v328q1 111 81 194t199 83z" />
    <glyph glyph-name="quoteright" unicode="&#x2019;" horiz-adv-x="573" 
d="M188 829h-84v154h74q66 0 96 37t31 96v21h-133v297h297v-328q0 -111 -81 -194t-200 -83z" />
    <glyph glyph-name="quotesinglbase" unicode="&#x201a;" horiz-adv-x="557" 
d="M147 -307h-84v153h74q127 0 127 134v20h-133v297h297v-328q0 -111 -81 -193t-200 -83z" />
    <glyph glyph-name="quotedblleft" unicode="&#x201c;" horiz-adv-x="999" 
d="M401 1432h84v-154h-73q-66 0 -97 -37t-30 -96v-21h133v-297h-297v328q1 111 81 194t199 83zM821 1432h84v-154h-74q-67 0 -97 -37t-29 -96v-21h133v-297h-297v328q1 111 81 194t199 83z" />
    <glyph glyph-name="quotedblright" unicode="&#x201d;" horiz-adv-x="993" 
d="M608 829h-84v154h74q66 0 96 37t31 96v21h-133v297h297v-328q0 -111 -81 -194t-200 -83zM188 829h-84v154h74q66 0 96 37t31 96v21h-133v297h297v-328q0 -111 -81 -194t-200 -83z" />
    <glyph glyph-name="quotedblbase" unicode="&#x201e;" horiz-adv-x="976" 
d="M567 -307h-84v153h74q127 0 127 134v20h-133v297h297v-328q0 -111 -81 -193t-200 -83zM147 -307h-84v153h74q127 0 127 134v20h-133v297h297v-328q0 -111 -81 -193t-200 -83z" />
    <glyph glyph-name="dagger" unicode="&#x2020;" horiz-adv-x="1085" 
d="M987 932h-311v-1106h-266v1106h-312v225h312v451h266v-451h311v-225z" />
    <glyph glyph-name="daggerdbl" unicode="&#x2021;" horiz-adv-x="1085" 
d="M987 276h-311v-450h-266v450h-312v226h312v430h-312v225h312v451h266v-451h311v-225h-311v-430h311v-226z" />
    <glyph glyph-name="bullet" unicode="&#x2022;" horiz-adv-x="1122" 
d="M561 297q-174 0 -297 123t-123 297t123 297t297 123t297 -123t123 -297t-123 -297t-297 -123z" />
    <glyph glyph-name="ellipsis" unicode="&#x2026;" horiz-adv-x="1595" 
d="M127 0v297h297v-297h-297zM649 0v297h297v-297h-297zM1171 0v297h297v-297h-297z" />
    <glyph glyph-name="perthousand" unicode="&#x2030;" horiz-adv-x="2412" 
d="M1993 178h8q131 0 131 226t-131 227h-8q-131 -1 -131 -227t131 -226zM1501 178h8q131 0 131 226t-131 227h-8q-131 -1 -131 -227t131 -226zM2353 404q0 -174 -90 -294t-255 -120t-257 96q-92 -96 -257 -96t-255 121t-90 293t90 294q90 121 255 121t257 -98q92 98 257 98
t255 -121t90 -294zM418 803h8q131 0 131 226t-131 226h-8q-131 0 -131 -226t131 -226zM649 0h-239l860 1434h239zM422 614q-176 0 -266 121t-90 294t90 294t266 121t266 -121t90 -294t-90 -294t-266 -121z" />
    <glyph glyph-name="guilsinglleft" unicode="&#x2039;" horiz-adv-x="741" 
d="M670 143h-308l-296 441l296 440h308l-297 -440z" />
    <glyph glyph-name="guilsinglright" unicode="&#x203a;" horiz-adv-x="741" 
d="M379 143h-307l297 441l-297 440h307l297 -440z" />
    <glyph glyph-name="fraction" unicode="&#x2044;" horiz-adv-x="409" 
d="M-109 0h-239l860 1434h240z" />
    <glyph glyph-name="Euro" unicode="&#x20ac;" horiz-adv-x="1439" 
d="M842 -20q-193 0 -321 94t-193 264l-236 -53v225l180 41q-8 74 -10 125l-170 -37v225l184 41q44 253 188 401t355 148t353 -129t174 -342h-273q-16 106 -81 171t-158 65h-17q-190 0 -256 -250l352 78v-226l-381 -84v-20q0 -39 5 -109l290 66v-225l-241 -54
q74 -180 231 -180h17q94 0 158 65t81 171h273q-27 -215 -169 -343t-335 -128z" />
    <glyph glyph-name="uni2105" unicode="&#x2105;" horiz-adv-x="1492" 
d="M1126 420h-8q-47 0 -75 -37q-27 -37 -27 -103t28 -101q28 -36 74 -36h8q47 0 75 36t28 102q0 67 -28 103t-75 36zM1122 584q144 0 230 -86t86 -217t-86 -216t-230 -85t-229 85q-86 85 -86 216t86 217t229 86zM373 911q-139 0 -228 77q-88 77 -88 224q0 148 88 226
q87 78 227 78t209 -67t76 -165h-206q-10 68 -82 68h-9q-94 0 -94 -138t94 -139h9q72 0 82 62h206q-9 -96 -77 -161t-207 -65zM432 0h-239l860 1434h239z" />
    <glyph glyph-name="afii61289" unicode="&#x2113;" horiz-adv-x="944" 
d="M506 1137v-349q127 90 127 260t-78 171q-49 0 -49 -82zM772 0h-317q-215 0 -215 215v139l-154 -94v277l154 92v475q0 168 84 259t238 91t246 -116q91 -116 91 -265t-84 -283t-231 -225l-78 -47v-201q0 -47 17 -64t63 -17h186v-236z" />
    <glyph glyph-name="afii61352" unicode="&#x2116;" horiz-adv-x="2248" 
d="M2146 553h-590v164h590v-164zM451 0h-277v1434h358l564 -1051v1051h276v-1434h-358l-563 1055v-1055zM1845 1280h-8q-47 0 -75 -37t-28 -103t28 -101q28 -36 75 -35h8q47 0 75 36t28 101q0 67 -28 103t-75 36zM1841 1444q143 0 229 -86t87 -217q0 -131 -86 -216
q-85 -85 -229 -85t-230 85t-86 216t86 217t229 86z" />
    <glyph glyph-name="uni2117" unicode="&#x2117;" horiz-adv-x="1781" 
d="M981 768q72 0 74 82q0 38 -22 60t-56 22h-133v-164h137zM629 334v780h375q126 0 196 -74t70 -190t-70 -186q-70 -72 -196 -72h-160v-258h-215zM891 98q252 0 431 182t179 439q0 256 -179 438t-431 182t-431 -182t-179 -438q0 -257 179 -439t431 -182zM891 -80
q-330 0 -564 234t-235 565q0 330 234 564q234 235 565 235q330 0 564 -234q235 -234 235 -565t-234 -565t-565 -234z" />
    <glyph glyph-name="trademark" unicode="&#x2122;" horiz-adv-x="1994" 
d="M1163 655h-231v779h311l148 -396l143 396h311v-779h-231v414l-156 -414h-131l-164 428v-428zM330 655v574h-256v205h747v-205h-256v-574h-235z" />
    <glyph glyph-name="Omega" unicode="&#x2126;" horiz-adv-x="1601" 
d="M719 0h-604v231h262q-127 74 -200 209t-73 318q0 304 197 500t500 196t499 -196t197 -500q0 -184 -75 -320t-208 -207h273v-231h-604v225q153 39 245 171t92 342t-109 340q-110 130 -300 130h-20q-191 0 -301 -130t-109 -361q0 -189 93 -321t245 -171v-225z" />
    <glyph glyph-name="onethird" unicode="&#x2153;" horiz-adv-x="1880" 
d="M1485 -10q-131 0 -220 63t-89 176h221q1 -27 27 -44t59 -17h10q39 0 65 22t25 58q0 35 -24 54q-25 19 -64 20h-76v172h76q37 0 59 20t23 52q-1 32 -21 54t-57 21h-10q-31 0 -53 -17t-25 -40h-221q0 111 88 173t215 62t216 -62t89 -180t-112 -167q119 -55 118 -191
q0 -109 -94 -169t-225 -60zM504 625h-215v524l-223 -184v258l256 211h182v-809zM594 0h-240l860 1434h240z" />
    <glyph glyph-name="twothirds" unicode="&#x2154;" horiz-adv-x="1966" 
d="M1573 -10q-131 0 -220 63t-89 176h221q1 -27 27 -44t59 -17h10q39 0 65 22t25 58q0 35 -24 54q-25 19 -64 20h-76v172h76q37 0 59 20t23 52q0 32 -21 54q-22 22 -57 21h-10q-31 0 -53 -17t-25 -40h-221q0 111 88 173t215 62t216 -62t89 -180t-112 -167q119 -55 118 -191
q0 -109 -94 -169t-225 -60zM702 0h-239l860 1434h240zM698 625h-606v172l305 276q78 70 78 109q1 38 -21 60t-55 22h-8q-33 0 -57 -27t-27 -61h-219q8 120 97 194t221 74t210 -74q80 -74 80 -154t-30 -126t-88 -103l-195 -178h315v-184z" />
    <glyph glyph-name="uni2155" unicode="&#x2155;" horiz-adv-x="1894" 
d="M1484 -10q-138 0 -228 70q-89 71 -97 186h230q7 -33 33 -55t61 -21h8q41 0 69 30t28 70t-26 67q-26 26 -67 25h-8q-49 0 -78 -34h-221l90 481h516v-180h-356l-29 -137q53 47 148 47t171 -69q76 -70 76 -196t-91 -205t-229 -79zM504 625h-215v524l-223 -184v258l256 211
h182v-809zM608 0h-239l860 1434h239z" />
    <glyph glyph-name="uni2156" unicode="&#x2156;" horiz-adv-x="1996" 
d="M1909 274q1 -126 -91 -205t-230 -79t-227 70t-97 186h229q8 -33 34 -55t60 -21h8q41 0 69 30t28 70t-26 67q-26 26 -67 25h-8q-49 0 -78 -34h-221l90 481h516v-180h-356l-29 -137q53 47 149 47t171 -69q76 -70 76 -196zM713 0h-240l860 1434h240zM698 627h-606v172
l305 276q78 70 78 109q1 38 -21 60t-55 22h-8q-33 0 -57 -27t-27 -61h-219q8 120 97 194t221 74t210 -74q80 -74 80 -154t-30 -126t-88 -103l-195 -178h315v-184z" />
    <glyph glyph-name="uni2157" unicode="&#x2157;" horiz-adv-x="2000" 
d="M1913 274q1 -126 -91 -205t-230 -79t-227 70t-97 186h229q8 -33 34 -55t60 -21h8q41 0 69 30t28 70t-26 67q-26 26 -66 25h-9q-49 0 -77 -34h-222l90 481h517v-180h-357l-28 -137q53 47 148 47t171 -69q76 -70 76 -196zM377 614q-131 0 -220 64t-89 176h221q1 -27 27 -44
t59 -17h10q39 1 65 23t26 56t-25 55q-25 19 -64 19h-76v172h76q37 0 59 20t23 54q0 33 -22 53t-56 21h-10q-31 0 -53 -18t-25 -40h-221q0 111 88 173q88 63 215 63t216 -62t89 -181q0 -118 -112 -167q119 -55 118 -190q0 -110 -94 -170t-225 -60zM717 0h-240l860 1434h240z
" />
    <glyph glyph-name="uni2158" unicode="&#x2158;" horiz-adv-x="2050" 
d="M1960 274q0 -126 -92 -205t-229 -79q-138 0 -227 70t-97 186h229q8 -33 34 -55t60 -21h9q41 0 69 30t27 70q0 40 -26 67q-26 26 -66 25h-9q-49 0 -77 -34h-222l91 481h516v-180h-357l-28 -137q53 47 148 47t171 -69q76 -70 76 -196zM465 926v280l-215 -280h215zM764 0
h-240l860 1434h240zM664 627h-199v127h-402v223l357 459h244v-510h108v-172h-108v-127z" />
    <glyph glyph-name="uni2159" unicode="&#x2159;" horiz-adv-x="1878" 
d="M1473 352q-39 0 -68 -26t-29 -65t28 -65t69 -26h8q41 0 69 27t27 67q0 40 -27 64q-27 25 -69 24h-8zM1530 526q116 0 190 -72t74 -188t-87 -196t-233 -80t-239 101q-92 101 -92 292t103 313t278 123q126 -1 202 -69t80 -175h-213q-14 63 -80 64h-12q-61 0 -103 -56
t-50 -139q66 82 182 82zM504 625h-215v524l-223 -184v258l256 211h182v-809zM598 0h-240l861 1434h239z" />
    <glyph glyph-name="uni215A" unicode="&#x215a;" horiz-adv-x="1970" 
d="M1563 352q-39 0 -68 -26t-29 -65t28 -65t69 -26h8q41 0 69 27t27 67q0 40 -27 64q-27 25 -69 24h-8zM1620 526q116 0 190 -72t74 -188t-87 -196t-233 -80t-239 101q-92 101 -92 292t103 313t278 123q127 -1 203 -69t79 -175h-213q-14 63 -79 64h-13q-61 0 -103 -56
t-50 -139q66 82 182 82zM460 1161q96 -1 171 -69q76 -68 76 -195q1 -127 -91 -206t-230 -79t-227 71t-98 185h230q8 -32 34 -54t60 -21h8q41 -1 69 29t27 71q1 41 -25 67t-67 25h-8q-49 0 -78 -35h-221l90 482h516v-181h-356l-29 -137q53 47 149 47zM688 0h-239l860 1434
h239z" />
    <glyph glyph-name="oneeighth" unicode="&#x215b;" horiz-adv-x="1898" 
d="M1595 231q0 31 -23 53q-24 22 -56 21h-11q-33 1 -57 -21t-25 -53q0 -31 25 -51t57 -20h11q33 0 56 20t23 51zM1505 629q-39 -1 -67 -21t-27 -55q0 -35 28 -55t66 -21h11q38 1 66 21t28 55t-28 55t-66 21h-11zM1511 -20q-133 0 -219 62t-86 159q0 65 38 115t104 71
q-154 57 -154 201q0 96 92 158t225 62t225 -62t91 -158q0 -143 -156 -201q66 -21 104 -71t37 -115q0 -96 -83 -159q-85 -62 -218 -62zM504 625h-215v524l-223 -184v258l256 211h182v-809zM598 0h-240l861 1434h239z" />
    <glyph glyph-name="threeeighths" unicode="&#x215c;" horiz-adv-x="2002" 
d="M1702 231q0 31 -24 53t-56 21h-10q-33 1 -58 -21q-24 -22 -24 -53t24 -51t58 -20h10q32 0 56 20t24 51zM1612 629q-39 -1 -67 -21q-27 -20 -27 -55t28 -55t66 -21h10q39 1 67 21t27 55q0 35 -27 55q-28 20 -67 21h-10zM1618 -20q-133 0 -219 62t-86 159q0 65 38 115
t103 71q-154 57 -154 201q0 96 92 158t226 62q133 0 224 -62t91 -158q0 -143 -155 -201q66 -21 104 -71t37 -115q0 -97 -84 -159t-217 -62zM377 614q-131 0 -220 64t-89 176h221q1 -27 27 -44t59 -17h10q39 1 65 23t26 56t-25 55q-25 19 -64 19h-76v172h76q37 0 59 20t23 54
q0 33 -22 53t-56 21h-10q-31 0 -53 -18t-25 -40h-221q0 111 88 173q88 63 215 63t216 -62t89 -181q0 -118 -112 -167q119 -55 118 -190q0 -110 -94 -170t-225 -60zM705 0h-240l860 1434h240z" />
    <glyph glyph-name="fiveeighths" unicode="&#x215d;" horiz-adv-x="2007" 
d="M1700 231q0 31 -24 53t-56 21h-10q-33 1 -58 -21q-24 -22 -24 -53t24 -51t58 -20h10q32 0 56 20t24 51zM1610 629q-39 -1 -67 -21q-27 -20 -27 -55t28 -55t66 -21h10q39 1 67 21t27 55q0 35 -27 55q-28 20 -67 21h-10zM1616 -20q-133 0 -219 62t-86 159q0 65 38 115
t103 71q-154 57 -154 201q0 96 92 158t226 62q133 0 224 -62t91 -158q0 -143 -155 -201q66 -21 104 -71t37 -115q0 -97 -84 -159t-217 -62zM462 1161q96 -1 171 -69q76 -68 76 -195q1 -127 -91 -206t-230 -79t-227 71t-98 185h230q8 -32 34 -54t60 -21h8q41 -1 69 29t28 71
t-26 67t-67 25h-8q-49 0 -78 -35h-221l90 482h516v-181h-356l-29 -137q53 47 149 47zM702 0h-239l860 1434h240z" />
    <glyph glyph-name="seveneighths" unicode="&#x215e;" horiz-adv-x="1843" 
d="M1536 231q0 31 -24 53t-56 21h-10q-34 1 -58 -21t-24 -53t25 -51t57 -20h10q32 0 56 20t24 51zM1446 629q-39 -1 -67 -21q-27 -20 -27 -55t28 -55t66 -21h10q39 1 67 21t27 55q0 35 -27 55q-28 20 -67 21h-10zM1452 -20q-133 0 -219 62t-86 159q0 65 38 115t103 71
q-154 57 -153 201q0 96 92 158t225 62t224 -62t91 -158q0 -143 -155 -201q66 -21 104 -71t37 -115q0 -97 -84 -159t-217 -62zM539 0h-240l860 1434h240zM428 627h-231v26q0 346 233 598h-369v185h613v-160q-246 -246 -246 -612v-37z" />
    <glyph glyph-name="uni215F" unicode="&#x215f;" horiz-adv-x="1427" 
d="M487 625h-215v524l-223 -184v258l256 211h182v-809zM580 0h-240l860 1434h240z" />
    <glyph glyph-name="uni2160" unicode="&#x2160;" horiz-adv-x="1024" 
d="M98 0v215h281v1004h-281v215h828v-215h-281v-1004h281v-215h-828z" />
    <glyph glyph-name="uni2161" unicode="&#x2161;" horiz-adv-x="1607" 
d="M98 0v215h281v1004h-281v215h1411v-215h-280v-1004h280v-215h-1411zM645 215h318v1004h-318v-1004z" />
    <glyph glyph-name="uni2162" unicode="&#x2162;" horiz-adv-x="2191" 
d="M98 0v215h281v1004h-281v215h1995v-215h-281v-1004h281v-215h-1995zM645 215h318v1004h-318v-1004zM1229 215h317v1004h-317v-1004z" />
    <glyph glyph-name="uni2163" unicode="&#x2163;" horiz-adv-x="2217" 
d="M106 0v215h281v1004h-281v215h1182v-215h-194l292 -994l316 994h-201v215h656v-215h-195l-326 -1004h254v-215h-1784zM653 215h477l-303 1004h-174v-1004z" />
    <glyph glyph-name="uni2164" unicode="&#x2164;" horiz-adv-x="1648" 
d="M1321 0h-1014v215h254l-303 1004h-197v215h658v-215h-195l293 -994l316 994h-201v215h655v-215h-194l-326 -1004h254v-215z" />
    <glyph glyph-name="uni2165" unicode="&#x2165;" horiz-adv-x="2215" 
d="M307 0v215h254l-303 1004h-197v215h658v-215h-195l293 -994l316 994h-201v215h1177v-215h-280v-1004h280v-215h-1802zM1563 215v1004h-170l-326 -1004h496z" />
    <glyph glyph-name="uni2166" unicode="&#x2166;" horiz-adv-x="2799" 
d="M307 0v215h254l-303 1004h-197v215h658v-215h-195l293 -994l316 994h-201v215h1761v-215h-280v-1004h280v-215h-2386zM1563 215v1004h-170l-326 -1004h496zM1829 215h317v1004h-317v-1004z" />
    <glyph glyph-name="uni2167" unicode="&#x2167;" horiz-adv-x="3383" 
d="M307 0v215h254l-303 1004h-197v215h658v-215h-195l293 -994l316 994h-201v215h2345v-215h-281v-1004h281v-215h-2970zM1563 215v1004h-170l-326 -1004h496zM1829 215h317v1004h-317v-1004zM2413 215h317v1004h-317v-1004z" />
    <glyph glyph-name="uni2168" unicode="&#x2168;" horiz-adv-x="2113" 
d="M98 0v215h281v1004h-281v215h1905v-215h-184l-375 -492l391 -512h188v-215h-1925zM1542 215l-246 322l-245 -322h491zM645 215h123l387 506l-381 498h-129v-1004zM1303 911l233 308h-469z" />
    <glyph glyph-name="uni2169" unicode="&#x2169;" horiz-adv-x="1634" 
d="M1544 0h-1454v215h199l387 506l-381 498h-184v215h1413v-215h-185l-374 -492l391 -512h188v-215zM1063 215l-246 322l-246 -322h492zM823 911l234 308h-469z" />
    <glyph glyph-name="uni216C" unicode="&#x216c;" horiz-adv-x="1429" 
d="M98 0v215h281v1004h-281v215h828v-215h-281v-1004h440v338h267v-553h-1254z" />
    <glyph glyph-name="uni216D" unicode="&#x216d;" horiz-adv-x="1542" 
d="M1145 0v139q-145 -159 -418 -159t-449 198t-178 537q0 339 190 539t478 200q242 0 387 -147v127h256v-471h-244q-35 131 -138 203t-216 73h-20q-197 0 -312 -137t-115 -383t112 -385t310 -139h21q113 -1 207 71t141 205h244v-471h-256z" />
    <glyph glyph-name="uni216E" unicode="&#x216e;" horiz-adv-x="1642" 
d="M645 215h178q223 0 338 123t115 387q0 494 -453 494h-178v-1004zM379 215v1004h-281v215h746q313 0 506 -190q192 -190 192 -525t-192 -527t-506 -192h-746v215h281z" />
    <glyph glyph-name="uni216F" unicode="&#x216f;" horiz-adv-x="2275" 
d="M778 215v-215h-680v215h281v1004h-281v215h711l338 -1084l334 1084h696v-215h-281v-1004h281v-215h-680v215h137v909l-362 -1124h-271l-360 1143v-928h137z" />
    <glyph glyph-name="uni2190" unicode="&#x2190;" horiz-adv-x="1648" 
d="M1571 852v-270h-1026l327 -320l-178 -180l-637 637l637 633l178 -181l-327 -319h1026z" />
    <glyph glyph-name="uni2191" unicode="&#x2191;" horiz-adv-x="1404" 
d="M838 0h-271v1028l-336 -344l-180 178l654 654l649 -654l-180 -178l-336 346v-1030z" />
    <glyph glyph-name="uni2192" unicode="&#x2192;" horiz-adv-x="1648" 
d="M72 582v270h1030l-346 336l178 180l653 -649l-653 -653l-178 180l344 336h-1028z" />
    <glyph glyph-name="uni2193" unicode="&#x2193;" horiz-adv-x="1404" 
d="M567 1434h271v-1028l336 344l180 -179l-654 -653l-649 653l180 179l336 -347v1031z" />
    <glyph glyph-name="uni2196" unicode="&#x2196;" horiz-adv-x="1361" 
d="M1030 1434v-254h-455l723 -719l-192 -193l-719 723v-454h-254v897h897z" />
    <glyph glyph-name="uni2197" unicode="&#x2197;" horiz-adv-x="1361" 
d="M332 1180v254h897v-897h-254v454l-719 -723l-193 193l723 719h-454z" />
    <glyph glyph-name="uni2198" unicode="&#x2198;" horiz-adv-x="1361" 
d="M332 -2v254h454l-723 719l193 192l719 -723v455h254v-897h-897z" />
    <glyph glyph-name="uni2199" unicode="&#x2199;" horiz-adv-x="1361" 
d="M1030 252v-254h-897v897h254v-455l719 723l192 -192l-723 -719h455z" />
    <glyph glyph-name="uni21A4" unicode="&#x21a4;" horiz-adv-x="1751" 
d="M1307 852v379h270v-1028h-270v379h-756l328 -320l-179 -180l-637 637l637 633l179 -181l-328 -319h756z" />
    <glyph glyph-name="uni21A5" unicode="&#x21a5;" horiz-adv-x="1445" 
d="M1247 0h-1048v266h389v762l-336 -344l-180 178l653 654l649 -654l-180 -178l-336 346v-764h389v-266z" />
    <glyph glyph-name="uni21A6" unicode="&#x21a6;" horiz-adv-x="1751" 
d="M444 582v-379h-270v1028h270v-379h756l-328 319l179 181l637 -633l-637 -637l-179 180l328 320h-756z" />
    <glyph glyph-name="uni21A7" unicode="&#x21a7;" horiz-adv-x="1445" 
d="M588 1167h-389v267h1048v-267h-389v-764l336 347l180 -179l-649 -653l-653 653l180 179l336 -344v761z" />
    <glyph glyph-name="uni21B0" unicode="&#x21b0;" horiz-adv-x="1699" 
d="M1538 0h-270v582h-756l328 -320l-178 -180l-637 637l637 633l178 -181l-328 -319h1026v-852z" />
    <glyph glyph-name="uni21B1" unicode="&#x21b1;" horiz-adv-x="1699" 
d="M432 0h-270v852h1026l-328 319l178 181l637 -633l-637 -637l-178 180l328 320h-756v-582z" />
    <glyph glyph-name="uni21B2" unicode="&#x21b2;" horiz-adv-x="1699" 
d="M1268 852v582h270v-852h-1026l328 -320l-178 -180l-637 633l637 637l178 -181l-328 -319h756z" />
    <glyph glyph-name="uni21B3" unicode="&#x21b3;" horiz-adv-x="1699" 
d="M162 582v852h270v-582h756l-328 319l178 181l637 -637l-637 -633l-178 180l328 320h-1026z" />
    <glyph glyph-name="partialdiff" unicode="&#x2202;" horiz-adv-x="1191" 
d="M580 223h10q100 0 167 68t67 196q0 129 -68 201q-66 72 -166 72h-21q-94 0 -156 -71q-63 -71 -63 -197t67 -198q67 -71 163 -71zM584 -20q-229 0 -368 140q-138 140 -138 364t137 367q137 142 317 142t267 -102q-25 168 -126 248t-231 80t-231 -35v235q96 35 248 35
q209 0 354 -113q279 -217 279 -723q0 -302 -140 -470t-368 -168z" />
    <glyph glyph-name="Delta" unicode="&#x2206;" horiz-adv-x="1439" 
d="M1100 246l-379 903l-381 -903h760zM45 0v184l522 1250h305l523 -1250v-184h-1350z" />
    <glyph glyph-name="product" unicode="&#x220f;" horiz-adv-x="1490" 
d="M532 0h-270v1198h-190v236h1343v-236h-186v-1198h-271v1198h-426v-1198z" />
    <glyph glyph-name="summation" unicode="&#x2211;" horiz-adv-x="1155" 
d="M1051 231v-231h-953v205l385 512l-385 522v195h953v-232h-627l369 -485l-377 -486h635z" />
    <glyph glyph-name="minus" unicode="&#x2212;" horiz-adv-x="1286" 
d="M137 410v235h1012v-235h-1012z" />
    <glyph glyph-name="radical" unicode="&#x221a;" horiz-adv-x="1409" 
d="M1376 1434v-236h-413l-242 -1198h-350l-328 1024h270l222 -748l213 1158h628z" />
    <glyph glyph-name="infinity" unicode="&#x221e;" horiz-adv-x="1783" 
d="M1262 563h10q63 0 110 47t48 127q0 80 -48 127t-110 47h-10q-109 0 -218 -170q61 -96 110 -137t108 -41zM502 563h10q117 0 227 172q-115 176 -227 176h-10q-60 0 -104 -46t-44 -128t44 -128t104 -46zM1686 737q0 -169 -113 -279t-267 -110t-242 48q-89 48 -169 153
q-84 -105 -174 -153q-89 -48 -243 -48t-267 111t-113 279t113 278q113 111 283 110q135 0 225 -50t176 -156q80 106 170 156q91 50 243 50t265 -110t113 -279z" />
    <glyph glyph-name="integral" unicode="&#x222b;" horiz-adv-x="892" 
d="M582 164q0 -197 -98 -283t-302 -86h-145v236h108q92 0 128 36t36 128v870q-1 197 97 283t303 86h147v-236h-111q-92 0 -128 -36t-35 -128v-870z" />
    <glyph glyph-name="approxequal" unicode="&#x2248;" horiz-adv-x="1286" 
d="M885 457h266v-82q0 -106 -80 -179q-81 -73 -179 -73t-235 49t-170 49q-82 0 -81 -78h-267v82q0 106 82 179q83 73 187 73t234 -49t161 -49q82 0 82 78zM885 903h266v-82q0 -106 -80 -179q-81 -73 -179 -73t-235 49t-170 50q-82 0 -81 -78h-267v82q0 106 82 179
q83 73 187 73t234 -50t161 -49q82 0 82 78z" />
    <glyph glyph-name="notequal" unicode="&#x2260;" horiz-adv-x="1286" 
d="M1149 205h-490l-53 -174h-252l54 174h-271v235h344l54 174h-398v236h471l54 174h251l-53 -174h289v-236h-363l-53 -174h416v-235z" />
    <glyph glyph-name="lessequal" unicode="&#x2264;" horiz-adv-x="1267" 
d="M123 0v231h1012v-231h-1012zM1135 268l-1012 240v328l1012 239v-256l-670 -145l670 -146v-260z" />
    <glyph glyph-name="greaterequal" unicode="&#x2265;" horiz-adv-x="1267" 
d="M1145 231v-231h-1012v231h1012zM133 268v256l670 146l-670 145v260l1012 -239v-328z" />
    <glyph glyph-name="uni2460" unicode="&#x2460;" horiz-adv-x="1720" 
d="M1022 317h-215v525l-223 -185v258l256 211h182v-809zM860 98q252 0 431 182t179 439q0 256 -179 438t-431 182t-431 -182t-179 -438q0 -257 179 -439t431 -182zM61 719q1 330 235 564q234 235 564 235t564 -234t234 -565t-234 -565t-563 -234t-565 234t-235 565z" />
    <glyph glyph-name="uni2461" unicode="&#x2461;" horiz-adv-x="1720" 
d="M1176 317h-607v172l305 277q78 70 78 109t-22 61t-53 20h-9q-34 0 -58 -26t-26 -62h-219q7 121 97 195t221 74t211 -74t80 -154t-30 -127t-89 -102l-195 -178h316v-185zM860 98q252 0 431 182t179 439q0 256 -179 438t-431 182t-431 -182t-179 -438q0 -257 179 -439
t431 -182zM61 719q1 330 235 564q234 235 564 235t564 -234t234 -565t-234 -565t-563 -234t-565 234t-235 565z" />
    <glyph glyph-name="uni2462" unicode="&#x2462;" horiz-adv-x="1720" 
d="M848 307q-131 -1 -220 63t-89 177h221q2 -27 28 -44t58 -18h10q39 0 65 23q25 24 25 58t-24 54q-25 19 -64 19h-76v172h76q37 0 60 20q22 19 22 53t-21 54q-22 20 -57 20h-10q-30 0 -52 -17t-26 -40h-221q0 111 88 173t215 62t216 -62t89 -180t-112 -167
q119 -55 118 -190q0 -109 -94 -169t-225 -61zM860 98q252 0 431 182t179 439q0 256 -179 438t-431 182t-431 -182t-179 -438q0 -257 179 -439t431 -182zM61 719q1 330 235 564q234 235 564 235t564 -234t234 -565t-234 -565t-563 -234t-565 234t-235 565z" />
    <glyph glyph-name="uni2463" unicode="&#x2463;" horiz-adv-x="1720" 
d="M897 616v281l-215 -281h215zM1096 317h-199v127h-401v224l356 458h244v-510h108v-172h-108v-127zM860 98q252 0 431 182t179 439q0 256 -179 438t-431 182t-431 -182t-179 -438q0 -257 179 -439t431 -182zM61 719q1 330 235 564q234 235 564 235t564 -234t234 -565
t-234 -565t-563 -234t-565 234t-235 565z" />
    <glyph glyph-name="uni2464" unicode="&#x2464;" horiz-adv-x="1720" 
d="M851 307q-138 0 -227 71t-98 185h230q8 -33 34 -55t60 -21h8q41 0 69 30t27 71q0 40 -26 66t-66 26h-8q-49 0 -78 -35h-221l90 481h516v-180h-356l-29 -137q52 47 148 47t172 -69t76 -195t-92 -206q-91 -79 -229 -79zM860 98q252 0 431 182t179 439q0 256 -179 438
t-431 182t-431 -182t-179 -438q0 -257 179 -439t431 -182zM61 719q1 330 235 564q234 235 564 235t564 -234t234 -565t-234 -565t-563 -234t-565 234t-235 565z" />
    <glyph glyph-name="uni2465" unicode="&#x2465;" horiz-adv-x="1720" 
d="M838 670q-39 0 -68 -26t-29 -65q0 -38 28 -65t69 -27h8q40 0 68 27t28 67q0 41 -27 65t-69 24h-8zM896 844q116 0 190 -72t73 -188q0 -117 -87 -197q-88 -80 -234 -80q-146 -1 -238 101t-92 292t103 314q103 123 278 123q127 0 203 -69t79 -175h-213q-14 63 -79 63h-13
q-61 0 -103 -56t-50 -138q67 82 183 82zM860 98q252 0 431 182t179 439q0 256 -179 438t-431 182t-431 -182t-179 -438q0 -257 179 -439t431 -182zM61 719q1 330 235 564q234 235 564 235t564 -234t234 -565t-234 -565t-563 -234t-565 234t-235 565z" />
    <glyph glyph-name="uni2466" unicode="&#x2466;" horiz-adv-x="1720" 
d="M934 317h-232v27q0 346 234 598h-369v184h613v-159q-246 -246 -246 -613v-37zM860 98q252 0 431 182t179 439q0 256 -179 438t-431 182t-431 -182t-179 -438q0 -257 179 -439t431 -182zM61 719q1 330 235 564q234 235 564 235t564 -234t234 -565t-234 -565t-563 -234
t-565 234t-235 565z" />
    <glyph glyph-name="uni2467" unicode="&#x2467;" horiz-adv-x="1720" 
d="M948 559q0 31 -24 53t-56 21h-10q-34 0 -58 -22q-24 -23 -24 -53t25 -50t57 -21h10q32 1 56 21t24 51zM858 956q-38 0 -66 -20t-28 -55t28 -55t66 -21h10q39 0 67 20q28 19 28 55t-28 56t-67 20h-10zM864 307q-133 1 -219 63t-86 158q0 66 38 116t103 71
q-154 57 -153 200q0 97 92 159t225 62q132 0 224 -62t92 -159q0 -143 -156 -200q66 -21 104 -71t37 -116q0 -96 -84 -158t-217 -63zM860 98q252 0 431 182t179 439q0 256 -179 438t-431 182t-431 -182t-179 -438q0 -257 179 -439t431 -182zM61 719q1 330 235 564
q234 235 564 235t564 -234t234 -565t-234 -565t-563 -234t-565 234t-235 565z" />
    <glyph glyph-name="uni2468" unicode="&#x2468;" horiz-adv-x="1720" 
d="M829 600q-117 0 -191 72t-73 188q0 117 87 197t234 80q146 1 238 -101t92 -292t-102 -314q-104 -123 -278 -123q-127 0 -203 69t-80 175h213q14 -63 80 -64h12q62 1 104 57t50 138q-66 -82 -183 -82zM887 774q39 0 67 26t29 65q0 38 -28 65t-68 26h-8q-41 0 -69 -26
t-28 -67t27 -65t70 -24h8zM860 98q252 0 431 182t179 439q0 256 -179 438t-431 182t-431 -182t-179 -438q0 -257 179 -439t431 -182zM61 719q1 330 235 564q234 235 564 235t564 -234t234 -565t-234 -565t-563 -234t-565 234t-235 565z" />
    <glyph glyph-name="uni24EA" unicode="&#x24ea;" horiz-adv-x="1720" 
d="M860 494h8q131 0 131 226t-131 226h-8q-131 0 -131 -226t131 -226zM864 305q-176 0 -266 121t-90 294t90 294t266 121t266 -121t90 -294t-90 -294t-266 -121zM860 98q252 0 431 182t179 439q0 256 -179 438t-431 182t-431 -182t-179 -438q0 -257 179 -439t431 -182z
M61 719q1 330 235 564q234 235 564 235t564 -234t234 -565t-234 -565t-563 -234t-565 234t-235 565z" />
    <glyph glyph-name="uni24FF" unicode="&#x24ff;" horiz-adv-x="1720" 
d="M864 494h-8q-131 0 -131 226t131 226h8q131 0 131 -226t-131 -226zM504 720q0 -173 90 -294t266 -121t266 121t90 294t-90 294t-266 121t-266 -121t-90 -294zM1659 717q-1 -330 -235 -564q-234 -235 -563 -235t-565 236t-235 564t235 563t564 235t564 -234t235 -565z" />
    <glyph glyph-name="lozenge" unicode="&#x25ca;" horiz-adv-x="1267" 
d="M639 248l311 461l-317 479l-311 -469zM512 1434h254l471 -717l-471 -717h-254l-481 717z" />
    <glyph glyph-name="uni278A" unicode="&#x278a;" horiz-adv-x="1720" 
d="M780 317h215v809h-182l-256 -211v-258l223 185v-525zM1659 717q-1 -330 -235 -564q-234 -235 -563 -235t-565 236t-235 564t235 563t564 235t564 -234t235 -565z" />
    <glyph glyph-name="uni278B" unicode="&#x278b;" horiz-adv-x="1720" 
d="M571 317h607v185h-316l195 178q59 55 89 102t30 127t-80 154t-211 74t-220 -74t-98 -195h219q2 35 27 62t57 26h9q33 0 55 -22t20 -51q0 -47 -77 -117l-306 -277v-172zM1659 717q-1 -330 -235 -564q-234 -235 -563 -235t-565 236t-235 564t235 563t564 235t564 -234
t235 -565z" />
    <glyph glyph-name="uni278C" unicode="&#x278c;" horiz-adv-x="1720" 
d="M543 547q0 -113 89 -176t220 -63t225 60t94 169q0 135 -118 190q113 49 112 178q0 107 -89 169t-216 62t-215 -62t-88 -173h221q4 23 26 40t52 17h10q35 0 57 -20q21 -20 21 -53t-22 -54q-23 -20 -60 -20h-76v-172h76q39 0 64 -19q24 -18 24 -54t-26 -58t-64 -23h-10
q-32 -1 -58 17t-28 45h-221zM1659 717q-1 -330 -235 -564q-234 -235 -563 -235t-565 236t-235 564t235 563t564 235t564 -234t235 -565z" />
    <glyph glyph-name="uni278D" unicode="&#x278d;" horiz-adv-x="1720" 
d="M868 616h-215l215 281v-281zM868 317h199v127h109v172h-109v510h-244l-356 -458v-224h401v-127zM1659 717q-1 -330 -235 -564q-234 -235 -563 -235t-565 236t-235 564t235 563t564 235t564 -234t235 -565z" />
    <glyph glyph-name="uni278E" unicode="&#x278e;" horiz-adv-x="1720" 
d="M836 307q138 0 230 79q91 79 91 206q0 128 -76 196t-171 68t-148 -47l29 137h356v180h-516l-90 -481h221q29 35 78 35h8q40 0 66 -26t26 -66t-28 -71q-28 -30 -68 -30h-8q-35 0 -61 22t-34 54h-229q8 -115 97 -185t227 -71zM1659 717q-1 -330 -235 -564
q-234 -235 -563 -235t-565 236t-235 564t235 563t564 235t564 -234t235 -565z" />
    <glyph glyph-name="uni278F" unicode="&#x278f;" horiz-adv-x="1720" 
d="M838 487q-41 0 -69 27t-28 65q0 39 29 65t68 26h8q44 0 70 -25t26 -65t-28 -66q-28 -27 -68 -27h-8zM889 1137q-173 0 -277 -123q-104 -124 -104 -314t92 -292t238 -101q146 0 234 80q87 80 87 197q0 116 -74 188q-75 72 -191 72t-181 -82q8 82 50 138t103 56h13
q66 0 79 -63h213q-4 106 -79 175q-76 69 -203 69zM1659 717q-1 -330 -235 -564q-234 -235 -563 -235t-565 236t-235 564t235 563t564 235t564 -234t235 -565z" />
    <glyph glyph-name="uni2790" unicode="&#x2790;" horiz-adv-x="1720" 
d="M696 317h232v37q0 367 246 613v159h-613v-184h369q-233 -252 -234 -598v-27zM1659 717q-1 -330 -235 -564q-234 -235 -563 -235t-565 236t-235 564t235 563t564 235t564 -234t235 -565z" />
    <glyph glyph-name="uni2791" unicode="&#x2791;" horiz-adv-x="1720" 
d="M866 633q33 0 57 -22q23 -23 23 -53t-24 -50t-56 -21h-10q-34 1 -58 21t-24 51t25 53t57 21h10zM762 881q0 35 28 55t66 20h10q39 0 67 -20t28 -55t-28 -55t-67 -21h-10q-38 1 -66 21t-28 55zM557 528q0 -96 86 -158t219 -62t217 62t84 158q0 66 -38 116t-103 71
q156 57 156 200q0 97 -92 159t-224 62q-133 0 -225 -62t-92 -159q0 -143 153 -200q-66 -21 -104 -71t-37 -116zM1659 717q-1 -330 -235 -564q-234 -235 -563 -235t-565 236t-235 564t235 563t564 235t564 -234t235 -565z" />
    <glyph glyph-name="uni2792" unicode="&#x2792;" horiz-adv-x="1720" 
d="M886 1137q-146 0 -234 -80t-87 -197q0 -116 74 -188q75 -72 191 -72t182 82q-8 -82 -50 -138t-104 -57h-12q-66 0 -80 64h-213q4 -106 80 -175t203 -69q174 0 277 123q103 124 103 314t-91 292q-93 102 -239 101zM887 956q41 0 69 -26t27 -65q0 -39 -29 -65t-67 -26h-8
q-43 0 -70 25t-27 65t28 66q28 27 69 26h8zM1659 717q-1 -330 -235 -564q-234 -235 -563 -235t-565 236t-235 564t235 563t564 235t564 -234t235 -565z" />
    <glyph glyph-name="Checkbox_one" unicode="&#xe000;" horiz-adv-x="1024" 
d="M256 461h512v512h-512v-512zM102 307v819h820v-819h-820z" />
    <glyph glyph-name="Checkbox_two" unicode="&#xe001;" horiz-adv-x="1331" 
d="M256 1126v-819h819v819h-819zM1229 154h-1127v1126h1127v-1126z" />
    <glyph glyph-name="Checkbox_three" unicode="&#xe002;" horiz-adv-x="1720" 
d="M297 154h1126v1126h-1126v-1126zM143 0v1434h1434v-1434h-1434z" />
    <glyph glyph-name="circle_one" unicode="&#xe003;" horiz-adv-x="1105" 
d="M553 379q139 0 239 99q99 98 99 238t-99 239q-98 99 -238 99t-240 -98q-100 -100 -99 -239q0 -139 99 -239q100 -99 239 -99zM553 225q-203 1 -347 145t-145 347q1 203 145 347t347 144t347 -144t144 -347t-144 -347t-347 -145z" />
    <glyph glyph-name="circle_two" unicode="&#xe004;" horiz-adv-x="1413" 
d="M215 717q0 -203 144 -347q143 -144 347 -144t348 144t144 347t-144 347t-347 144t-347 -144t-145 -347zM1352 717q0 -265 -190 -455t-455 -190q-266 0 -456 189q-189 189 -189 455t188 456q190 190 456 190t456 -190t190 -455z" />
    <glyph glyph-name="circle_three" unicode="&#xe005;" horiz-adv-x="1720" 
d="M860 72q266 0 456 189q189 189 189 455t-189 456q-190 190 -456 190t-456 -190t-189 -455q0 -266 189 -456q190 -189 456 -189zM861 -82q-329 0 -565 236t-235 564t235 563t564 235t564 -234t234 -565t-234 -565t-563 -234z" />
    <glyph glyph-name="bullet_one" unicode="&#xe006;" 
d="M614 225q-203 1 -347 145t-144 347t144 347t347 144q204 0 348 -144t144 -347t-144 -347t-348 -145z" />
    <glyph glyph-name="bullet_two" unicode="&#xe007;" horiz-adv-x="1351" 
d="M1290 717q0 -254 -180 -434q-180 -181 -434 -181t-434 180t-181 435q1 254 181 434t434 180t434 -180t180 -434z" />
    <glyph glyph-name="bullet_three" unicode="&#xe008;" horiz-adv-x="1597" 
d="M799 -20q-303 0 -520 217t-218 520t217 520t521 217t520 -217t217 -520t-217 -520t-520 -217z" />
    <glyph glyph-name="Pyramide_one" unicode="&#xe009;" horiz-adv-x="1024" 
d="M410 614v205h204v-205h-204zM256 461h512v512h-512v-512zM102 307v819h820v-819h-820z" />
    <glyph glyph-name="Pyramide_two" unicode="&#xe00a;" horiz-adv-x="1331" 
d="M563 819v-205h205v205h-205zM922 461h-512v512h512v-512zM256 1126v-819h819v819h-819zM1229 154h-1127v1126h1127v-1126z" />
    <glyph glyph-name="Pyramide_three" unicode="&#xe00b;" horiz-adv-x="1720" 
d="M963 614h-205v205h205v-205zM604 461h512v512h-512v-512zM451 307v819h819v-819h-819zM297 154h1126v1126h-1126v-1126zM143 0v1434h1434v-1434h-1434z" />
    <glyph glyph-name="Square_one" unicode="&#xe00c;" horiz-adv-x="1024" 
d="M102 307v819h820v-819h-820z" />
    <glyph glyph-name="Square_two" unicode="&#xe00d;" horiz-adv-x="1331" 
d="M1229 154h-1127v1126h1127v-1126z" />
    <glyph glyph-name="Square_three" unicode="&#xe00e;" horiz-adv-x="1720" 
d="M143 0v1434h1434v-1434h-1434z" />
    <glyph glyph-name="Tower_one" unicode="&#xe010;" horiz-adv-x="1105" 
d="M553 532q-76 0 -130 54t-54 131q0 76 54 130t131 54t130 -53t53 -130q0 -78 -54 -132t-130 -54zM553 379q139 0 239 99q99 98 99 238t-99 239q-98 99 -238 99t-240 -98q-100 -100 -99 -239q0 -139 99 -239q100 -99 239 -99zM553 225q-203 1 -347 145t-145 347
q1 203 145 347t347 144t347 -144t144 -347t-144 -347t-347 -145z" />
    <glyph glyph-name="Tower_two" unicode="&#xe011;" horiz-adv-x="1413" 
d="M522 717q0 -76 54 -130q54 -55 131 -55q76 0 130 54t54 132q0 77 -54 130t-130 53q-77 0 -131 -54t-54 -130zM1044 717q0 -139 -99 -239t-238 -99q-139 0 -239 99q-99 98 -99 238t99 239q98 99 238 99t239 -98q99 -100 99 -239zM215 717q0 -203 144 -347
q143 -144 347 -144t348 144t144 347t-144 347t-347 144t-347 -144t-145 -347zM1352 717q0 -265 -190 -455t-455 -190q-266 0 -456 189q-189 189 -189 455t188 456q190 190 456 190t456 -190t190 -455z" />
    <glyph glyph-name="Tower_three" unicode="&#xe012;" horiz-adv-x="1720" 
d="M860 532q-76 0 -130 54t-54 131q0 76 54 130t131 54t130 -53t53 -130q0 -78 -54 -132t-130 -54zM860 379q139 0 239 99q99 98 99 238t-99 239t-239 99t-238 -98q-100 -100 -100 -239t100 -239t238 -99zM860 225q-203 1 -347 145t-144 347t144 347t347 144t347 -144
q145 -144 145 -347t-144 -347t-348 -145zM860 72q266 0 456 189q189 189 189 455t-189 456q-190 190 -456 190t-456 -190t-189 -455q0 -266 189 -456q190 -189 456 -189zM861 -82q-329 0 -565 236t-235 564t235 563t564 235t564 -234t234 -565t-234 -565t-563 -234z" />
    <glyph glyph-name="commaaccent" unicode="&#xf6c3;" horiz-adv-x="382" 
d="M88 -635h-57v154h47q111 0 110 82h-106v266h266v-266q0 -102 -72 -169t-188 -67z" />
    <glyph glyph-name="i.dot" horiz-adv-x="540" 
d="M137 0v1024h266v-1024h-266zM127 1157v277h287v-277h-287z" />
    <glyph glyph-name="ringacute" horiz-adv-x="579" 
d="M291 1391q-37 0 -64 -27t-27 -64q0 -38 28 -64q26 -26 63 -26t63 27t25 63q1 36 -25 64q-26 27 -63 27zM290 1085q-89 1 -154 63q-64 62 -64 149t65 153q66 66 153 66t149 -65q63 -65 63 -154t-62 -151t-150 -61zM375 1569h-162l51 276h307z" />
    <glyph glyph-name="dotaccent.low" horiz-adv-x="348" 
d="M41 -399v266h266v-266h-266z" />
    <glyph glyph-name="dinamo" horiz-adv-x="1593" 
d="M367 -47q-35 0 -35 41q4 58 40 164t87 196q-13 2 -105 10q-215 18 -293 78q-10 12 -20 29q27 31 58 49q32 18 40 25q29 39 107 97t108 103l-90 50q-90 47 -102 86q4 4 18 39q18 16 187 -70q2 14 5 73t15 72q5 19 76 27q23 -14 23 -30t-12 -85q-13 -68 -9 -102
q81 0 201 82q53 37 69 43q17 6 115 32t149 42q-39 70 -41 148t35 124q162 2 229 -70t31 -174q39 4 83 29t50 49q-20 18 -48 34t-44 30t-26 43q-47 53 -30 110t97 86q81 29 139 -33t44 -170q55 27 47 234q67 8 137 -5t96 -36q-6 -55 -8 -57q-52 -27 -131 -7q4 -87 -37 -153
t-121 -60q-20 -68 -71 -112q-52 -44 -110 -60q-146 -39 -226 -24l8 -25q6 -23 16 -61t31 -120q21 -81 35 -192q119 -133 166 -176q94 -84 123 -159q18 -49 -35 -60q-69 42 -147 130q-78 89 -113 124q-6 -80 22 -212t29 -144q-29 -23 -55 -25t-31 19q-45 76 -70 321
q-8 90 -10 99q-68 4 -457 -91q-3 -100 88 -210q100 -114 129 -214q-31 -41 -75 -10q-40 20 -140 170q-23 31 -48 86q-26 55 -38 64q-98 -295 -129 -291h-26zM985 891q-97 -23 -239 -97t-224 -94q32 -120 42 -178t14 -63q68 4 226 52t267 40q-6 37 -25 106t-25 135
q-6 65 -36 99zM242 483q170 -27 227 -20q-10 27 -27 90q-16 63 -32 96q-20 -18 -79 -66t-89 -100zM1069 1169q-10 -31 -6 -72t19 -55t75 0q29 10 29 70q-57 57 -117 57zM1423 1204q14 39 -4 80t-65 53q-24 -45 2 -86t67 -47z" />
    <glyph glyph-name="edgeleft" horiz-adv-x="790" 
d="M467 -8q0 -72 86 -74h170v-215h-236q-121 0 -203 69t-83 181q0 112 73 190q-166 35 -165 224v700q0 199 165 233q-74 80 -74 187t84 175q83 68 203 69h236v-215h-168q-41 0 -65 -20t-23 -54v-17q-1 -33 23 -53t65 -20h35v-215h-88q-127 0 -127 -119v-602q0 -119 127 -119
h88v-215h-37q-39 0 -63 -20t-23 -54v-16z" />
    <glyph glyph-name="edgeright" horiz-adv-x="811" 
d="M602 -48q0 -112 -83 -180t-204 -69h-235v215h170q38 0 62 20t24 54v16q0 35 -24 54t-62 20h-37v215h88q127 0 127 119v602q0 119 -127 119h-88v215h35q40 0 64 20t24 53v17q0 33 -24 53t-64 21h-168v215h235q121 0 204 -69t83 -175t-74 -187q166 -35 166 -233v-700
q0 -188 -166 -224q74 -79 74 -191z" />
    <glyph glyph-name="isbn" horiz-adv-x="4485" 
d="M102 0v1434h277v-1188h819q113 0 173 44q61 44 61 113t-35 105t-127 53l-256 53q-369 76 -369 410q0 168 132 289t380 121h1393q200 0 320 -106t120 -250q0 -142 -66 -230t-176 -121q119 -25 196 -116t77 -243t-127 -260t-324 -108h-655v846h594q205 0 205 171t-205 171
h-1342q-115 0 -181 -41t-64 -113q0 -72 40 -106t134 -51l215 -43q397 -80 397 -414q0 -184 -133 -302t-387 -118h-1086zM2191 246h338q102 0 159 46q56 46 56 136q0 180 -215 180h-338v-362zM3840 1454q285 0 424 -135t139 -387v-932h-276v891q0 166 -68 242t-209 75h-20
q-141 0 -209 -76t-68 -241v-891h-276v932q0 252 139 387t424 135z" />
    <glyph glyph-name="zero.posf" horiz-adv-x="1236" 
d="M627 195q121 0 184 91t63 226t-63 226t-184 91h-17q-121 0 -184 -91q-64 -91 -64 -226t64 -226t184 -91h17zM618 -20q-233 0 -377 150t-145 382q0 233 144 383q144 149 378 149q233 0 378 -149q144 -150 144 -383q0 -232 -144 -382q-145 -150 -378 -150z" />
    <glyph glyph-name="one.posf" horiz-adv-x="833" 
d="M672 0h-252v668l-336 -314v293l389 377h199v-1024z" />
    <glyph glyph-name="two.posf" horiz-adv-x="1015" 
d="M889 0h-778v252l469 371q63 51 63 100t-35 78t-90 28q-141 0 -141 -151h-266q0 166 115 266q116 100 295 100t284 -82q104 -83 104 -217q0 -95 -49 -169t-172 -164l-264 -197h465v-215z" />
    <glyph glyph-name="three.posf" horiz-adv-x="1204" 
d="M586 -430q-229 0 -369 113q-139 113 -139 303h266q10 -90 70 -146t161 -55h21q117 1 177 65q61 64 61 155t-71 143t-190 53h-96v215h86q119 0 191 56t72 148t-63 150q-62 59 -157 59h-20q-86 0 -146 -55t-69 -149h-267q0 182 140 301q140 118 358 118q217 0 353 -116
t137 -283q0 -123 -69 -212t-183 -120q118 -31 190 -122t72 -211q0 -194 -144 -302t-372 -108z" />
    <glyph glyph-name="four.posf" horiz-adv-x="1296" 
d="M764 215v485l-422 -485h422zM1024 -410h-260v410h-690v260l655 764h295v-809h209v-215h-209v-410z" />
    <glyph glyph-name="five.posf" horiz-adv-x="1193" 
d="M1100 35q0 -205 -140 -335t-368 -130t-373 117t-168 303h266q23 -96 92 -150t171 -55h12q104 0 173 68q69 69 69 181t-69 175t-173 63h-12q-119 0 -230 -118h-250l176 870h809v-215h-604l-88 -420q41 43 113 71t145 27q199 1 324 -123t125 -329z" />
    <glyph glyph-name="six.posf" horiz-adv-x="1292" 
d="M385 461q0 -117 72 -192t188 -74h17q110 1 178 77t67 189t-69 189t-176 77h-17q-113 -1 -187 -75t-73 -191zM711 942q195 0 329 -130t134 -338t-140 -351t-392 -143q-253 0 -396 180q-144 180 -144 520t184 557t459 217q181 0 309 -105t150 -284h-266q-10 76 -61 125
t-144 49h-16q-125 0 -238 -116t-133 -375q48 90 146 142t219 52z" />
    <glyph glyph-name="seven.posf" horiz-adv-x="1126" 
d="M555 -410h-279v134q0 739 523 1085h-758v215h1034v-225q-520 -338 -520 -1075v-134z" />
    <glyph glyph-name="eight.posf" horiz-adv-x="1204" 
d="M805 397q0 91 -55 145t-138 54h-20q-82 0 -137 -54t-55 -144t54 -147q56 -56 138 -56h20q82 0 138 56q55 56 55 146zM592 1239q-92 0 -157 -62q-65 -63 -65 -155t65 -152q65 -59 157 -59h20q92 0 157 59q65 60 65 152t-65 154t-157 63h-20zM1071 369q0 -165 -124 -277
t-344 -112t-345 112t-125 277q0 238 242 321q-117 41 -194 139t-77 246q0 147 132 263t366 116t366 -116t132 -263t-77 -245t-194 -140q242 -84 242 -321z" />
    <glyph glyph-name="nine.posf" horiz-adv-x="1263" 
d="M526 -430q-182 0 -309 105t-149 284h266q10 -76 61 -125t144 -49h16q126 0 239 117t132 374q-48 -90 -146 -142t-219 -52q-195 0 -329 130t-134 338t140 351t392 143q253 0 396 -180t143 -520q-1 -340 -185 -557t-458 -217zM887 563q0 117 -72 192t-188 74h-17
q-110 -1 -178 -77t-68 -189t70 -189q68 -76 176 -77h17q113 1 187 75t73 191z" />
    <glyph glyph-name="zero.numerator" horiz-adv-x="860" 
d="M426 803h8q131 0 131 226t-131 226h-8q-131 0 -131 -226t131 -226zM430 614q-176 0 -266 121t-90 294t90 294t266 121t266 -121t90 -294t-90 -294t-266 -121z" />
    <glyph glyph-name="one.numerator" horiz-adv-x="616" 
d="M500 625h-215v524l-224 -184v258l256 211h183v-809z" />
    <glyph glyph-name="two.numerator" horiz-adv-x="765" 
d="M684 625h-606v172l305 276q78 70 78 109q0 38 -22 60t-54 22h-8q-33 0 -58 -27t-26 -61h-219q8 120 97 194t220 74t211 -74t80 -154t-30 -126t-89 -103l-194 -178h315v-184z" />
    <glyph glyph-name="three.numerator" horiz-adv-x="774" 
d="M375 614q-131 0 -220 64t-89 176h221q1 -27 27 -44t59 -17h10q39 1 65 23t25 56q0 34 -24 55q-25 19 -64 19h-76v172h76q37 0 59 20t23 54q-1 33 -21 53t-57 21h-10q-31 0 -53 -18t-25 -40h-221q0 111 88 173q88 63 215 63t216 -62t89 -181q0 -118 -113 -167
q119 -55 119 -190q0 -110 -94 -170t-225 -60z" />
    <glyph glyph-name="four.numerator" horiz-adv-x="831" 
d="M459 926v280l-215 -280h215zM657 627h-198v127h-402v223l357 459h243v-510h109v-172h-109v-127z" />
    <glyph glyph-name="five.numerator" horiz-adv-x="780" 
d="M380 612q-138 0 -227 71t-98 185h230q7 -32 33 -54t61 -21h8q41 -1 69 29t27 71q1 41 -25 67t-67 25h-8q-49 0 -78 -35h-221l90 482h516v-181h-356l-29 -137q53 47 149 47q96 -1 171 -69t75 -195t-91 -206t-229 -79z" />
    <glyph glyph-name="six.numerator" horiz-adv-x="808" 
d="M403 979q-39 -1 -67 -27t-29 -64q0 -38 28 -65t68 -26h9q40 1 68 27t28 66t-27 64t-69 25h-9zM462 1153q116 1 190 -71t73 -189q0 -117 -87 -197q-88 -80 -234 -80t-238 102t-92 292t103 313t278 123q127 0 203 -69t79 -175h-213q-14 63 -80 64h-12q-61 0 -103 -56
t-50 -139q67 82 183 82z" />
    <glyph glyph-name="seven.numerator" horiz-adv-x="704" 
d="M416 627h-232v26q0 346 234 598h-369v185h613v-160q-246 -246 -246 -612v-37z" />
    <glyph glyph-name="eight.numerator" horiz-adv-x="786" 
d="M479 868q0 31 -23 53q-24 22 -57 21h-10q-33 0 -57 -22t-25 -52q0 -31 25 -51t57 -20h10q33 0 57 20q23 20 23 51zM389 1266q-39 0 -67 -20t-27 -56q0 -35 28 -55t66 -21h10q39 0 67 20t28 56q0 35 -28 55t-67 21h-10zM395 616q-133 0 -219 62t-86 160q0 66 38 116
t103 70q-154 57 -153 201q0 96 92 158q92 63 225 63t225 -62t91 -159q0 -143 -156 -201q65 -20 103 -70t38 -116q0 -96 -84 -159t-217 -63z" />
    <glyph glyph-name="nine.numerator" horiz-adv-x="811" 
d="M350 909q-116 -1 -190 71t-74 189t87 197t233 80t239 -101q92 -101 92 -292t-103 -314t-278 -123q-126 0 -202 69t-80 175h213q14 -63 80 -63h12q61 0 103 56t50 138q-66 -82 -182 -82zM408 1083q40 0 68 27t28 65q0 39 -28 65t-68 26h-9q-41 0 -69 -27t-27 -67
q0 -40 27 -64t69 -25h9z" />
    <glyph glyph-name="zero.denominator" horiz-adv-x="860" 
d="M426 180h8q131 0 131 226t-131 227h-8q-131 -1 -131 -227t131 -226zM430 -8q-176 0 -266 121t-90 294t90 293t266 121q176 0 266 -121q90 -122 90 -294t-90 -293t-266 -121z" />
    <glyph glyph-name="one.denominator" horiz-adv-x="616" 
d="M500 0h-215v524l-224 -184v258l256 211h183v-809z" />
    <glyph glyph-name="two.denominator" horiz-adv-x="765" 
d="M684 0h-606v172l305 277q78 71 78 109t-22 60t-54 21h-8q-33 0 -58 -27t-26 -61h-219q8 121 97 195t220 73q131 0 211 -74q80 -73 80 -153t-30 -127t-89 -103l-194 -178h315v-184z" />
    <glyph glyph-name="three.denominator" horiz-adv-x="774" 
d="M375 -10q-131 0 -220 63t-89 176h221q1 -27 27 -44t59 -17h10q39 0 65 22t25 58q0 35 -24 54q-25 19 -64 20h-76v172h76q37 0 59 20t23 52q-1 32 -21 54t-57 21h-10q-31 0 -53 -17t-25 -40h-221q0 111 88 173t215 62t216 -62t89 -180t-113 -167q119 -55 119 -191
q0 -109 -94 -169t-225 -60z" />
    <glyph glyph-name="four.denominator" horiz-adv-x="831" 
d="M459 299v281l-215 -281h215zM657 0h-198v127h-402v223l357 459h243v-510h109v-172h-109v-127z" />
    <glyph glyph-name="five.denominator" horiz-adv-x="780" 
d="M380 -10q-138 0 -227 70t-98 186h230q7 -33 33 -55t61 -21h8q41 0 69 30t28 70t-26 67q-26 26 -67 25h-8q-49 0 -78 -34h-221l90 481h516v-180h-356l-29 -137q53 47 149 47t171 -69q75 -70 75 -196t-91 -205t-229 -79z" />
    <glyph glyph-name="six.denominator" horiz-adv-x="808" 
d="M403 352q-39 0 -67 -26t-29 -65q0 -39 28 -65t68 -26h9q40 0 68 27t28 67t-27 64q-27 25 -69 24h-9zM462 526q116 0 190 -72t73 -188q0 -116 -87 -196q-88 -80 -234 -80t-238 101t-92 292t103 313t278 123q127 -1 203 -69t79 -175h-213q-14 63 -80 64h-12q-61 0 -103 -56
t-50 -139q67 82 183 82z" />
    <glyph glyph-name="seven.denominator" horiz-adv-x="704" 
d="M414 0h-232v27q0 346 234 598h-369v184h612v-160q-246 -246 -245 -612v-37z" />
    <glyph glyph-name="eight.denominator" horiz-adv-x="786" 
d="M479 231q0 31 -23 53q-24 22 -57 21h-10q-33 1 -57 -21t-25 -53q0 -31 25 -51t57 -20h10q33 0 57 20q23 20 23 51zM389 629q-39 -1 -67 -21t-27 -55q0 -35 28 -55t66 -21h10q39 1 67 21t28 55t-28 55t-67 21h-10zM395 -20q-133 0 -219 62t-86 159q0 65 38 115t103 71
q-154 57 -153 201q0 96 92 158t225 62t225 -62t91 -158q0 -143 -156 -201q65 -21 103 -71t38 -115q0 -97 -84 -159t-217 -62z" />
    <glyph glyph-name="nine.denominator" horiz-adv-x="811" 
d="M350 283q-116 -1 -190 71t-74 189t87 197t233 79q146 0 239 -101q92 -101 92 -292q0 -192 -103 -314t-278 -122q-126 0 -202 68t-80 175h213q14 -63 80 -63h12q61 0 103 56t50 139q-66 -82 -182 -82zM408 457q40 1 68 27t28 64t-28 64t-68 27h-9q-41 0 -69 -27
q-28 -26 -27 -66q0 -40 27 -65t69 -24h9z" />
    <glyph glyph-name="zero.slashed" horiz-adv-x="1372" 
d="M678 215h16q303 0 303 502q0 90 -8 153l-518 -557q74 -98 207 -98zM375 717q0 -109 14 -189l529 570q-78 121 -224 121h-16q-303 0 -303 -502zM686 -20q-280 0 -432 200t-152 536q0 338 156 538t428 200t428 -201t156 -537t-152 -536t-432 -200z" />
    <glyph glyph-name="zero.slashed.posf" horiz-adv-x="1239" 
d="M612 197h17q121 0 184 91t64 226q0 74 -17 125l-377 -406q57 -36 129 -36zM365 514q0 -72 18 -133l381 410q-57 41 -135 40h-17q-121 0 -184 -91t-63 -226zM621 -18q-233 0 -378 149q-144 150 -145 383q0 233 144 383t378 150t378 -150t144 -383q0 -232 -144 -382
t-377 -150z" />
    <glyph glyph-name="zero.slashed.tnum" 
d="M608 215h17q127 0 197 131t69 371q0 39 -4 108l-463 -499q69 -111 184 -111zM342 717q0 -82 10 -164l477 516q-70 150 -204 150h-17q-126 0 -196 -131t-70 -371zM616 1454q260 0 405 -194q144 -195 144 -543t-144 -543q-145 -194 -405 -194t-404 194t-144 543t144 543
t404 194z" />
    <glyph glyph-name="zero.slashed.inferior" horiz-adv-x="860" 
d="M426 -57h8q131 0 131 225q0 41 -2 59l-225 -241q35 -43 88 -43zM295 168q0 -41 2 -59l225 241q-35 45 -88 45h-8q-131 0 -131 -227zM430 -246q-176 0 -266 121t-90 294t90 294t266 121t266 -121t90 -294t-90 -294t-266 -121z" />
    <glyph glyph-name="zero.slashed.superior" horiz-adv-x="860" 
d="M426 1028h8q131 0 131 225q0 41 -2 60l-225 -242q35 -43 88 -43zM295 1253q0 -41 2 -59l225 242q-35 45 -88 45h-8q-131 -1 -131 -228zM430 840q-176 0 -266 121t-90 293t90 294q90 121 266 121t266 -121t90 -294q0 -174 -90 -294t-266 -120z" />
    <glyph glyph-name="zero.slashed.numerator" horiz-adv-x="860" 
d="M426 805h8q131 0 131 225q0 41 -2 60l-225 -242q35 -43 88 -43zM295 1030q0 -41 2 -59l225 241q-35 45 -88 45h-8q-131 0 -131 -227zM430 616q-176 0 -266 121t-90 294t90 294t266 121t266 -121t90 -294t-90 -294t-266 -121z" />
    <glyph glyph-name="zero.slashed.denominator" horiz-adv-x="860" 
d="M426 180h8q131 0 131 226q0 41 -2 59l-225 -242q35 -43 88 -43zM295 406q0 -41 2 -60l225 242q-35 45 -88 45h-8q-131 0 -131 -227zM430 -8q-176 0 -266 121t-90 294t90 293t266 121q176 0 266 -121q90 -122 90 -294t-90 -293t-266 -121z" />
    <glyph glyph-name="hyphen.case" horiz-adv-x="864" 
d="M135 610v215h594v-215h-594z" />
    <glyph glyph-name="endash.case" horiz-adv-x="1232" 
d="M135 610v215h963v-215h-963z" />
    <glyph glyph-name="emdash.case" horiz-adv-x="1888" 
d="M135 610v215h1618v-215h-1618z" />
    <glyph glyph-name="parenleft.case" horiz-adv-x="774" 
d="M375 716q0 -200 83 -320t214 -160v-256q-242 10 -408 226t-166 509q0 193 75 359t208 270t291 110v-256q-133 -41 -215 -161q-82 -121 -82 -321z" />
    <glyph glyph-name="parenright.case" horiz-adv-x="774" 
d="M399 717q0 201 -82 321t-215 160v256q158 -6 291 -109t208 -271t75 -359q0 -293 -166 -509t-408 -226v256q131 40 214 160t83 321z" />
    <glyph glyph-name="bracketleft.case" horiz-adv-x="739" 
d="M174 0v1434h451v-246h-174v-942h174v-246h-451z" />
    <glyph glyph-name="bracketright.case" horiz-adv-x="739" 
d="M565 1434v-1434h-450v246h174v942h-174v246h450z" />
    <glyph glyph-name="braceleft.case" horiz-adv-x="806" 
d="M334 741v-49q166 0 166 -170v-143q0 -84 22 -109t99 -24h81v-246h-194q-274 0 -275 317v99q1 78 -21 106t-83 27h-31v336h31q61 -1 83 27t21 106v98q0 317 275 318h194v-246h-81q-76 0 -99 -25t-22 -108v-144q0 -170 -166 -170z" />
    <glyph glyph-name="braceright.case" horiz-adv-x="806" 
d="M473 692v49q-166 0 -166 170v144q-1 85 -23 109t-98 24h-82v246h195q274 0 274 -318v-98q0 -78 22 -106t83 -27h31v-336h-31q-61 0 -83 -28t-22 -105v-99q0 -317 -274 -317h-195v246h82q76 0 99 24t22 109v143q0 170 166 170z" />
    <glyph glyph-name="guilsinglleft.case" horiz-adv-x="811" 
d="M690 276h-307l-297 441l297 440h307l-297 -440z" />
    <glyph glyph-name="guilsinglright.case" horiz-adv-x="811" 
d="M428 276h-307l297 441l-297 440h307l297 -440z" />
    <glyph glyph-name="guillemotleft.case" horiz-adv-x="1304" 
d="M1184 276h-307l-297 441l297 440h307l-297 -440zM690 276h-307l-297 441l297 440h307l-297 -440z" />
    <glyph glyph-name="guillemotright.case" horiz-adv-x="1304" 
d="M428 276h-307l297 441l-297 440h307l297 -440zM922 276h-308l297 441l-297 440h308l297 -440z" />
    <glyph glyph-name="exclamdown.case" horiz-adv-x="591" 
d="M432 0h-272v492l63 583h146l63 -583v-492zM162 1167v267h266v-267h-266z" />
    <glyph glyph-name="questiondown.case" horiz-adv-x="1005" 
d="M438 778q31 0 42 10t12 41v213h251v-315q0 -78 -43 -121t-118 -43h-56q-190 0 -190 -164q0 -75 52 -119t138 -44h410v-236h-447q-186 0 -305 109q-118 109 -118 279t101 280t271 110zM752 1434v-267h-267v267h267z" />
    <glyph glyph-name="acute.case" horiz-adv-x="440" 
d="M205 1526h-185l82 297h318z" />
    <glyph glyph-name="grave.case" horiz-adv-x="440" 
d="M420 1526h-184l-216 297h318z" />
    <glyph glyph-name="hungarumlaut.case" horiz-adv-x="827" 
d="M205 1526h-185l82 297h318zM592 1526h-184l81 297h318z" />
    <glyph glyph-name="circumflex.case" horiz-adv-x="819" 
d="M246 1526h-226l246 297h287l246 -297h-226l-163 119z" />
    <glyph glyph-name="caron.case" horiz-adv-x="819" 
d="M553 1526h-287l-246 297h226l164 -119l163 119h226z" />
    <glyph glyph-name="breve.case" horiz-adv-x="737" 
d="M369 1710q49 0 83 29t40 84h225q-1 -139 -99 -223t-250 -84t-248 84q-97 84 -100 223h226q6 -55 40 -84t83 -29z" />
    <glyph glyph-name="tilde.case" horiz-adv-x="817" 
d="M541 1741q61 0 61 82h195v-54q-1 -101 -57 -167t-169 -66q-72 0 -163 49l-37 21q-57 34 -90 34q-66 1 -66 -84h-195v54q0 96 67 165t153 69t163 -42l37 -20q83 -41 101 -41z" />
    <glyph glyph-name="macron.case" horiz-adv-x="727" 
d="M707 1567h-687v225h687v-225z" />
    <glyph glyph-name="dieresis.case" horiz-adv-x="696" 
d="M276 1567h-256v245h256v-245zM676 1567h-256v245h256v-245z" />
    <glyph glyph-name="dotaccent.case" horiz-adv-x="337" 
d="M41 1567v276h287v-276h-287z" />
    <glyph glyph-name="ring.case" horiz-adv-x="491" 
d="M326 1720q0 33 -24 58q-24 24 -56 24t-58 -24q-24 -24 -24 -58t24 -58t58 -24q32 0 56 24t24 58zM249 1946q91 0 157 -68t65 -161t-65 -157t-157 -65q-93 0 -161 66q-68 67 -68 157t69 159t160 69z" />
    <glyph glyph-name="edgeleft.case" horiz-adv-x="833" 
d="M496 0q-131 0 -224 79q-92 79 -92 193q0 152 111 209q-92 14 -147 80q-54 66 -54 159t53 151t150 71q-49 27 -81 85t-32 136q0 115 86 193t217 78h236v-246h-203q-72 0 -72 -67t76 -66h96v-246h-149q-113 0 -113 -88q0 -43 29 -70t84 -26h149v-246h-96q-76 0 -76 -67
t76 -66h199v-246h-223z" />
    <glyph glyph-name="edgeright.case" horiz-adv-x="833" 
d="M338 0h-223v246h198q76 0 76 66t-76 67h-96v246h150q55 1 84 27t28 69q0 88 -112 88h-150v246h96q76 1 76 67t-72 66h-202v246h235q131 0 217 -78t86 -193q1 -78 -31 -136t-81 -85q96 -12 149 -70t53 -152q0 -93 -54 -159t-146 -80q111 -57 110 -209q0 -116 -92 -194
t-223 -78z" />
    <glyph glyph-name="ringacute.case" horiz-adv-x="438" 
d="M270 1675q0 29 -20 49t-47 20t-49 -20t-21 -49q0 -29 22 -49q23 -20 49 -20t46 20t20 49zM385 1675q0 -78 -52 -130t-130 -52t-130 52t-53 130q0 78 52 130q52 53 131 53q78 0 130 -52t52 -131zM418 2081l-127 -180h-162l33 180h256z" />
    <glyph glyph-name="G.ss02" horiz-adv-x="1509" 
d="M1419 504q0 -232 -174 -378t-450 -146q-317 0 -512 208t-195 528t195 529t512 209q270 0 434 -142t180 -370h-276q-17 121 -99 194t-229 72h-21q-196 0 -308 -133t-112 -358t112 -359q112 -133 308 -133h21q147 0 243 74q95 74 95 195v8h-348v246h624v-244z" />
    <glyph glyph-name="Gcircumflex.ss02" horiz-adv-x="1509" 
d="M1419 504q0 -232 -174 -378t-450 -146q-317 0 -512 208t-195 528t195 529t512 209q270 0 434 -142t180 -370h-276q-17 121 -99 194t-229 72h-21q-196 0 -308 -133t-112 -358t112 -359q112 -133 308 -133h21q147 0 243 74q95 74 95 195v8h-348v246h624v-244zM614 1526
h-225l246 297h287l245 -297h-225l-164 119z" />
    <glyph glyph-name="Gbreve.ss02" horiz-adv-x="1509" 
d="M1419 504q0 -232 -174 -378t-450 -146q-317 0 -512 208t-195 528t195 529t512 209q270 0 434 -142t180 -370h-276q-17 121 -99 194t-229 72h-21q-196 0 -308 -133t-112 -358t112 -359q112 -133 308 -133h21q147 0 243 74q95 74 95 195v8h-348v246h624v-244zM788 1710
q48 0 83 29q34 29 40 84h226q-1 -139 -99 -223t-250 -84t-248 84t-100 223h226q6 -55 40 -84t82 -29z" />
    <glyph glyph-name="Gdotaccent.ss02" horiz-adv-x="1509" 
d="M1419 504q0 -232 -174 -378t-450 -146q-317 0 -512 208t-195 528t195 529t512 209q270 0 434 -142t180 -370h-276q-17 121 -99 194t-229 72h-21q-196 0 -308 -133t-112 -358t112 -359q112 -133 308 -133h21q147 0 243 74q95 74 95 195v8h-348v246h624v-244zM666 1556v277
h286v-277h-286z" />
    <glyph glyph-name="Gcommaaccent.ss02" horiz-adv-x="1509" 
d="M662 -635h-58v154h47q111 0 111 82h-107v266h267v-266q0 -102 -72 -169t-188 -67zM1419 504q0 -232 -174 -378t-450 -146q-317 0 -512 208t-195 528t195 529t512 209q270 0 434 -142t180 -370h-276q-17 121 -99 194t-229 72h-21q-196 0 -308 -133t-112 -358t112 -359
q112 -133 308 -133h21q147 0 243 74q95 74 95 195v8h-348v246h624v-244z" />
    <glyph glyph-name="R.ss02" horiz-adv-x="1431" 
d="M444 543v-543h-276v1434h666q186 0 313 -111t127 -279q0 -119 -62 -214t-163 -138q77 -8 111 -45t61 -123l165 -524h-296l-134 424q-18 61 -48 90t-83 29h-381zM444 784h308q246 0 245 207q0 197 -245 197h-308v-404z" />
    <glyph glyph-name="Racute.ss02" horiz-adv-x="1431" 
d="M444 543v-543h-276v1434h666q186 0 313 -111t127 -279q0 -119 -62 -214t-163 -138q77 -8 111 -45t61 -123l165 -524h-296l-134 424q-18 61 -48 90t-83 29h-381zM444 784h308q246 0 245 207q0 197 -245 197h-308v-404zM768 1526h-184l82 297h317z" />
    <glyph glyph-name="Rcommaaccent.ss02" horiz-adv-x="1431" 
d="M606 -635h-57v154h47q111 0 111 82h-107v266h266v-266q0 -102 -72 -169t-188 -67zM444 543v-543h-276v1434h666q186 0 313 -111t127 -279q0 -119 -62 -214t-163 -138q77 -8 111 -45t61 -123l165 -524h-296l-134 424q-18 61 -48 90t-83 29h-381zM444 784h308
q246 0 245 207q0 197 -245 197h-308v-404z" />
    <glyph glyph-name="Rcaron.ss02" horiz-adv-x="1431" 
d="M444 543v-543h-276v1434h666q186 0 313 -111t127 -279q0 -119 -62 -214t-163 -138q77 -8 111 -45t61 -123l165 -524h-296l-134 424q-18 61 -48 90t-83 29h-381zM444 784h308q246 0 245 207q0 197 -245 197h-308v-404zM842 1526h-287l-246 297h226l163 -119l164 119h225z
" />
    <glyph glyph-name="a.ss01" horiz-adv-x="1230" 
d="M520 -20q-170 0 -305 141t-135 393t129 391t311 139q115 0 194 -47t113 -116v143h267v-1024h-267v143q-39 -71 -117 -117t-190 -46zM594 195q98 0 166 86t67 231q0 145 -67 231q-68 86 -166 86h-16q-96 0 -164 -90t-68 -226t68 -227t164 -91h16z" />
    <glyph glyph-name="agrave.ss01" horiz-adv-x="1230" 
d="M520 -20q-170 0 -305 141t-135 393t129 391t311 139q115 0 194 -47t113 -116v143h267v-1024h-267v143q-39 -71 -117 -117t-190 -46zM594 195q98 0 166 86t67 231q0 145 -67 231q-68 86 -166 86h-16q-96 0 -164 -90t-68 -226t68 -227t164 -91h16zM645 1434l51 -308h-153
l-205 308h307z" />
    <glyph glyph-name="aacute.ss01" horiz-adv-x="1230" 
d="M520 -20q-170 0 -305 141t-135 393t129 391t311 139q115 0 194 -47t113 -116v143h267v-1024h-267v143q-39 -71 -117 -117t-190 -46zM594 195q98 0 166 86t67 231q0 145 -67 231q-68 86 -166 86h-16q-96 0 -164 -90t-68 -226t68 -227t164 -91h16zM500 1126l51 308h307
l-205 -308h-153z" />
    <glyph glyph-name="acircumflex.ss01" horiz-adv-x="1230" 
d="M520 -20q-170 0 -305 141t-135 393t129 391t311 139q115 0 194 -47t113 -116v143h267v-1024h-267v143q-39 -71 -117 -117t-190 -46zM594 195q98 0 166 86t67 231q0 145 -67 231q-68 86 -166 86h-16q-96 0 -164 -90t-68 -226t68 -227t164 -91h16zM827 1126l-204 148
l-205 -148h-164l205 308h327l205 -308h-164z" />
    <glyph glyph-name="atilde.ss01" horiz-adv-x="1230" 
d="M520 -20q-170 0 -305 141t-135 393t129 391t311 139q115 0 194 -47t113 -116v143h267v-1024h-267v143q-39 -71 -117 -117t-190 -46zM594 195q98 0 166 86t67 231q0 145 -67 231q-68 86 -166 86h-16q-96 0 -164 -90t-68 -226t68 -227t164 -91h16zM752 1341q22 0 40 24
q17 24 17 58h195v-53q0 -94 -68 -164q-123 -126 -322 -20l-36 20q-57 33 -85 33t-50 -24t-21 -58h-195v53q0 96 67 165t153 69t163 -41l37 -21q83 -41 105 -41z" />
    <glyph glyph-name="adieresis.ss01" horiz-adv-x="1230" 
d="M520 -20q-170 0 -305 141t-135 393t129 391t311 139q115 0 194 -47t113 -116v143h267v-1024h-267v143q-39 -71 -117 -117t-190 -46zM594 195q98 0 166 86t67 231q0 145 -67 231q-68 86 -166 86h-16q-96 0 -164 -90t-68 -226t68 -227t164 -91h16zM295 1157v266h246v-266
h-246zM705 1157v266h245v-266h-245z" />
    <glyph glyph-name="aring.ss01" horiz-adv-x="1230" 
d="M520 -20q-170 0 -305 141t-135 393t129 391t311 139q115 0 194 -47t113 -116v143h267v-1024h-267v143q-39 -71 -117 -117t-190 -46zM594 195q98 0 166 86t67 231q0 145 -67 231q-68 86 -166 86h-16q-96 0 -164 -90t-68 -226t68 -227t164 -91h16zM627 1411q-37 0 -64 -27
q-27 -28 -27 -64t28 -63q26 -27 63 -27t63 28q26 26 25 63q1 37 -25 63t-63 27zM630 1106q-89 0 -154 62q-64 62 -64 150t66 152q66 66 152 66q87 0 149 -65q63 -65 63 -153t-62 -150t-150 -62z" />
    <glyph glyph-name="amacron.ss01" horiz-adv-x="1230" 
d="M520 -20q-170 0 -305 141t-135 393t129 391t311 139q115 0 194 -47t113 -116v143h267v-1024h-267v143q-39 -71 -117 -117t-190 -46zM594 195q98 0 166 86t67 231q0 145 -67 231q-68 86 -166 86h-16q-96 0 -164 -90t-68 -226t68 -227t164 -91h16zM301 1157v215h625v-215
h-625z" />
    <glyph glyph-name="abreve.ss01" horiz-adv-x="1230" 
d="M520 -20q-170 0 -305 141t-135 393t129 391t311 139q115 0 194 -47t113 -116v143h267v-1024h-267v143q-39 -71 -117 -117t-190 -46zM594 195q98 0 166 86t67 231q0 145 -67 231q-68 86 -166 86h-16q-96 0 -164 -90t-68 -226t68 -227t164 -91h16zM612 1300q55 0 87 36
t36 98h226q-1 -148 -99 -238t-250 -90t-248 90t-100 238h225q4 -62 36 -98t87 -36z" />
    <glyph glyph-name="aogonek.ss01" horiz-adv-x="1230" 
d="M1094 -287v-164h-103q-106 -1 -176 57t-70 148q0 152 156 246h-74v143q-39 -71 -117 -117t-190 -46q-170 0 -305 141t-135 393t129 391t311 139q115 0 194 -47t113 -116v143h267v-1024q-164 -94 -164 -184q0 -51 30 -77t72 -26h62zM594 195q98 0 166 86t67 231
q0 145 -67 231q-68 86 -166 86h-16q-96 0 -164 -90t-68 -226t68 -227t164 -91h16z" />
    <glyph glyph-name="aringacute.ss01" horiz-adv-x="1230" 
d="M520 -20q-170 0 -305 141t-135 393t129 391t311 139q115 0 194 -47t113 -116v143h267v-1024h-267v143q-39 -71 -117 -117t-190 -46zM594 195q98 0 166 86t67 231q0 145 -67 231q-68 86 -166 86h-16q-96 0 -164 -90t-68 -226t68 -227t164 -91h16zM647 1391q-37 0 -63 -27
t-27 -64q0 -38 27 -64q28 -26 64 -26t62 27t26 63t-26 64q-26 27 -63 27zM646 1516q86 0 150 -65q62 -65 62 -154t-62 -151t-150 -61q-90 1 -154 63t-64 149t66 153t152 66zM731 1569h-162l52 276h307z" />
    <glyph glyph-name="uni1EA1.ss01" horiz-adv-x="1230" 
d="M479 -399v266h266v-266h-266zM520 -20q-170 0 -305 141t-135 393t129 391t311 139q115 0 194 -47t113 -116v143h267v-1024h-267v143q-39 -71 -117 -117t-190 -46zM594 195q98 0 166 86t67 231q0 145 -67 231q-68 86 -166 86h-16q-96 0 -164 -90t-68 -226t68 -227t164 -91
h16z" />
    <glyph glyph-name="uni0227.ss01" horiz-adv-x="1230" 
d="M520 -20q-170 0 -305 141t-135 393t129 391t311 139q115 0 194 -47t113 -116v143h267v-1024h-267v143q-39 -71 -117 -117t-190 -46zM594 195q98 0 166 86t67 231q0 145 -67 231q-68 86 -166 86h-16q-96 0 -164 -90t-68 -226t68 -227t164 -91h16zM477 1157v277h287v-277
h-287z" />
    <glyph glyph-name="y.ss03" horiz-adv-x="1140" 
d="M362 -414h-309v230h236q51 0 69 14t37 59l68 177l-471 958h299l301 -625l242 625h294l-507 -1274q-37 -90 -93 -127t-166 -37z" />
    <glyph glyph-name="yacute.ss03" horiz-adv-x="1140" 
d="M362 -414h-309v230h236q51 0 69 14t37 59l68 177l-471 958h299l301 -625l242 625h294l-507 -1274q-37 -90 -93 -127t-166 -37zM483 1126l52 308h307l-205 -308h-154z" />
    <glyph glyph-name="ycircumflex.ss03" horiz-adv-x="1140" 
d="M362 -414h-309v230h236q51 0 69 14t37 59l68 177l-471 958h299l301 -625l242 625h294l-507 -1274q-37 -90 -93 -127t-166 -37zM780 1126l-205 148l-204 -148h-164l205 308h327l205 -308h-164z" />
    <glyph glyph-name="ydieresis.ss03" horiz-adv-x="1140" 
d="M362 -414h-309v230h236q51 0 69 14t37 59l68 177l-471 958h299l301 -625l242 625h294l-507 -1274q-37 -90 -93 -127t-166 -37zM254 1157v266h246v-266h-246zM664 1157v266h245v-266h-245z" />
    <glyph glyph-name="ygrave.ss03" horiz-adv-x="1140" 
d="M362 -414h-309v230h236q51 0 69 14t37 59l68 177l-471 958h299l301 -625l242 625h294l-507 -1274q-37 -90 -93 -127t-166 -37zM606 1434l51 -308h-153l-205 308h307z" />
    <glyph glyph-name="ymacron.ss03" horiz-adv-x="1140" 
d="M362 -414h-309v230h236q51 0 69 14t37 59l68 177l-471 958h299l301 -625l242 625h294l-507 -1274q-37 -90 -93 -127t-166 -37zM260 1157v215h625v-215h-625z" />
    <glyph glyph-name="a.inferior" horiz-adv-x="702" 
d="M263 -246q-97 0 -151 49t-55 129q0 150 222 177l133 16v18q0 68 -66 68h-8q-59 0 -70 -45h-190q4 88 74 140t190 52t194 -56q73 -56 72 -146v-262q0 -74 8 -130h-182q-4 18 -8 74q-66 -84 -163 -84zM311 -98h8q39 0 68 26t29 74v21l-113 -21q-49 -10 -49 -51
q0 -49 57 -49z" />
    <glyph glyph-name="b.inferior" horiz-adv-x="808" 
d="M301 55q0 -59 34 -98t81 -39h8q49 0 82 38t33 99t-33 101t-82 39h-8q-47 -1 -81 -41t-34 -99zM748 55q0 -141 -76 -221t-190 -80t-175 82v-72h-209v809h203v-297q61 82 178 82t193 -81t76 -222z" />
    <glyph glyph-name="c.inferior" horiz-adv-x="718" 
d="M377 -246q-139 0 -227 77t-89 224q1 147 89 225t227 78t208 -66t77 -165h-207q-10 68 -82 68h-8q-95 -1 -95 -139t95 -138h8q72 0 82 62h207q-10 -96 -78 -161t-207 -65z" />
    <glyph glyph-name="d.inferior" horiz-adv-x="808" 
d="M327 -240q-114 0 -190 80t-76 221t76 223t193 81q117 0 178 -82v297h203v-809h-209v71q-61 -82 -175 -82zM393 -76q47 0 81 39t34 98t-34 99t-81 41h-8q-49 0 -82 -39q-33 -38 -33 -100t33 -100t82 -38h8z" />
    <glyph glyph-name="e.inferior" horiz-adv-x="722" 
d="M358 207q-92 0 -102 -96h205q-6 96 -94 96h-9zM59 52q0 134 84 220t219 86q134 0 216 -85t81 -214q0 -35 -2 -45h-401q10 -111 109 -110h8q80 0 90 51h194q-10 -86 -89 -143q-78 -58 -206 -58t-216 82q-87 82 -87 216z" />
    <glyph glyph-name="f.inferior" horiz-adv-x="544" 
d="M162 -236v416h-115v168h115v43q0 182 182 182h195v-153h-123q-45 0 -45 -55v-17h137v-168h-137v-416h-209z" />
    <glyph glyph-name="g.inferior" horiz-adv-x="788" 
d="M382 -502q-287 0 -310 209h209q14 -55 79 -55h13q121 0 121 119v92q-41 -90 -163 -90t-195 80t-73 214t71 213q71 78 191 78t156 -96v86h209v-571q0 -117 -84 -198t-224 -81zM375 -68h8q43 0 71 40t28 94t-27 93q-27 40 -70 40h-8q-45 0 -75 -35t-30 -98q0 -62 29 -98
t74 -36z" />
    <glyph glyph-name="h.inferior" horiz-adv-x="790" 
d="M307 96v-332h-209v809h209v-307q53 92 176 92q215 0 215 -239v-355h-209v347q0 86 -75 86h-8q-41 0 -70 -28t-29 -73z" />
    <glyph glyph-name="i.inferior" horiz-adv-x="405" 
d="M98 -236v584h209v-584h-209zM92 420v153h221v-153h-221z" />
    <glyph glyph-name="j.inferior" horiz-adv-x="405" 
d="M307 348v-657q0 -182 -182 -183h-209v175h100q53 0 68 15q14 15 14 66v584h209zM92 420v153h221v-153h-221z" />
    <glyph glyph-name="k.inferior" horiz-adv-x="761" 
d="M303 -236h-205v809h205v-399l166 174h256l-223 -229l235 -355h-237l-138 211l-59 -61v-150z" />
    <glyph glyph-name="l.inferior" horiz-adv-x="405" 
d="M98 -236v809h209v-809h-209z" />
    <glyph glyph-name="m.inferior" horiz-adv-x="1185" 
d="M307 96v-332h-209v584h209v-78q61 88 189 88t180 -102q63 102 209 102q100 0 154 -59t55 -158v-377h-209v334q0 96 -80 97h-8q-43 0 -70 -27t-27 -72v-332h-208v334q0 96 -80 97h-9q-43 0 -69 -27t-27 -72z" />
    <glyph glyph-name="n.inferior" horiz-adv-x="790" 
d="M307 96v-332h-209v584h209v-82q53 92 176 92q215 0 215 -239v-355h-209v347q0 86 -75 86h-8q-41 0 -70 -28t-29 -73z" />
    <glyph glyph-name="o.inferior" horiz-adv-x="749" 
d="M379 195h-8q-47 0 -75 -37t-28 -103q0 -65 28 -101t75 -36h8q47 0 75 36t28 102t-28 102q-28 37 -75 37zM375 358q143 0 229 -86t86 -217t-86 -216t-229 -85t-230 85q-86 85 -86 216t86 217q87 86 230 86z" />
    <glyph glyph-name="p.inferior" horiz-adv-x="808" 
d="M482 358q114 0 190 -80t76 -220q0 -142 -76 -223t-193 -81t-178 82v-297h-203v809h209v-72q61 82 175 82zM416 195q-47 0 -81 -39q-34 -38 -34 -98t34 -100t81 -40h8q49 0 82 39t33 100t-33 99t-82 39h-8z" />
    <glyph glyph-name="q.inferior" horiz-adv-x="808" 
d="M508 57q0 59 -34 99t-81 39h-8q-49 0 -82 -38q-33 -37 -33 -99t33 -101t82 -39h8q47 0 81 40t34 99zM61 57q0 141 76 221t190 80t175 -82v72h209v-809h-203v297q-61 -82 -178 -82t-193 81t-76 222z" />
    <glyph glyph-name="r.inferior" horiz-adv-x="536" 
d="M98 -236v584h215v-108q35 113 168 112h17v-176h-70q-121 0 -121 -143v-269h-209z" />
    <glyph glyph-name="s.inferior" horiz-adv-x="686" 
d="M326 -246q-256 0 -271 207h203q4 -70 80 -70h8q62 0 64 46q0 35 -43 43l-138 28q-152 31 -151 162q0 94 76 141t188 47q268 0 285 -202h-199q-4 66 -72 65h-10q-66 0 -65 -41q0 -31 38 -37l148 -32q74 -15 110 -51t35 -109q0 -97 -80 -147t-206 -50z" />
    <glyph glyph-name="t.inferior" horiz-adv-x="575" 
d="M512 -63v-173h-176q-182 0 -182 183v233h-115v168h115v184h208v-184h132v-168h-132v-164q0 -51 14 -65t68 -14h68z" />
    <glyph glyph-name="u.inferior" horiz-adv-x="790" 
d="M483 16v332h209v-584h-209v82q-53 -92 -176 -92q-215 0 -215 240v354h209v-346q0 -86 76 -86h8q41 0 69 28t29 72z" />
    <glyph glyph-name="v.inferior" horiz-adv-x="755" 
d="M512 -236h-268l-228 584h220l147 -387l149 387h207z" />
    <glyph glyph-name="w.inferior" horiz-adv-x="1017" 
d="M623 -236l-109 330l-98 -330h-183l-206 584h204l93 -309l102 309h192l97 -307l90 307h186l-207 -584h-161z" />
    <glyph glyph-name="x.inferior" horiz-adv-x="718" 
d="M469 -236l-111 148l-110 -148h-217l219 293l-217 291h219l108 -145l109 145h217l-217 -289l219 -295h-219z" />
    <glyph glyph-name="y.inferior" horiz-adv-x="753" 
d="M317 -471h-237v168h141q41 0 58 16q16 16 16 58v20l-295 557h236l145 -307l149 307h222l-267 -508v-143q0 -88 -40 -128t-128 -40z" />
    <glyph glyph-name="z.inferior" horiz-adv-x="702" 
d="M637 -236h-565v134l270 282h-264v168h540v-137l-270 -279h289v-168z" />
    <glyph glyph-name="a.inferior.ss01" horiz-adv-x="808" 
d="M326 -246q-104 0 -184 82q-81 82 -81 221t81 221q80 82 190 80q110 0 176 -73v63h203v-584h-209v76q-72 -86 -176 -86zM385 -84h8q49 0 82 40t33 101t-33 101t-82 39h-8q-49 0 -82 -39q-33 -38 -33 -100t33 -102t82 -40z" />
    <glyph glyph-name="a.superior.ss01" horiz-adv-x="808" 
d="M326 840q-104 0 -184 82q-81 82 -81 221t81 220q80 81 190 81t176 -74v64h203v-584h-209v76q-72 -86 -176 -86zM385 1001h8q49 0 82 40q33 39 33 101t-33 101t-82 39h-8q-49 0 -82 -39t-33 -100t33 -101t82 -41z" />
    <glyph glyph-name="y.inferior.ss03" horiz-adv-x="749" 
d="M295 -471h-227v168h106q37 0 52 13t28 44l10 25l-256 569h223l146 -330l145 330h221l-337 -743q-37 -76 -111 -76z" />
    <glyph glyph-name="y.superior.ss03" horiz-adv-x="749" 
d="M295 614h-227v168h106q37 0 52 14t28 44l10 24l-256 570h223l146 -330l145 330h221l-337 -744q-37 -76 -111 -76z" />
    <glyph glyph-name="zero.inferior" horiz-adv-x="860" 
d="M426 -57h8q131 0 131 226t-131 226h-8q-131 0 -131 -226t131 -226zM430 -246q-176 0 -266 121t-90 294t90 294t266 121t266 -121t90 -294t-90 -294t-266 -121z" />
    <glyph glyph-name="one.inferior" horiz-adv-x="616" 
d="M500 -236h-215v525l-224 -185v258l256 211h183v-809z" />
    <glyph glyph-name="two.inferior" horiz-adv-x="765" 
d="M684 -236h-606v173l305 276q78 70 78 109q0 38 -22 60t-54 21h-8q-33 -1 -58 -27t-26 -61h-219q8 121 97 195t220 74t211 -74t80 -154t-30 -127t-89 -102l-194 -178h315v-185z" />
    <glyph glyph-name="three.inferior" horiz-adv-x="774" 
d="M375 -246q-131 0 -220 64t-89 176h221q1 -27 27 -44t59 -18h10q39 0 65 23t25 57q0 34 -24 55q-25 19 -64 19h-76v172h76q37 0 59 20t23 54q-1 33 -21 53t-57 21h-10q-31 0 -53 -18t-25 -40h-221q0 111 88 173q88 63 215 63t216 -62t89 -181q0 -118 -113 -167
q119 -55 119 -190q0 -110 -94 -170t-225 -60z" />
    <glyph glyph-name="four.inferior" horiz-adv-x="831" 
d="M459 63v281l-215 -281h215zM657 -236h-198v127h-402v224l357 458h243v-510h109v-172h-109v-127z" />
    <glyph glyph-name="five.inferior" horiz-adv-x="780" 
d="M380 -248q-138 0 -227 71t-98 185h230q7 -32 33 -54t61 -22h8q41 0 69 30t27 71q1 41 -25 67t-67 25h-8q-49 0 -78 -35h-221l90 481h516v-180h-356l-29 -137q53 47 149 47t171 -69q75 -70 75 -196t-91 -205t-229 -79z" />
    <glyph glyph-name="six.inferior" horiz-adv-x="808" 
d="M403 117q-39 -1 -67 -27t-29 -64q0 -38 28 -65t68 -27h9q40 0 68 27t28 67t-27 64t-69 25h-9zM462 291q116 1 190 -71t73 -189q0 -117 -87 -197q-88 -80 -234 -80t-238 102t-92 292t103 313t278 123q127 0 203 -69t79 -175h-213q-14 63 -80 63h-12q-61 0 -103 -56
t-50 -138q67 82 183 82z" />
    <glyph glyph-name="seven.inferior" horiz-adv-x="704" 
d="M416 -236h-232v27q0 346 234 598h-369v184h613v-159q-246 -246 -246 -613v-37z" />
    <glyph glyph-name="eight.inferior" horiz-adv-x="786" 
d="M479 2q1 30 -23 52t-57 22h-10q-33 0 -57 -22t-25 -52q0 -30 25 -51q25 -20 57 -21h10q33 0 57 20t23 52zM389 399q-39 0 -67 -20t-27 -55q0 -36 28 -56t66 -20h10q39 0 67 20t28 56t-28 55q-28 20 -67 20h-10zM395 -250q-133 0 -219 62t-86 159q0 66 38 116t103 71
q-154 57 -153 200q0 96 92 158t225 64q133 0 225 -62t91 -160q0 -143 -156 -200q65 -20 103 -70t38 -117q0 -97 -84 -159t-217 -62z" />
    <glyph glyph-name="nine.inferior" horiz-adv-x="811" 
d="M350 45q-116 -1 -190 71t-74 189t87 197t233 80t239 -102q92 -102 92 -292t-103 -313t-278 -123q-126 0 -202 69t-80 175h213q14 -63 80 -64h12q61 0 103 56t50 139q-66 -82 -182 -82zM408 219q40 1 68 27t28 64t-28 65t-68 26h-9q-41 -1 -69 -27t-27 -66q0 -40 27 -64
t69 -25h9z" />
    <glyph glyph-name="a.superior" horiz-adv-x="702" 
d="M263 840q-97 0 -151 49t-55 129q0 150 222 176l133 16v19q0 68 -66 67h-8q-59 0 -70 -45h-190q4 89 74 141t190 52t194 -56q73 -56 72 -147v-262q0 -74 8 -129h-182q-4 18 -8 74q-66 -84 -163 -84zM311 987h8q39 0 68 27t29 73v21l-113 -21q-49 -10 -49 -51q0 -49 57 -49
z" />
    <glyph glyph-name="b.superior" horiz-adv-x="808" 
d="M301 1141q0 -59 34 -99t81 -38h8q49 0 82 38t33 98q0 62 -33 101t-82 39h-8q-47 0 -81 -40t-34 -99zM748 1141q0 -141 -76 -221t-190 -80t-175 82v-72h-209v809h203v-297q61 82 178 82t193 -81t76 -222z" />
    <glyph glyph-name="c.superior" horiz-adv-x="718" 
d="M377 840q-139 0 -227 76t-88 224t88 226t227 78t208 -67t77 -165h-207q-10 68 -82 68h-8q-95 0 -95 -138t95 -138h8q72 0 82 61h207q-10 -97 -78 -161t-207 -64z" />
    <glyph glyph-name="d.superior" horiz-adv-x="808" 
d="M327 840q-114 0 -190 80t-76 221t76 222t193 81t178 -82v297h203v-809h-209v72q-61 -82 -175 -82zM393 1004q47 0 81 38t34 98t-34 100t-81 40h-8q-49 0 -82 -39t-33 -100t33 -99t82 -38h8z" />
    <glyph glyph-name="e.superior" horiz-adv-x="722" 
d="M358 1292q-92 0 -102 -96h205q-6 96 -94 96h-9zM362 840q-128 0 -216 82q-87 82 -87 216t84 220t219 86q134 0 216 -85t81 -214q0 -35 -2 -45h-401q10 -111 109 -111h8q80 0 90 51h194q-10 -86 -89 -143q-78 -57 -206 -57z" />
    <glyph glyph-name="f.superior" horiz-adv-x="544" 
d="M162 850v416h-115v168h115v43q0 182 182 182h195v-154h-123q-45 0 -45 -55v-16h137v-168h-137v-416h-209z" />
    <glyph glyph-name="g.superior" horiz-adv-x="788" 
d="M690 862q0 -118 -84 -198t-224 -80q-287 0 -310 209h209q14 -55 79 -56h13q121 0 121 119v92q-41 -90 -163 -90t-195 80t-73 214t71 213t191 79t156 -96v86h209v-572zM375 1018h8q43 0 71 40t27 93q0 53 -26 93q-27 40 -70 40h-8q-45 0 -75 -35t-30 -98t29 -98t74 -35z
" />
    <glyph glyph-name="h.superior" horiz-adv-x="790" 
d="M307 1182v-332h-209v809h209v-307q53 92 176 92q215 0 215 -240v-354h-209v346q0 86 -75 86h-8q-41 0 -70 -28t-29 -72z" />
    <glyph glyph-name="i.superior" horiz-adv-x="405" 
d="M98 850v584h209v-584h-209zM92 1505v154h221v-154h-221z" />
    <glyph glyph-name="j.superior" horiz-adv-x="405" 
d="M307 1434v-658q0 -182 -182 -182h-209v174h100q53 0 68 15q14 15 14 67v584h209zM92 1505v154h221v-154h-221z" />
    <glyph glyph-name="k.superior" horiz-adv-x="761" 
d="M303 850h-205v809h205v-399l166 174h256l-223 -230l235 -354h-237l-138 211l-59 -62v-149z" />
    <glyph glyph-name="l.superior" horiz-adv-x="405" 
d="M98 850v809h209v-809h-209z" />
    <glyph glyph-name="m.superior" horiz-adv-x="1185" 
d="M307 1182v-332h-209v584h209v-78q61 88 189 88t180 -103q63 102 209 103q100 0 154 -60t55 -157v-377h-209v334q0 96 -80 96h-8q-43 0 -70 -27t-27 -71v-332h-208v334q0 96 -80 96h-9q-43 0 -69 -26t-27 -72z" />
    <glyph glyph-name="o.superior" horiz-adv-x="749" 
d="M379 1280h-8q-47 0 -75 -37t-28 -103t28 -101q28 -36 75 -35h8q47 0 75 36t27 101q1 67 -27 103t-75 36zM375 1444q143 0 229 -86t86 -217t-86 -216t-229 -85t-230 85q-86 85 -86 216t86 217q87 86 230 86z" />
    <glyph glyph-name="p.superior" horiz-adv-x="808" 
d="M482 1444q114 0 190 -80t76 -221t-76 -222t-193 -81t-178 82v-297h-203v809h209v-72q61 82 175 82zM416 1280q-47 0 -81 -39t-34 -98t34 -99t81 -40h8q49 0 82 38t33 100t-33 100t-82 38h-8z" />
    <glyph glyph-name="q.superior" horiz-adv-x="808" 
d="M508 1143q0 59 -34 98t-81 39h-8q-49 0 -82 -38t-33 -99t33 -101t82 -38h8q47 0 81 40t34 99zM61 1143q0 141 76 221t190 80t175 -82v72h209v-809h-203v297q-61 -82 -178 -82t-193 81t-76 222z" />
    <glyph glyph-name="r.superior" horiz-adv-x="536" 
d="M98 850v584h215v-109q35 113 168 113h17v-176h-70q-121 0 -121 -144v-268h-209z" />
    <glyph glyph-name="s.superior" horiz-adv-x="686" 
d="M346 977q62 0 64 45q0 35 -43 43l-138 29q-152 31 -151 161q0 93 76 141t188 48q268 0 285 -203h-199q-4 66 -72 66h-10q-66 0 -65 -41q0 -31 38 -37l148 -33q74 -16 110 -51q35 -35 35 -121t-80 -135t-206 -49q-256 0 -271 207h203q4 -70 80 -70h8z" />
    <glyph glyph-name="t.superior" horiz-adv-x="575" 
d="M512 1022v-172h-176q-182 0 -182 182v234h-115v168h115v184h208v-184h132v-168h-132v-164q0 -52 14 -66t68 -14h68z" />
    <glyph glyph-name="u.superior" horiz-adv-x="790" 
d="M483 1102v332h209v-584h-209v82q-53 -92 -176 -92q-215 0 -215 239v355h209v-347q0 -86 76 -86h8q41 0 70 28q28 28 28 73z" />
    <glyph glyph-name="v.superior" horiz-adv-x="755" 
d="M512 850h-268l-228 584h220l147 -387l149 387h207z" />
    <glyph glyph-name="w.superior" horiz-adv-x="1017" 
d="M623 850l-109 330l-98 -330h-183l-206 584h204l93 -310l102 310h192l97 -308l90 308h186l-207 -584h-161z" />
    <glyph glyph-name="x.superior" horiz-adv-x="718" 
d="M469 850l-111 147l-110 -147h-217l219 293l-217 291h219l108 -146l109 146h217l-217 -289l219 -295h-219z" />
    <glyph glyph-name="y.superior" horiz-adv-x="753" 
d="M317 614h-237v168h141q41 0 57 16t17 58v21l-295 557h236l145 -308l149 308h222l-267 -508v-144q0 -88 -40 -128t-128 -40z" />
    <glyph glyph-name="z.superior" horiz-adv-x="702" 
d="M637 850h-565v133l270 283h-264v168h540v-138l-270 -278h289v-168z" />
    <glyph glyph-name="n.superior" horiz-adv-x="790" 
d="M307 1182v-332h-209v584h209v-82q53 92 176 92q215 0 215 -240v-354h-209v346q0 86 -75 86h-8q-41 0 -70 -28t-29 -72z" />
    <glyph glyph-name="zero.superior" horiz-adv-x="860" 
d="M426 1028h8q131 0 131 226t-131 227h-8q-131 -1 -131 -227t131 -226zM430 840q-176 0 -266 121t-90 293t90 294q90 121 266 121t266 -121t90 -294q0 -174 -90 -294t-266 -120z" />
    <glyph glyph-name="four.superior" horiz-adv-x="831" 
d="M459 1149v281l-215 -281h215zM657 850h-198v127h-402v223l357 459h243v-510h109v-172h-109v-127z" />
    <glyph glyph-name="five.superior" horiz-adv-x="780" 
d="M380 840q-138 0 -227 70t-98 186h230q7 -33 33 -55t61 -21h8q41 0 69 30t28 70t-26 67q-26 26 -67 25h-8q-49 0 -78 -34h-221l90 481h516v-180h-356l-29 -138q53 47 149 47t171 -68q75 -69 75 -196q0 -128 -91 -206t-229 -78z" />
    <glyph glyph-name="six.superior" horiz-adv-x="808" 
d="M403 1202q-39 0 -67 -26t-29 -65q0 -39 28 -65t68 -26h9q40 0 68 27t28 67t-27 64q-27 25 -69 24h-9zM462 1376q116 0 190 -72t73 -188q0 -116 -87 -196q-88 -80 -234 -80t-238 101t-92 291t103 314q103 123 278 123q127 -1 203 -69t79 -175h-213q-14 63 -80 64h-12
q-61 0 -103 -56t-50 -139q67 82 183 82z" />
    <glyph glyph-name="seven.superior" horiz-adv-x="704" 
d="M416 850h-232v27q0 346 234 598h-369v184h613v-160q-246 -246 -246 -612v-37z" />
    <glyph glyph-name="eight.superior" horiz-adv-x="786" 
d="M479 1092q1 30 -23 52t-57 21h-10q-33 1 -57 -21t-25 -52q0 -30 25 -52q25 -20 57 -20h10q33 0 57 20q23 21 23 52zM389 1489q-39 -1 -67 -21t-27 -55q0 -35 28 -55t66 -21h10q39 1 67 21t28 55t-28 55t-67 21h-10zM395 840q-133 0 -219 62t-86 159q0 66 38 116t103 70
q-154 57 -153 201q0 96 92 158t225 63q133 0 225 -62t91 -159q0 -143 -156 -201q65 -20 103 -70t38 -116q0 -97 -84 -159t-217 -62z" />
    <glyph glyph-name="nine.superior" horiz-adv-x="811" 
d="M86 1392q0 117 87 197t233 80t239 -101q92 -101 92 -292q0 -192 -103 -314t-278 -122q-126 0 -202 68t-80 175h213q14 -63 80 -63h12q61 0 103 56t50 138q-66 -82 -182 -82t-190 72q-74 71 -74 188zM408 1307q40 1 68 27t28 64t-28 64t-68 27h-9q-41 0 -69 -27
q-28 -26 -27 -66q0 -40 27 -65t69 -24h9z" />
    <glyph glyph-name="space.tnum" 
 />
    <glyph glyph-name="zero.tnum" 
d="M606 215h17q127 0 197 131t69 371q0 241 -70 371t-196 131h-17q-126 1 -196 -131t-70 -372t70 -370q70 -131 196 -131zM614 -20q-260 0 -404 194t-144 543q0 348 144 543q144 194 404 194t405 -194q144 -195 144 -543t-144 -543q-145 -194 -405 -194z" />
    <glyph glyph-name="one.tnum" 
d="M1174 0h-1086v236h420v813l-318 -306v338l363 353h215v-1198h406v-236z" />
    <glyph glyph-name="two.tnum" 
d="M1118 0h-1009v248l487 459q135 127 182 193t47 140q0 76 -53 127t-137 52h-21q-94 -1 -155 -63t-64 -171h-272q0 215 140 342q141 127 357 127t347 -114t131 -291q0 -131 -62 -233t-211 -238l-372 -342h665v-236z" />
    <glyph glyph-name="three.tnum" 
d="M598 -20q-229 0 -369 112q-139 113 -139 303h272q8 -82 66 -131t160 -49h20q115 0 173 58q59 59 59 143t-70 133t-184 49h-97v236h86q117 0 187 54t70 139t-61 138q-60 53 -153 54h-20q-82 -1 -141 -51t-68 -134h-272q0 182 140 301t357 119q218 0 354 -116t136 -283
q0 -123 -69 -212t-183 -120q118 -31 190 -122t72 -212q0 -195 -144 -302t-372 -107z" />
    <glyph glyph-name="four.tnum" 
d="M721 526v525l-412 -525h412zM721 0v291h-674v272l680 871h254v-908h174v-235h-174v-291h-260z" />
    <glyph glyph-name="five.tnum" 
d="M608 -20q-228 0 -372 116q-145 116 -168 303h272q20 -86 88 -135t168 -49h12q102 0 169 61q67 62 67 166t-66 162t-170 58h-12q-139 0 -229 -99h-250l176 871h809v-236h-602l-82 -391q94 90 250 90q200 0 324 -124q124 -125 124 -329t-140 -334t-368 -130z" />
    <glyph glyph-name="six.tnum" 
d="M614 707q-102 0 -174 -70t-71 -174q-1 -104 69 -176t176 -72h17q98 0 164 71t65 175q0 104 -65 175q-66 71 -164 71h-17zM684 942q184 0 316 -130t133 -338t-139 -351t-385 -143t-387 183t-142 520t184 554t459 217q176 0 297 -105t143 -284h-272q-8 68 -53 111t-127 43
h-17q-132 0 -240 -115t-130 -356q47 90 143 142t217 52z" />
    <glyph glyph-name="seven.tnum" 
d="M344 0v133q0 178 35 335t85 263q50 107 126 203t137 150t139 114h-815v236h1116v-226q-121 -96 -205 -185t-166 -218q-167 -260 -167 -672v-133h-285z" />
    <glyph glyph-name="eight.tnum" 
d="M825 399q0 83 -58 135t-142 52h-21q-84 0 -142 -52t-58 -134t58 -134q58 -51 142 -51h21q84 0 142 51t58 133zM604 1219q-94 1 -160 -55t-66 -136t66 -134t160 -54h21q93 0 159 54t66 134t-66 135t-159 56h-21zM614 -20q-225 0 -353 114t-128 275q0 113 66 195t178 128
q-129 46 -200 146t-71 227q0 161 132 275t376 114t376 -115t132 -274q0 -127 -70 -226t-200 -145q244 -94 244 -325q0 -162 -128 -276q-129 -113 -354 -113z" />
    <glyph glyph-name="nine.tnum" 
d="M506 -20q-176 0 -297 105t-143 284h272q8 -68 53 -111t127 -43h17q133 0 241 115t129 356q-47 -90 -143 -142t-217 -52q-184 0 -317 130q-132 130 -132 338t140 351t384 143t386 -183t143 -520q-1 -337 -185 -554t-458 -217zM860 971q0 104 -69 176q-70 72 -177 72h-16
q-98 0 -164 -71t-66 -175t66 -175t164 -71h16q102 0 174 70t72 174z" />
    <glyph glyph-name="numbersign.tnum" 
d="M61 328v235h185l63 307h-207v236h256l68 328h242l-68 -328h205l67 328h242l-67 -328h118v-236h-168l-63 -307h190v-235h-239l-68 -328h-242l68 328h-205l-67 -328h-242l68 328h-136zM692 563l64 307h-205l-64 -307h205z" />
    <glyph glyph-name="period.tnum" 
d="M465 0v297h297v-297h-297z" />
    <glyph glyph-name="comma.tnum" 
d="M483 -307h-84v153h74q127 0 127 134v20h-133v297h297v-328q0 -111 -81 -193t-200 -83z" />
    <glyph glyph-name="colon.tnum" 
d="M465 0v297h297v-297h-297zM465 727v297h297v-297h-297z" />
    <glyph glyph-name="semicolon.tnum" 
d="M489 -307h-83v153h73q127 0 127 134v20h-133v297h297v-328q0 -111 -81 -193t-200 -83zM471 727v297h297v-297h-297z" />
    <glyph glyph-name="plus.tnum" 
d="M1096 600h-348v-379h-269v379h-348v236h348v378h269v-378h348v-236z" />
    <glyph glyph-name="minus.tnum" 
d="M133 602v236h963v-236h-963z" />
    <glyph glyph-name="plusminus.tnum" 
d="M143 221v234h940v-234h-940zM1083 784h-335v-215h-269v215h-336v236h336v225h269v-225h335v-236z" />
    <glyph glyph-name="divide.tnum" 
d="M471 229v277h287v-277h-287zM109 598v236h1011v-236h-1011zM471 926v276h287v-276h-287z" />
    <glyph glyph-name="multiply.tnum" 
d="M909 252l-295 297l-297 -297l-165 168l294 295l-296 297l169 170l297 -297l295 295l166 -168l-293 -293l295 -297z" />
    <glyph glyph-name="equal.tnum" 
d="M133 403v236h963v-236h-963zM133 793v235h963v-235h-963z" />
    <glyph glyph-name="less.tnum" 
d="M1016 238l-871 348v245l871 349v-262l-535 -201l535 -203v-276z" />
    <glyph glyph-name="greater.tnum" 
d="M213 238v260l541 204l-541 203v275l870 -349v-245z" />
    <glyph glyph-name="lessequal.tnum" 
d="M150 203v235h911v-235h-911zM1061 471l-911 250v307l911 250v-254l-615 -147l615 -148v-258z" />
    <glyph glyph-name="greaterequal.tnum" 
d="M168 203v235h911v-235h-911zM168 471v254l614 147l-614 148v258l911 -250v-307z" />
    <glyph glyph-name="approxequal.tnum" 
d="M862 653h266v-82q0 -106 -80 -179t-178 -73q-98 -1 -235 49t-170 50q-82 0 -82 -78h-266v82q0 106 82 179t186 73q105 0 235 -49t160 -50q82 0 82 78zM862 1100h266v-82q0 -106 -80 -179t-178 -73t-235 49t-170 49q-82 0 -82 -78h-266v82q0 106 82 180t186 72
q105 0 235 -49t160 -49q82 0 82 78z" />
    <glyph glyph-name="notequal.tnum" 
d="M1094 406h-449l-57 -185h-252l57 185h-260v235h332l49 154h-381v235h453l57 184h252l-57 -184h256v-235h-328l-49 -154h377v-235z" />
    <glyph glyph-name="logicalnot.tnum" 
d="M1100 293h-273v276h-714v236h987v-512z" />
    <glyph glyph-name="dollar.tnum" 
d="M621 -20h-11l-37 -226h-231l43 258q-162 49 -247 171t-91 298h266q10 -143 115 -215l59 352l-20 5q-348 74 -348 395q0 174 137 306t373 130l37 225h231l-43 -260q147 -49 228 -162t81 -264h-266q-8 115 -86 176l-59 -350l12 -2q377 -86 377 -397q0 -188 -137 -314
t-383 -126zM874 394q0 75 -35 118t-128 59l-62 -360q106 0 166 54q59 54 59 129zM385 1035q0 -71 34 -107t111 -58l58 351q-92 -7 -148 -61t-55 -125z" />
    <glyph glyph-name="cent.tnum" 
d="M645 -20h-2l-39 -226h-209l45 262q-147 56 -226 188t-79 308q0 224 126 372t351 160l39 226h209l-43 -252q115 -37 187 -124t81 -208h-262q-10 49 -47 84l-94 -557q55 8 94 43t47 82h262q-14 -166 -135 -262t-305 -96zM397 512q0 -156 86 -238l90 531q-84 -25 -130 -107
t-46 -186z" />
    <glyph glyph-name="sterling.tnum" 
d="M1155 0h-1057v236h88q66 0 96 30t33 96l13 179l-230 -56v226l248 59l16 234q33 430 455 430h236v-236h-242q-90 0 -131 -44t-49 -161l-13 -157l228 53v-225l-244 -58l-16 -203q-10 -115 -90 -167h659v-236z" />
    <glyph glyph-name="currency.tnum" 
d="M602 410h16q84 0 135 62q50 62 50 154t-51 152q-51 61 -134 62h-16q-82 0 -133 -62t-51 -152q0 -92 50 -154t134 -62zM612 174q-126 0 -227 53l-164 -155l-184 184l164 158q-47 94 -47 207t41 204l-158 158l184 184l156 -149q104 57 237 57t236 -59l160 151l184 -184
l-166 -166q39 -91 39 -197t-45 -200l172 -164l-184 -184l-166 157q-106 -55 -232 -55z" />
    <glyph glyph-name="yen.tnum" 
d="M752 0h-273v217l-276 -61v225l276 61v121l-338 -76v226l277 61l-404 660h293l316 -516l309 516h287l-342 -560l208 48v-226l-333 -73v-121l272 61v-225l-272 -62v-276z" />
    <glyph glyph-name="Euro.tnum" 
d="M699 1454q210 0 344 -124t145 -326h-268q-10 98 -66 156t-147 59h-17q-184 0 -239 -256l305 65v-219l-328 -70v-16q0 -47 4 -121l238 51v-219l-195 -41q66 -178 215 -178h17q90 0 146 58t67 157h268q-4 -203 -138 -327t-352 -123q-166 0 -288 93t-183 265l-186 -39v219
l135 29q-8 84 -10 135l-125 -27v219l137 29q37 259 174 405t347 146z" />
    <glyph glyph-name="section.tnum" 
d="M414 676q0 -58 58 -84q22 -11 63 -27l180 -67q51 18 79 57t27 76q0 86 -127 125l-178 57q-102 -43 -102 -137zM651 -123h-428v215h420q106 0 107 84q0 63 -93 96l-284 107q-121 45 -177 111t-55 169q4 160 187 256q-109 79 -109 225t93 221t274 75l385 -2v-215h-369
q-117 0 -117 -82q0 -68 88 -95l187 -61q170 -55 252 -122t82 -189q0 -86 -52 -160t-139 -117q119 -94 119 -220t-92 -211t-279 -85z" />
    <glyph glyph-name="ampersand.ss04" horiz-adv-x="1398" 
d="M90 338q0 231 248 379l41 24q-88 94 -132 175t-44 194q0 152 114 248q115 96 281 96t281 -96t114 -248q0 -252 -239 -418l207 -227q37 96 36 309v45h256v-55q0 -319 -112 -496l243 -268h-309l-94 98q-164 -119 -422 -118q-199 0 -334 92t-135 266zM575 195q141 0 244 77
l-276 293l-72 -43q-115 -68 -115 -174q0 -72 62 -112t157 -41zM727 1090q0 66 -33 108q-34 42 -98 41q-64 1 -96 -41t-31 -98q-1 -56 21 -98q22 -44 39 -64t65 -72l2 2q131 78 131 222z" />
    <glyph glyph-name="question.ss05" horiz-adv-x="1060" 
d="M309 0v266h266v-266h-266zM315 389v244q0 67 26 101t87 61l109 45q150 59 177 134q13 36 13 100t-50 115q-51 50 -141 50t-145 -54t-63 -141h-267q9 186 145 298t330 112t325 -108q132 -108 132 -287q0 -266 -297 -395l-75 -33q-31 -11 -40 -31t-10 -61v-150h-256z" />
    <glyph glyph-name="questiondown.ss05" horiz-adv-x="1048" 
d="M739 635v-244q1 -67 -25 -101t-87 -61l-109 -45q-150 -59 -177 -134q-13 -36 -13 -100t50 -115q50 -50 140 -50t146 54q55 54 63 141h266q-8 -186 -144 -298t-330 -112q-193 0 -325 108t-133 287q0 266 297 395l76 33q31 11 40 31t9 61v150h256zM745 1024v-266h-266v266
h266z" />
    <glyph glyph-name="questiondown.ss05.case" horiz-adv-x="1058" 
d="M743 1044v-243q1 -68 -25 -102t-87 -60l-109 -45q-149 -58 -177 -134q-13 -36 -13 -100t50 -115q50 -50 140 -50t146 54q55 54 63 140h266q-8 -186 -144 -298q-136 -111 -330 -111q-193 0 -325 108t-132 287q0 266 296 395l76 33q31 11 40 31t9 61v149h256zM750 1434
v-267h-267v267h267z" />
    <glyph glyph-name="at.ss06" horiz-adv-x="1634" 
d="M1034 379h15q78 -1 130 67t52 168t-51 162t-131 64h-15q-82 0 -133 -62t-51 -162q0 -102 52 -170t132 -67zM1495 -256h-502q-385 0 -643 243t-258 634t232 633t577 241q279 0 437 -146t157 -368v-786h-246v141q-88 -162 -280 -162q-158 0 -267 123q-108 123 -108 317
t108 313q109 118 267 117q209 0 280 -163v73q0 158 -92 237t-262 79h-16q-236 0 -383 -177q-148 -177 -148 -467t190 -473t476 -184h481v-225z" />
    <glyph glyph-name="germandbls.case" horiz-adv-x="1343" 
d="M444 1188v-1188h-276v1434h563q201 0 321 -100t119 -269q-1 -117 -69 -205t-162 -112q131 -8 227 -104t97 -245q0 -183 -129 -291t-353 -108h-174v246h158q106 0 164 49q57 49 57 135q0 168 -223 168h-156v238h41q125 0 186 48q60 48 60 129t-55 128t-160 47h-236z" />
    <glyph glyph-name="degree.tnum" 
d="M614 918q61 0 104 45q42 45 42 110t-42 107t-104 43q-62 0 -103 -42q-42 -42 -42 -108q0 -67 42 -111t103 -44zM614 696q-162 0 -270 109t-108 271t108 270t270 108t271 -108t109 -271t-110 -271q-108 -108 -270 -108z" />
    <glyph glyph-name="Triangle" horiz-adv-x="1720" 
d="M31 0l829 1475l830 -1475h-1659z" />
    <glyph glyph-name="percent.tnum" 
d="M778 307q0 -164 92 -164t93 164q-1 164 -93 164t-92 -164zM1137 307q0 -145 -72 -231t-195 -86q-122 0 -194 86t-72 231t72 231t194 87q122 -1 195 -87q72 -86 72 -231zM266 631l697 348v-176l-697 -348v176zM266 1126q0 -164 92 -163q92 -1 92 163t-92 164t-92 -164z
M625 1126q0 -145 -72 -231t-195 -86q-122 0 -194 86t-72 231q0 146 72 232t194 86t195 -86q72 -86 72 -232z" />
    <glyph glyph-name="perthousand.tnum" 
d="M506 307q0 -164 92 -164t92 164t-92 164t-92 -164zM864 307q0 -164 92 -164t93 164q-1 164 -93 164t-92 -164zM962 -10q-117 0 -186 69q-66 -69 -184 -69t-189 86q-72 86 -71 231q0 145 71 232q72 86 189 86t186 -70q66 70 184 70t189 -86q72 -85 72 -231t-72 -232
t-189 -86zM98 625l697 348v-166l-697 -348v166zM209 1126q0 -164 92 -163q92 -1 92 163t-92 164t-92 -164zM567 1126q1 -145 -71 -231t-195 -86t-195 86t-71 231q0 145 71 232q72 86 195 86t195 -86q71 -87 71 -232z" />
    <glyph glyph-name="copyright.alt" horiz-adv-x="1110" 
d="M555 788q-94 0 -155 66q-60 66 -60 190t60 190t154 66t148 -45q53 -45 60 -120h-129q-8 63 -68 63h-8q-43 0 -65 -44t-21 -110q0 -156 86 -155h8q47 0 64 61h129q-6 -76 -58 -119t-145 -43zM199 1044q0 -150 104 -254t253 -106q149 0 252 106t103 256t-103 254
q-104 104 -252 104t-252 -104q-104 -106 -105 -256zM1026 1044q0 -194 -138 -332t-333 -138t-333 138q-138 140 -138 334t138 331q138 139 333 139t333 -138t138 -334z" />
    <glyph glyph-name="registered.alt" horiz-adv-x="1112" 
d="M383 805v471h201q80 0 123 -36t43 -88t-26 -86t-65 -42q84 0 84 -70v-149h-116v123q1 27 -11 37t-41 10h-75v-170h-117zM500 1071h67q66 0 66 57q0 51 -70 52h-63v-109zM199 1044q0 -150 104 -254t253 -106q149 0 252 106t103 256t-103 254q-104 104 -252 104t-252 -104
q-104 -106 -105 -256zM1026 1044q0 -194 -138 -332t-333 -138t-333 138q-138 140 -138 334t138 331q138 139 333 139t333 -138t138 -334z" />
    <glyph glyph-name="uni2117.alt" horiz-adv-x="1110" 
d="M514 1065h61q72 0 72 59t-72 60h-61v-119zM397 809v471h211q74 0 116 -40t42 -116t-42 -116t-116 -39h-94v-160h-117zM199 1044q0 -150 104 -254t253 -106q149 0 252 106t103 256t-103 254q-104 104 -252 104t-252 -104q-104 -106 -105 -256zM1026 1044q0 -194 -138 -332
t-333 -138t-333 138q-138 140 -138 334t138 331q138 139 333 139t333 -138t138 -334z" />
    <glyph glyph-name="circle_three_numbers" horiz-adv-x="1802" 
d="M901 98q252 0 431 182t179 439q0 256 -179 438t-431 182t-431 -182t-179 -438q0 -257 179 -439t431 -182zM102 719q0 330 234 564q234 235 565 235q330 0 564 -234q235 -234 235 -565t-234 -565t-564 -234q-328 0 -564 234t-236 565z" />
    </font>
</defs>
</svg>
